<?xml version="1.0" encoding="utf-8"?>
<!-- Generator: Adobe Illustrator 16.0.0, SVG Export Plug-In . SVG Version: 6.00 Build 0)  -->
<!DOCTYPE svg PUBLIC "-//W3C//DTD SVG 1.1//EN" "http://www.w3.org/Graphics/SVG/1.1/DTD/svg11.dtd">
<svg version="1.1" id="Layer_1" xmlns="http://www.w3.org/2000/svg" xmlns:xlink="http://www.w3.org/1999/xlink" x="0px" y="0px"
	 width="226.167px" height="69.792px" viewBox="0 0 226.167 69.792" enable-background="new 0 0 226.167 69.792"
	 xml:space="preserve">
<g>
	<g>
		<g>
			<text transform="matrix(1 0 0 1 95.5684 37.3579)" fill="#FFFFFF" font-family="'HelveticaNeueLTCom-ThCn'" font-size="8">SINCE 1927</text>
			<g>
				
					<line fill="none" stroke="#FFFFFF" stroke-width="0.25" stroke-miterlimit="10" x1="66.234" y1="34.752" x2="90.066" y2="34.752"/>
				
					<line fill="none" stroke="#FFFFFF" stroke-width="0.25" stroke-miterlimit="10" x1="90.066" y1="36.584" x2="90.066" y2="32.918"/>
			</g>
			<g>
				
					<line fill="none" stroke="#FFFFFF" stroke-width="0.25" stroke-miterlimit="10" x1="158.898" y1="34.752" x2="135.066" y2="34.752"/>
				
					<line fill="none" stroke="#FFFFFF" stroke-width="0.25" stroke-miterlimit="10" x1="135.066" y1="36.584" x2="135.066" y2="32.918"/>
			</g>
		</g>
	</g>
	<g>
		<g>
			<path fill="#FFFFFF" d="M31.997,2.832c-0.98,0.979-1.871,2.281-2.668,3.906c-0.826,1.728-1.24,3.236-1.24,4.525
				c0,0.412,0.141,1.07,0.428,1.973c-1.008,0.078-1.973,1.276-2.902,3.598c-0.801,1.985-1.197,3.52-1.197,4.603
				c0,0.258,0.074,0.671,0.229,1.239c0.156,0.566,0.297,0.902,0.426,1.004c-0.564,0.569-1.25,0.852-2.049,0.852
				c-0.207,0-0.516-0.051-0.93-0.154c-0.41-0.103-0.721-0.155-0.928-0.155c-0.078,0-0.238,0.046-0.482,0.135
				c-0.246,0.092-0.406,0.15-0.484,0.175h-1.045c-0.928,0-1.637-0.282-2.127-0.852c0.258-0.282,0.553-0.669,0.891-1.16
				c0.18-0.438,0.271-0.875,0.271-1.313c0-1.059-0.465-3.172-1.395-6.344l-0.154-0.194c-0.078,0.025-0.168,0.09-0.268,0.194
				c-0.854,2.862-1.279,4.937-1.279,6.225c0,0.802,0.039,1.278,0.115,1.433c0.592,0.595,0.891,0.968,0.891,1.122
				c0,0.593-0.709,0.89-2.129,0.89h-1.043c-0.412-0.206-0.709-0.31-0.891-0.31c0.078,0-0.23,0.104-0.93,0.31h-0.963
				c-0.828,0-1.486-0.232-1.975-0.695c0-0.053,0.064-0.199,0.193-0.446c0.129-0.245,0.207-0.419,0.232-0.522
				c0.104-0.411,0.154-0.89,0.154-1.431c0-1.263-0.387-2.81-1.16-4.641c-0.877-2.063-1.83-3.25-2.865-3.56
				c0.313-0.851,0.467-1.533,0.467-2.05c0-1.109-0.451-2.578-1.354-4.41c-0.902-1.829-1.793-3.093-2.67-3.791
				c0.18-0.333,0.633-0.631,1.354-0.889c0.646-0.233,1.201-0.35,1.664-0.35c0.154,0,0.484,0.078,0.988,0.235
				c0.5,0.152,0.83,0.23,0.986,0.23c0.205,0,0.541-0.078,1.004-0.23c0.463-0.157,0.797-0.235,1.006-0.235
				c0.309,0,0.715,0.104,1.219,0.311s0.756,0.439,0.756,0.696c0,0.052-0.133,0.322-0.391,0.811C9.497,4.056,9.354,4.327,9.329,4.378
				V5.5c0,1.005,0.232,2.038,0.695,3.095c0.051,0.13,0.252,0.414,0.6,0.852c0.35,0.439,0.523,0.709,0.523,0.812
				c0,0.207-0.072,0.567-0.213,1.083s-0.213,0.877-0.213,1.083c0,1.418,0.322,2.502,0.967,3.25c0.078,0,0.156-0.064,0.232-0.193
				c0.334-1.264,0.502-2.258,0.502-2.978c0-0.259-0.076-0.641-0.23-1.142c-0.156-0.503-0.232-0.883-0.232-1.143
				c0.076-0.155,0.334-0.515,0.775-1.083C13.377,8.285,13.7,7.228,13.7,5.964c0-0.543-0.09-1.07-0.27-1.586
				c-0.025-0.104-0.17-0.388-0.426-0.851c-0.232-0.388-0.348-0.645-0.348-0.774c0-0.309,0.27-0.567,0.811-0.771
				c0.41-0.157,0.813-0.235,1.201-0.235c0.152,0,0.475,0.078,0.965,0.235c0.49,0.152,0.799,0.23,0.928,0.23
				c0.156,0,0.477-0.078,0.967-0.23c0.49-0.157,0.803-0.235,0.93-0.235c0.955,0,1.664,0.286,2.127,0.853l-0.889,1.779
				c-0.154,0.412-0.232,0.954-0.232,1.624c0,0.646,0.283,1.554,0.85,2.728c0.57,1.174,0.852,1.682,0.852,1.527
				c0,0.258-0.078,0.652-0.23,1.181c-0.156,0.527-0.232,0.921-0.232,1.179c0,0.335,0.064,0.813,0.191,1.432
				c0.156,0.695,0.246,1.174,0.271,1.432l0.193,0.193c0.336-0.156,0.631-0.657,0.889-1.51c0.207-0.695,0.313-1.301,0.313-1.818
				c0-0.128-0.098-0.483-0.293-1.063c-0.193-0.579-0.289-0.934-0.289-1.063c0-0.103,0.104-0.27,0.311-0.502
				c0.281-0.336,0.438-0.529,0.465-0.581c0.797-1.134,1.199-2.347,1.199-3.636c0-0.721-0.311-1.637-0.93-2.746
				c0.387-0.669,1.031-1.007,1.932-1.007c0.518,0,1.047,0.092,1.59,0.271c0.127,0.207,0.281,0.311,0.463,0.311
				c1.16-0.388,1.83-0.582,2.01-0.582C29.999,1.747,30.989,2.11,31.997,2.832z M30.604,2.985c0-0.077-0.246-0.186-0.734-0.328
				c-0.492-0.142-0.813-0.212-0.969-0.212c-0.361,0-0.697,0.089-1.004,0.27c-0.027,0.025-0.143,0.123-0.35,0.29
				c-0.205,0.169-0.348,0.253-0.424,0.253c-0.029,0-0.287-0.136-0.775-0.406c-0.488-0.271-0.891-0.406-1.199-0.406
				c-0.207,0-0.566,0.089-1.082,0.27v0.388c0.387,1.058,0.578,1.831,0.578,2.319c0,1.214-0.283,2.425-0.85,3.637
				c-0.232,0.258-0.477,0.593-0.734,1.005c-0.076,0.13-0.076,0.312,0,0.543c0.076,0.232,0.129,0.412,0.154,0.541
				c0.232,2.114-0.35,4.242-1.74,6.382c-1.188-1.624-1.664-3.714-1.432-6.266c0-0.052,0.039-0.205,0.115-0.464
				c0.078-0.258,0.09-0.425,0.039-0.503C19.94,9.91,19.618,9.38,19.229,8.71c-0.307-0.954-0.463-1.856-0.463-2.708
				c0-0.773,0.078-1.392,0.234-1.856c0.359-0.723,0.541-1.07,0.541-1.044V2.714c-0.518-0.181-0.891-0.27-1.121-0.27
				c-0.311,0-0.684,0.135-1.123,0.406c-0.439,0.271-0.684,0.406-0.736,0.406l-0.695-0.426c-0.463-0.258-0.838-0.387-1.123-0.387
				c-0.256,0-0.645,0.089-1.158,0.27v0.388c0.539,0.618,0.811,1.572,0.811,2.862c0,0.929-0.205,1.96-0.619,3.094
				c-0.205,0.258-0.449,0.634-0.734,1.122c-0.078,0.182-0.078,0.426,0,0.735c0.102,0.387,0.156,0.618,0.156,0.695
				c0.129,1.443-0.297,3.353-1.277,5.725c-0.076,0.131-0.143,0.193-0.191,0.193c-1.215-2.037-1.82-3.842-1.82-5.415
				c0-0.645,0.09-1.275,0.271-1.896c-1.109-1.237-1.664-2.886-1.664-4.95c0-0.232,0.014-0.387,0.037-0.464
				c0.027-0.181,0.123-0.49,0.293-0.93c0.168-0.438,0.252-0.695,0.252-0.772V2.714c-0.545-0.181-0.865-0.27-0.969-0.27
				c-0.518,0-1.211,0.27-2.09,0.813L5.499,2.832c-0.387-0.258-0.76-0.387-1.121-0.387c-0.518,0-1.045,0.089-1.586,0.27
				C2.612,2.845,2.52,2.973,2.52,3.102c0.955,1.159,1.74,2.514,2.359,4.061c0.672,1.651,1.008,3.171,1.008,4.565
				c0,0.413-0.041,0.8-0.115,1.159c0.928,0.518,1.791,1.817,2.59,3.908c0.723,1.907,1.084,3.495,1.084,4.758
				c0,0.258-0.02,0.639-0.059,1.141c-0.039,0.503-0.059,0.884-0.059,1.142c0.076,0,0.195,0.026,0.348,0.076
				c0.154,0.052,0.271,0.078,0.348,0.078c0.619,0,1.252-0.311,1.896-0.928c0.18,0.206,0.508,0.412,0.984,0.617
				c0.48,0.207,0.861,0.311,1.143,0.311c0.104,0,0.252-0.026,0.447-0.078c0.191-0.05,0.34-0.076,0.443-0.076v-0.389
				c-0.361-0.463-0.543-1.263-0.543-2.396c0-1.084,0.078-2,0.234-2.748c0.051-0.257,0.67-2.293,1.855-6.11
				c0.053-0.051,0.129-0.078,0.232-0.078c0.438,1.495,0.875,2.979,1.314,4.45c0.49,1.855,0.734,3.363,0.734,4.522
				c0,0.905-0.051,1.498-0.154,1.78c-0.281,0.567-0.424,0.801-0.424,0.697c0,0.284,0.129,0.426,0.387,0.426
				c0.67,0,1.223-0.091,1.662-0.271c0.541-0.36,0.891-0.541,1.045-0.541c0.955,0.541,1.57,0.813,1.855,0.813
				c0.26,0,0.527-0.091,0.814-0.271v-0.734c0-0.077-0.078-0.349-0.236-0.813c-0.051-0.618-0.01-1.302,0.119-2.05
				c0.436-2.527,1.289-4.63,2.553-6.307c0.283-0.386,0.605-0.694,0.967-0.928c-0.182-2.295,0.35-4.666,1.588-7.117
				C29.172,5.306,29.727,4.378,30.604,2.985z M29.792,3.14c-1.367,1.832-2.385,4.229-3.059,7.193
				c-0.074,0.363-0.063,1.098,0.041,2.206c-0.826,0.878-1.754,2.566-2.785,5.067c-0.516,1.264-0.773,2.553-0.773,3.869
				c0,0.438,0.037,1.07,0.115,1.894h-0.695c-0.051,0.027-0.246-0.095-0.58-0.366c-0.336-0.271-0.594-0.406-0.773-0.406
				c-0.414,0-0.969,0.27-1.664,0.813l-0.734-0.154c0.387-0.362,0.58-1.045,0.58-2.05c0-0.956-0.129-2-0.385-3.135
				c-0.104-0.489-0.76-2.645-1.967-6.461c-0.078-0.205-0.258-0.308-0.543-0.308c-0.52,0-1.342,2.256-2.48,6.769
				c-0.26,1.006-0.389,2.039-0.389,3.094c0,0.801,0.193,1.484,0.58,2.051c-0.129,0.13-0.283,0.194-0.463,0.194
				c-0.105,0-0.412-0.135-0.93-0.406c-0.516-0.271-0.826-0.406-0.928-0.406c-0.207,0-0.482,0.136-0.83,0.406
				c-0.35,0.271-0.551,0.406-0.6,0.406h-0.506L9.87,23.255c0.104-0.671,0.154-1.213,0.154-1.626c0-1.393-0.361-3.016-1.082-4.874
				c-0.748-1.959-1.611-3.364-2.592-4.216c0.078-0.335,0.115-0.684,0.115-1.044c0-1.881-0.748-4.255-2.242-7.117
				C4.094,4.122,3.797,3.759,3.333,3.293C3.54,3.192,3.85,3.14,4.26,3.14c0.463,0,0.762,0.039,0.891,0.117
				c0.283,0.23,0.58,0.463,0.889,0.695C7.303,3.334,8.09,3.024,8.401,3.024v0.428c0,0.076-0.051,0.172-0.154,0.289
				C8.143,3.857,8.09,3.953,8.09,4.03C7.989,4.674,7.936,5.113,7.936,5.344c0,0.774,0.154,1.587,0.465,2.438
				C8.53,8.118,8.889,8.917,9.483,10.18c0.053,0.129,0.053,0.31,0,0.542c-0.102,0.412-0.154,0.631-0.154,0.658
				c-0.076,0.824,0,1.817,0.232,2.978c0.361,0.852,0.992,2.103,1.895,3.752h0.541c0.775-1.058,1.201-2.05,1.277-2.979
				c0.053-0.104,0.141-0.244,0.271-0.427c0.051-0.437,0.117-1.096,0.193-1.97c0.129-0.182,0.193-0.324,0.193-0.427
				c-0.232-0.568-0.348-1.07-0.348-1.509c0-0.155,0.012-0.31,0.037-0.466c0.154-0.204,0.361-0.515,0.621-0.929
				c0.486-1.392,0.734-2.538,0.734-3.44c0-1.083-0.234-2.012-0.697-2.785c0-0.104,0.09-0.155,0.266-0.155
				c0.432,0,0.875,0.155,1.33,0.464l0.646,0.465c0.104-0.053,0.381-0.27,0.838-0.659c0.127-0.102,0.596-0.153,1.406-0.153
				c0-0.488-0.096-0.264-0.289,0.677c-0.193,0.942-0.289,1.657-0.289,2.147c0,0.875,0.129,1.715,0.387,2.514
				c0.154,0.465,0.5,1.071,1.043,1.818c0.023,0.129,0,0.348-0.076,0.658c-0.129,0.386-0.193,0.604-0.193,0.656
				c-0.104,0.8,0.012,1.91,0.348,3.328c0.078,0.359,0.297,0.927,0.658,1.701c0.438,0.979,0.811,1.47,1.121,1.47
				c0.438,0,1.02-0.863,1.74-2.593l0.348-1.044c0-0.282,0.064-0.76,0.193-1.431c0.129-0.594,0.182-1.068,0.156-1.432
				c-0.027-0.024-0.092-0.23-0.197-0.618c-0.102-0.283-0.127-0.503-0.074-0.659c0.154-0.282,0.398-0.707,0.734-1.275
				c0.154-0.334,0.283-0.799,0.389-1.392c0-0.026,0.049-0.103,0.152-0.232c0.104-0.128,0.154-0.245,0.154-0.348V3.798
				c0-0.13-0.102-0.246-0.307-0.347V3.024c0.359,0.052,0.822,0.143,1.391,0.27c0.078,0.026,0.227,0.144,0.445,0.349
				c0.219,0.208,0.393,0.311,0.523,0.311c0.076,0,0.264-0.136,0.559-0.406c0.297-0.271,0.496-0.406,0.6-0.406H29.792z"/>
			<path fill="#FFFFFF" d="M37.915,14.893c-0.816,0.751-1.225,2.084-1.225,3.998c0,1.847,0.408,3.427,1.225,4.736
				c-0.064,0.151-0.295,0.339-0.693,0.564s-0.693,0.339-0.887,0.339c-0.279,0-0.682-0.059-1.211-0.177
				c-0.523-0.12-0.756-0.179-0.689-0.179c-0.086,0-0.193,0.039-0.322,0.113c-0.131,0.076-0.217,0.124-0.26,0.146
				c-0.537,0.064-0.988,0.097-1.354,0.097c-0.129,0-0.412-0.113-0.855-0.339c-0.439-0.226-0.68-0.381-0.725-0.468
				c0.84-1.116,1.258-2.728,1.258-4.833c0-1.592-0.418-2.924-1.258-3.998c0.84-0.838,1.258-2.158,1.258-3.966
				c0-1.718-0.342-3.136-1.031-4.254c-0.086-0.15-0.129-0.322-0.129-0.517c0.559-0.408,1.203-0.611,1.934-0.611
				c0.129,0,0.375,0.048,0.742,0.145c0.365,0.096,0.611,0.146,0.742,0.146c0.148,0,0.396-0.05,0.738-0.146
				c0.346-0.097,0.592-0.145,0.742-0.145c0.709,0,1.375,0.235,2,0.709c-0.816,1.159-1.225,2.718-1.225,4.673
				C36.69,12.711,37.098,14.034,37.915,14.893z M37.075,23.533c-0.643-1.459-0.967-3.015-0.967-4.665
				c0-1.245,0.162-2.307,0.484-3.187c0.258-0.386,0.387-0.654,0.387-0.804c0-0.043-0.102-0.312-0.305-0.806
				c-0.207-0.493-0.318-0.804-0.34-0.932c-0.15-0.646-0.227-1.353-0.227-2.125c0-0.836,0.111-1.778,0.324-2.831
				c0.02-0.086,0.117-0.316,0.289-0.691c0.172-0.376,0.246-0.584,0.227-0.628v-0.61c-0.086-0.022-0.264-0.065-0.531-0.13
				c-0.271-0.065-0.438-0.097-0.502-0.097c-0.086,0-0.326,0.113-0.725,0.34c-0.398,0.224-0.639,0.338-0.725,0.338
				c-0.064,0-0.307-0.114-0.727-0.338c-0.418-0.227-0.67-0.34-0.756-0.34c-0.109,0-0.475,0.107-1.096,0.321v0.419
				c0.578,1.115,0.871,2.51,0.871,4.183c0,0.965-0.109,1.823-0.324,2.574c-0.021,0.087-0.117,0.323-0.291,0.708
				c-0.172,0.388-0.256,0.621-0.256,0.708c0,0.063,0.117,0.311,0.354,0.74c0.084,0.149,0.193,0.649,0.322,1.497
				c0.131,0.847,0.195,1.411,0.195,1.689c0,0.362-0.061,0.965-0.18,1.802c-0.117,0.836-0.23,1.394-0.338,1.673
				c-0.301,0.793-0.451,1.147-0.451,1.062c0,0.129,0.15,0.254,0.451,0.37c0.301,0.117,0.537,0.177,0.709,0.177
				c0.064,0,0.307-0.107,0.725-0.323c0.42-0.214,0.674-0.321,0.76-0.321s0.342,0.107,0.773,0.321
				c0.43,0.216,0.676,0.323,0.738,0.323C36.292,23.951,36.667,23.811,37.075,23.533z M36.497,14.893c0,0.086-0.088,0.274-0.26,0.563
				c-0.17,0.291-0.268,0.488-0.291,0.596c-0.213,0.925-0.32,1.869-0.32,2.839c0,1.331,0.107,2.298,0.32,2.899l0.551,1.548
				c-0.088,0.106-0.27,0.16-0.551,0.16c-0.232,0-0.514-0.113-0.836-0.338c-0.322-0.226-0.537-0.339-0.645-0.339
				c-0.064,0-0.262,0.113-0.596,0.339c-0.334,0.225-0.533,0.338-0.598,0.338h-0.773c-0.107-0.106-0.141-0.224-0.098-0.354
				c0.217-0.234,0.387-0.654,0.516-1.256c0.215-1.031,0.324-2.053,0.324-3.063c0-0.988-0.109-1.912-0.324-2.773
				c-0.086-0.148-0.182-0.365-0.289-0.644l-0.129-0.193C32.413,15.108,32.37,15,32.37,14.893c0-0.064,0.084-0.247,0.258-0.548
				c0.172-0.302,0.27-0.506,0.289-0.613c0.215-0.923,0.324-1.849,0.324-2.772c0-2.02-0.27-3.396-0.807-4.126l0.031-0.226h1
				c0.064,0,0.232,0.112,0.502,0.339c0.266,0.226,0.434,0.339,0.498,0.339s0.248-0.113,0.549-0.339
				c0.301-0.227,0.49-0.339,0.58-0.339h0.902c-0.238,0.301-0.451,1.001-0.645,2.097c-0.15,0.923-0.227,1.675-0.227,2.255
				c0,0.882,0.107,1.806,0.32,2.772c0.023,0.107,0.121,0.312,0.291,0.613C36.409,14.646,36.497,14.829,36.497,14.893z"/>
			<path fill="#FFFFFF" d="M50.711,23.338c0,0.085-0.018,0.228-0.049,0.419c-0.033,0.194-0.049,0.339-0.049,0.436
				c0,0.098-0.076,0.145-0.225,0.145c-0.086,0-0.346-0.107-0.775-0.322s-0.688-0.321-0.773-0.321c-0.344,0-0.934,0.14-1.771,0.419
				c-0.84,0.28-1.494,0.418-1.967,0.418c-0.387,0-0.881-0.097-1.484-0.289c-0.6-0.194-0.965-0.29-1.094-0.29
				c-0.152,0-0.424,0.063-0.82,0.192c-0.4,0.13-0.674,0.193-0.826,0.193c-0.6,0-1.225-0.236-1.867-0.709
				c0.838-1.57,1.256-3.211,1.256-4.931c0-1.311-0.236-2.375-0.709-3.192c-0.363-0.364-0.547-0.635-0.547-0.806
				c0-0.063,0.068-0.167,0.209-0.307c0.139-0.138,0.221-0.229,0.24-0.274c0.537-0.881,0.807-1.998,0.807-3.352
				c0-2.042-0.418-3.567-1.256-4.577c0.387-0.624,1.193-0.935,2.418-0.935c0.064,0,0.252,0.081,0.564,0.241
				c0.311,0.161,0.498,0.241,0.563,0.241l0.518-0.257c0.621-0.086,1.01-0.128,1.16-0.128c0.301,0,0.891,0.268,1.771,0.806
				c-0.816,1.288-1.225,2.858-1.225,4.705c0,1.698,0.408,3.01,1.225,3.933c-0.816,0.988-1.225,2.332-1.225,4.029
				c0,0.667,0.074,1.108,0.225,1.321c0.215,0.301,0.635,0.452,1.26,0.452c1.223,0,2.084-0.764,2.576-2.288
				c0.279,0.15,0.576,0.448,0.885,0.902c0.314,0.45,0.504,0.837,0.566,1.159c0,0.28,0.023,0.914,0.064,1.902
				c0,0.106,0.057,0.296,0.176,0.563C50.653,23.109,50.711,23.275,50.711,23.338z M50.131,23.048
				c-0.064-0.149-0.248-0.312-0.549-0.484c0-0.128,0.031-0.306,0.098-0.532c0.063-0.224,0.096-0.391,0.096-0.498
				c0.021-0.28-0.037-0.623-0.176-1.032c-0.139-0.407-0.305-0.688-0.498-0.838c-0.084,0.043-0.18,0.107-0.287,0.194
				c-0.279,0.88-1.133,1.32-2.566,1.32c-0.873,0-1.451-0.171-1.729-0.516c-0.211-0.278-0.322-0.869-0.322-1.771
				c0-1.72,0.26-3.009,0.775-3.869c0.064-0.064,0.096-0.141,0.096-0.226c0-0.066-0.117-0.376-0.354-0.936
				c-0.236-0.558-0.367-0.943-0.389-1.16c-0.086-0.645-0.129-1.268-0.129-1.869c0-1.483,0.162-2.61,0.484-3.385
				c0.021-0.043,0.107-0.183,0.258-0.417c0.148-0.239,0.225-0.411,0.225-0.518c0-0.063-0.02-0.14-0.063-0.227
				c-0.045-0.085-0.064-0.138-0.064-0.16c-0.109,0-0.279-0.017-0.516-0.048c-0.238-0.033-0.408-0.05-0.514-0.05
				c-0.305,0-0.621,0.081-0.955,0.242c-0.33,0.162-0.51,0.242-0.529,0.242c-0.086,0-0.344-0.113-0.773-0.338
				c-0.432-0.227-0.689-0.338-0.773-0.338c-0.043,0-0.377,0.106-1,0.319v0.42c0.582,1.138,0.871,2.423,0.871,3.861
				c0,0.128-0.045,0.814-0.131,2.058c-0.021,0.13-0.117,0.538-0.289,1.225c-0.021,0.085-0.102,0.251-0.242,0.497
				c-0.141,0.248-0.209,0.404-0.209,0.468c0,0.106,0.076,0.321,0.227,0.644c0.191,0.386,0.299,0.623,0.32,0.707
				c0.215,0.772,0.324,1.76,0.324,2.961c0,0.58-0.098,1.319-0.289,2.221c-0.195,0.986-0.422,1.694-0.678,2.122
				c0.43,0.279,0.783,0.419,1.063,0.419c0.363,0,0.676-0.071,0.936-0.215c0-0.041,0.09-0.123,0.273-0.246
				c0.182-0.123,0.305-0.185,0.371-0.185l0.871,0.421c0.578,0.301,1.041,0.45,1.385,0.45c0.559,0,1.305-0.144,2.24-0.435
				c0.936-0.29,1.541-0.437,1.82-0.437c0.324,0,0.721,0.089,1.191,0.259c0-0.021,0.018-0.076,0.051-0.161
				C50.116,23.125,50.131,23.07,50.131,23.048z M49.389,21.277c0,0.106-0.053,0.315-0.16,0.627
				c-0.109,0.312-0.162,0.543-0.162,0.693c-0.301,0.022-0.719,0.075-1.256,0.162c-0.988,0.494-1.84,0.74-2.549,0.74
				c-0.559,0-1.064-0.076-1.514-0.225c-0.086-0.021-0.287-0.135-0.596-0.34c-0.313-0.203-0.514-0.306-0.598-0.306
				c-0.064,0-0.264,0.115-0.596,0.338c-0.332,0.225-0.531,0.34-0.598,0.34h-0.674c-0.088,0-0.129-0.086-0.129-0.259
				c0-0.064,0.014-0.155,0.047-0.274c0.033-0.118,0.102-0.252,0.209-0.402c0.344-1.375,0.516-2.601,0.516-3.674
				c0-1.075-0.076-1.892-0.225-2.451c0-0.041-0.1-0.333-0.291-0.869L40.559,14.7c0-0.042,0.084-0.295,0.256-0.758
				c0.174-0.462,0.268-0.757,0.291-0.888c0.148-0.708,0.225-1.449,0.225-2.223c0-1.053-0.172-2.277-0.516-3.675l-0.127-0.161
				c-0.088-0.085-0.129-0.171-0.129-0.258V6.416h0.9c0.064,0,0.236,0.113,0.518,0.339c0.277,0.227,0.461,0.337,0.547,0.337
				c0.064,0,0.305-0.11,0.725-0.337c0.42-0.226,0.67-0.339,0.76-0.339c0.061,0,0.158,0.021,0.289,0.064
				c0.127,0.044,0.225,0.064,0.289,0.064c-0.303,0.387-0.592,1.482-0.869,3.287v2.192c0.127,0.731,0.266,1.364,0.418,1.902
				c0.021,0.086,0.102,0.241,0.242,0.467c0.137,0.228,0.209,0.382,0.209,0.469c0,0.063-0.072,0.203-0.209,0.418
				c-0.141,0.215-0.221,0.354-0.242,0.42c-0.279,0.838-0.418,1.397-0.418,1.676v2.708c0,0.236,0.215,0.547,0.643,0.936
				c0.43,0.387,0.773,0.591,1.031,0.611c0.109,0.021,0.398,0.032,0.873,0.032c1.049,0,1.977-0.42,2.771-1.257
				C49.268,20.685,49.389,20.976,49.389,21.277z"/>
			<path fill="#FFFFFF" d="M63.152,23.338c0,0.085-0.016,0.228-0.049,0.419c-0.031,0.194-0.049,0.339-0.049,0.436
				c0,0.098-0.076,0.145-0.225,0.145c-0.084,0-0.344-0.107-0.773-0.322c-0.432-0.215-0.688-0.321-0.775-0.321
				c-0.342,0-0.936,0.14-1.771,0.419c-0.84,0.28-1.494,0.418-1.967,0.418c-0.384,0-0.88-0.097-1.482-0.289
				c-0.602-0.194-0.967-0.29-1.096-0.29c-0.152,0-0.426,0.063-0.822,0.192c-0.398,0.13-0.672,0.193-0.822,0.193
				c-0.604,0-1.223-0.236-1.869-0.709c0.836-1.57,1.258-3.211,1.258-4.931c0-1.311-0.238-2.375-0.711-3.192
				c-0.363-0.364-0.547-0.635-0.547-0.806c0-0.063,0.068-0.167,0.209-0.307c0.141-0.138,0.221-0.229,0.242-0.274
				c0.537-0.881,0.807-1.998,0.807-3.352c0-2.042-0.422-3.567-1.258-4.577c0.387-0.624,1.193-0.935,2.418-0.935
				c0.064,0,0.252,0.081,0.563,0.241c0.313,0.161,0.5,0.241,0.564,0.241l0.518-0.257c0.623-0.086,1.01-0.128,1.158-0.128
				c0.301,0,0.894,0.268,1.773,0.806c-0.814,1.288-1.224,2.858-1.224,4.705c0,1.698,0.41,3.01,1.224,3.933
				c-0.814,0.988-1.224,2.332-1.224,4.029c0,0.667,0.076,1.108,0.226,1.321c0.213,0.301,0.633,0.452,1.256,0.452
				c1.225,0,2.086-0.764,2.578-2.288c0.279,0.15,0.576,0.448,0.887,0.902c0.313,0.45,0.502,0.837,0.566,1.159
				c0,0.28,0.02,0.914,0.064,1.902c0,0.106,0.057,0.296,0.176,0.563C63.094,23.109,63.152,23.275,63.152,23.338z M62.572,23.048
				c-0.064-0.149-0.248-0.312-0.549-0.484c0-0.128,0.033-0.306,0.098-0.532c0.063-0.224,0.096-0.391,0.096-0.498
				c0.023-0.28-0.037-0.623-0.176-1.032c-0.137-0.407-0.305-0.688-0.496-0.838c-0.088,0.043-0.184,0.107-0.289,0.194
				c-0.277,0.88-1.131,1.32-2.563,1.32c-0.875,0-1.453-0.171-1.73-0.516c-0.215-0.278-0.322-0.869-0.322-1.771
				c0-1.72,0.26-3.009,0.773-3.869c0.064-0.064,0.1-0.141,0.1-0.226c0-0.066-0.121-0.376-0.355-0.936
				c-0.238-0.558-0.367-0.943-0.387-1.16c-0.088-0.645-0.131-1.268-0.131-1.869c0-1.483,0.16-2.61,0.484-3.385
				c0.02-0.043,0.105-0.183,0.257-0.417c0.148-0.239,0.225-0.411,0.225-0.518c0-0.063-0.021-0.14-0.064-0.227
				c-0.045-0.085-0.064-0.138-0.064-0.16c-0.107,0-0.277-0.017-0.513-0.048c-0.238-0.033-0.41-0.05-0.516-0.05
				c-0.301,0-0.621,0.081-0.953,0.242c-0.332,0.162-0.51,0.242-0.531,0.242c-0.086,0-0.342-0.113-0.771-0.338
				c-0.434-0.227-0.691-0.338-0.775-0.338c-0.043,0-0.377,0.106-1,0.319v0.42c0.58,1.138,0.871,2.423,0.871,3.861
				c0,0.128-0.043,0.814-0.131,2.058c-0.021,0.13-0.117,0.538-0.289,1.225c-0.023,0.085-0.102,0.251-0.242,0.497
				c-0.141,0.248-0.209,0.404-0.209,0.468c0,0.106,0.078,0.321,0.227,0.644c0.191,0.386,0.301,0.623,0.32,0.707
				c0.217,0.772,0.324,1.76,0.324,2.961c0,0.58-0.098,1.319-0.291,2.221c-0.193,0.986-0.418,1.694-0.676,2.122
				c0.43,0.279,0.783,0.419,1.064,0.419c0.365,0,0.674-0.071,0.934-0.215c0-0.041,0.09-0.123,0.271-0.246
				c0.184-0.123,0.309-0.185,0.373-0.185l0.871,0.421c0.578,0.301,1.041,0.45,1.385,0.45c0.558,0,1.306-0.144,2.24-0.435
				c0.936-0.29,1.543-0.437,1.82-0.437c0.324,0,0.721,0.089,1.193,0.259c0-0.021,0.018-0.076,0.047-0.161
				C62.555,23.125,62.572,23.07,62.572,23.048z M61.83,21.277c0,0.106-0.053,0.315-0.16,0.627c-0.109,0.312-0.16,0.543-0.16,0.693
				c-0.303,0.022-0.721,0.075-1.258,0.162c-0.988,0.494-1.84,0.74-2.547,0.74c-0.56,0-1.064-0.076-1.515-0.225
				c-0.086-0.021-0.285-0.135-0.596-0.34c-0.313-0.203-0.51-0.306-0.598-0.306c-0.064,0-0.264,0.115-0.594,0.338
				c-0.334,0.225-0.533,0.34-0.598,0.34h-0.676c-0.088,0-0.131-0.086-0.131-0.259c0-0.064,0.016-0.155,0.049-0.274
				c0.031-0.118,0.1-0.252,0.211-0.402c0.342-1.375,0.514-2.601,0.514-3.674c0-1.075-0.076-1.892-0.225-2.451
				c0-0.041-0.096-0.333-0.289-0.869l-0.26-0.678c0-0.042,0.086-0.295,0.26-0.758c0.17-0.462,0.266-0.757,0.289-0.888
				c0.148-0.708,0.225-1.449,0.225-2.223c0-1.053-0.172-2.277-0.514-3.675l-0.129-0.161c-0.088-0.085-0.131-0.171-0.131-0.258V6.416
				h0.902c0.064,0,0.236,0.113,0.516,0.339c0.279,0.227,0.463,0.337,0.549,0.337c0.064,0,0.305-0.11,0.727-0.337
				c0.418-0.226,0.67-0.339,0.758-0.339c0.063,0,0.158,0.021,0.289,0.064c0.129,0.044,0.227,0.064,0.289,0.064
				c-0.301,0.387-0.59,1.482-0.869,3.287v2.192c0.129,0.731,0.268,1.364,0.42,1.902c0.018,0.086,0.102,0.241,0.24,0.467
				c0.141,0.228,0.209,0.382,0.209,0.469c0,0.063-0.068,0.203-0.209,0.418c-0.139,0.215-0.223,0.354-0.24,0.42
				c-0.281,0.838-0.42,1.397-0.42,1.676v2.708c0,0.236,0.215,0.547,0.643,0.936c0.43,0.387,0.773,0.591,1.031,0.611
				c0.107,0.021,0.398,0.032,0.871,0.032c1.055,0,1.977-0.42,2.773-1.257C61.711,20.685,61.83,20.976,61.83,21.277z"/>
			<path fill="#FFFFFF" d="M76.658,18.744c0,1.908-0.57,3.35-1.711,4.325c-1.137,0.975-2.674,1.462-4.605,1.462
				c-1.055,0-2.012-0.094-2.871-0.281c-0.172-0.043-0.586-0.204-1.24-0.486c-0.654-0.283-1.039-0.425-1.145-0.425
				c-0.193,0-0.461,0.14-0.807,0.419c-0.342,0.279-0.525,0.419-0.547,0.419c-0.215-0.945-0.324-1.342-0.324-1.192
				c0-0.603,0.281-1.213,0.84-1.836c-0.086-0.279-0.129-0.602-0.129-0.969c0-0.902,0.225-1.677,0.678-2.319
				c0.063,0.042,0.139,0.084,0.225,0.127c0.236,0.83,0.891,1.586,1.967,2.266c1.072,0.682,2.072,1.024,2.998,1.024
				c0.559,0,1.059-0.167,1.5-0.496c0.438-0.332,0.658-0.763,0.658-1.295c0-0.576-0.236-1.055-0.707-1.438
				c-0.475-0.384-1.002-0.575-1.58-0.575c-0.281,0-0.775,0.129-1.482,0.388c0-0.303-0.064-0.722-0.195-1.259
				c-0.129-0.258-0.439-0.559-0.934-0.901l-1.225-0.838c-1.096-0.969-1.645-2.172-1.645-3.612c0-1.761,0.521-3.146,1.564-4.158
				c1.039-1.009,2.441-1.515,4.205-1.515c0.646,0,1.461,0.193,2.449,0.582c0.988,0.386,1.516,0.579,1.58,0.579
				c-0.174,0,0.193-0.13,1.096-0.387c0.086,0.215,0.131,0.538,0.131,0.968c0,0.364-0.033,0.624-0.098,0.774
				c-0.193,0.278-0.377,0.559-0.547,0.837c-0.174,0.859-0.271,1.31-0.293,1.354c-0.129,0.366-0.396,0.741-0.805,1.129h-0.355
				c-0.107-0.646-0.445-1.221-1.014-1.726c-0.57-0.504-1.178-0.757-1.82-0.757c-0.518,0-0.959,0.16-1.324,0.483
				c-0.365,0.322-0.547,0.741-0.547,1.256c0,0.432,0.188,0.807,0.563,1.13c0.377,0.321,0.791,0.483,1.244,0.483
				c0.342,0,0.707-0.086,1.094-0.259h0.355c0.021,0.28,0.148,0.666,0.387,1.156c1.203,0.817,1.967,1.353,2.289,1.609
				c0.902,0.749,1.471,1.435,1.705,2.057C76.518,17.598,76.658,18.23,76.658,18.744z M76.078,18.905
				c0-1.864-1.291-3.503-3.869-4.918c-0.129-0.064-0.338-0.267-0.629-0.611c-0.289-0.341-0.498-0.513-0.627-0.513
				c-0.064,0-0.129,0.016-0.193,0.048c-0.064,0.033-0.129,0.049-0.195,0.049c-0.688,0-1.283-0.221-1.787-0.661
				c-0.506-0.44-0.76-1.005-0.76-1.692c0-0.667,0.229-1.209,0.678-1.628c0.451-0.419,1.02-0.628,1.711-0.628
				c0.943,0,1.691,0.279,2.238,0.838c0.549,0.56,0.949,0.924,1.207,1.096c0.023-0.365,0.1-0.892,0.227-1.579
				c0.045-0.087,0.18-0.28,0.404-0.579c0.225-0.303,0.338-0.473,0.338-0.517c0-0.107-0.074-0.238-0.225-0.388
				c-0.154,0.065-0.313,0.098-0.484,0.098c-0.127,0-0.66-0.195-1.596-0.581c-0.936-0.387-1.713-0.579-2.338-0.579
				c-1.482,0-2.723,0.46-3.721,1.385c-1.002,0.924-1.5,2.128-1.5,3.609c0,1.419,0.676,2.656,2.031,3.709
				c0.473,0.258,1.063,0.709,1.771,1.353c0.064,0.172,0.182,0.387,0.355,0.645c1.848-0.171,3.01,0.44,3.48,1.838
				c0.023,0.063,0.035,0.344,0.035,0.838c0,1.569-0.863,2.354-2.582,2.354c-1.59,0-3.309-0.861-5.156-2.58l-0.127,1.097
				c0.02,0.064,0.088,0.198,0.209,0.402c0.115,0.204,0.176,0.34,0.176,0.402c0,0.088-0.176,0.328-0.531,0.727
				c-0.355,0.396-0.533,0.64-0.533,0.725c0,0.108,0.045,0.203,0.129,0.291c0.387-0.13,0.666-0.193,0.84-0.193
				c0.277,0,0.988,0.214,2.127,0.645c1.137,0.43,2.137,0.644,2.996,0.644c1.461,0,2.719-0.343,3.773-1.029
				c1.225-0.77,1.879-1.842,1.965-3.213c0-0.087,0.027-0.236,0.082-0.45C76.051,19.14,76.078,18.99,76.078,18.905z M75.594,18.759
				c0,0.947-0.225,1.828-0.678,2.646c-0.492,0.9-1.17,1.459-2.029,1.676c-0.107,0.044-0.236,0.119-0.385,0.226
				c-1.119,0.214-1.895,0.321-2.324,0.321c-0.752,0-1.482-0.129-2.189-0.387l-2.031-0.838c-0.107-0.043-0.506-0.064-1.191-0.064
				c0.127-0.216,0.406-0.482,0.838-0.806c0.018-0.043,0.029-0.128,0.029-0.257c0,0.106-0.096-0.194-0.289-0.904
				c1.205,0.956,2.148,1.484,2.836,1.589l0.387,0.251h2.645c0.191,0,0.52-0.219,0.982-0.655s0.727-0.75,0.791-0.94
				c0.148-0.489,0.225-0.808,0.225-0.957c0-0.827-0.303-1.577-0.902-2.248c-0.602-0.669-1.322-1.004-2.16-1.004
				c-0.086,0-0.215,0.017-0.387,0.049s-0.301,0.049-0.389,0.049c-0.17-0.473-0.752-1.053-1.74-1.741
				c-0.988-0.688-1.643-1.429-1.965-2.224c-0.086-0.216-0.129-0.665-0.129-1.354c0-2.342,1.031-3.815,3.094-4.415
				c0.064-0.021,0.551-0.033,1.451-0.033c0.902,0,1.385,0.012,1.449,0.033c0.561,0.3,1.43,0.643,2.609,1.031
				c-0.127,0.15-0.273,0.354-0.447,0.611c-0.023,0.216-0.066,0.517-0.131,0.904c-0.365-0.301-0.76-0.613-1.191-0.936
				c-0.109-0.087-0.299-0.172-0.58-0.257c-0.107-0.022-0.34-0.082-0.693-0.18c-0.354-0.095-0.607-0.144-0.756-0.144
				c-0.088,0-0.217,0.037-0.389,0.112c-0.172,0.076-0.289,0.124-0.354,0.145c-0.623,0.087-1.125,0.376-1.5,0.871
				c-0.377,0.494-0.563,1.052-0.563,1.676c0,0.495,0.154,0.977,0.465,1.45c0.313,0.474,0.693,0.796,1.145,0.968
				c0.064,0.044,0.162,0.118,0.291,0.225c0.193,0,0.467,0.022,0.822,0.065c0.355,0.044,0.629,0.063,0.822,0.063
				c0.449,0.603,1.086,1.118,1.902,1.548c1.072,0.559,1.836,1.321,2.287,2.288C75.488,17.688,75.594,18.202,75.594,18.759z"/>
			<path fill="#FFFFFF" d="M90.389,14.603c-0.15,0.15-0.342,0.354-0.58,0.612c-0.258,0.344-0.385,0.689-0.385,1.031v3.643
				c0,0.581-0.195,1.27-0.58,2.063c-0.389,0.795-0.807,1.332-1.258,1.613c-1.074,0.643-2.473,0.965-4.191,0.965
				c-3.545,0-5.48-1.321-5.801-3.965c-0.021-0.107-0.072-0.365-0.145-0.772c-0.076-0.409-0.115-0.666-0.115-0.774v-3.353
				c0-0.257-0.258-0.537-0.773-0.837c0.021-0.023,0.174-0.206,0.451-0.547c0.215-0.281,0.322-0.465,0.322-0.55v-3.03
				c0.021-0.149,0.109-0.58,0.26-1.289c0.279-1.419,0.967-2.514,2.063-3.288c1.033-0.708,2.289-1.064,3.771-1.064
				c0.172,0,1.139,0.174,2.9,0.516c0.666,0.131,1.348,0.705,2.047,1.726c0.699,1.021,1.049,1.886,1.049,2.595v3.288
				c0,0.192,0.113,0.457,0.336,0.79C89.988,14.308,90.197,14.517,90.389,14.603z M89.326,14.667c0-0.086-0.064-0.227-0.193-0.419
				c-0.129-0.193-0.193-0.322-0.193-0.388v-3.094c0-0.579-0.172-1.273-0.518-2.079c-0.342-0.807-0.73-1.392-1.158-1.757
				c-0.99-0.859-2.268-1.289-3.836-1.289c-1.012,0-1.936,0.217-2.773,0.644c-0.924,0.473-1.588,1.129-2,1.968
				c-0.428,0.923-0.643,1.578-0.643,1.965v3.225c0,0.085-0.08,0.296-0.24,0.628c-0.162,0.334-0.242,0.532-0.242,0.597
				c0,0.086,0.08,0.29,0.242,0.612c0.16,0.321,0.24,0.515,0.24,0.58v3.934c0,0.235,0.15,0.753,0.453,1.547
				c0.643,1.697,2.297,2.546,4.963,2.546c1.309,0,2.309-0.139,2.998-0.419c0.881-0.364,1.547-1.073,1.996-2.127
				c0.346-0.794,0.518-1.591,0.518-2.386v-3.481c0-0.086,0.064-0.221,0.193-0.402C89.262,14.888,89.326,14.753,89.326,14.667z
				 M88.844,14.7c0,0.064-0.082,0.253-0.24,0.563c-0.166,0.313-0.244,0.514-0.244,0.598v3.578c0,0.838-0.238,1.666-0.709,2.482
				c-0.217,0.366-0.57,0.688-1.063,0.967c-0.238,0.13-0.625,0.225-1.164,0.29c-0.688,0.064-1.094,0.117-1.223,0.161
				c-0.408,0.107-0.666,0.161-0.773,0.161c0.127,0-0.162-0.054-0.871-0.161c-0.299-0.044-0.742-0.097-1.32-0.161
				c-0.816-0.107-1.473-0.537-1.965-1.288c-0.475-0.688-0.711-1.463-0.711-2.323c0-0.149,0-0.301,0-0.45
				c0-0.021-0.027-0.068-0.08-0.144c-0.055-0.076-0.082-0.156-0.082-0.243v-3.128c0-0.085-0.063-0.234-0.191-0.449
				c-0.131-0.215-0.195-0.365-0.195-0.452c0-0.063,0.064-0.219,0.195-0.468c0.129-0.247,0.191-0.414,0.191-0.499V11.09
				c0.021-0.065,0.074-0.172,0.162-0.323c-0.023-1.503,0.43-2.664,1.354-3.48c0.857-0.774,2.051-1.161,3.578-1.161
				c1.031,0,1.943,0.226,2.738,0.677c0.904,0.494,1.494,1.203,1.775,2.128c0.234,0.773,0.354,1.225,0.354,1.354v3.192
				c0,0.063,0.078,0.269,0.244,0.612C88.762,14.431,88.844,14.636,88.844,14.7z M86.07,17.601c0-1.117-0.045-1.825-0.129-2.128
				c-0.021-0.063-0.088-0.193-0.193-0.386c-0.107-0.193-0.16-0.334-0.16-0.42s0.053-0.229,0.16-0.436
				c0.105-0.203,0.172-0.326,0.193-0.371c0.084-0.278,0.129-0.935,0.129-1.965c0-1.119-0.107-1.945-0.322-2.482
				c-0.385-0.967-1.172-1.451-2.354-1.451c-0.365,0-0.785,0.108-1.256,0.321c-0.561,0.259-0.871,0.539-0.936,0.84
				c-0.021,0.064-0.082,0.194-0.176,0.386c-0.098,0.194-0.146,0.335-0.146,0.42v3.9c0,0.087,0.064,0.226,0.193,0.419
				c0.129,0.192,0.193,0.333,0.193,0.419c0,0.107-0.064,0.258-0.193,0.452c-0.129,0.191-0.193,0.323-0.193,0.386v4.288
				c0,0.407,0.365,0.892,1.094,1.449c0.152,0.108,0.441,0.239,0.873,0.388c0.041,0.021,0.234,0.032,0.58,0.032
				C85.189,21.663,86.07,20.308,86.07,17.601z M85.49,17.537c0,1.205-0.066,1.998-0.195,2.386c-0.277,0.837-0.912,1.256-1.9,1.256
				c-0.99,0-1.611-0.45-1.869-1.354c-0.107-0.364-0.162-1.072-0.162-2.127c0-1.138,0.045-1.912,0.129-2.319
				c0-0.044,0.059-0.15,0.178-0.324c0.119-0.172,0.178-0.3,0.178-0.386c0-0.064-0.074-0.229-0.227-0.5
				c-0.15-0.267-0.225-0.467-0.225-0.596c-0.021-0.408-0.033-0.966-0.033-1.676c0-1.246,0.088-2.064,0.258-2.449
				c0.301-0.688,1.021-1.033,2.16-1.033c0.861,0,1.396,0.517,1.613,1.547c0.064,0.302,0.096,0.958,0.096,1.968
				c0,1.268-0.066,2.025-0.195,2.271c-0.129,0.249-0.189,0.415-0.189,0.501c0,0.087,0.057,0.226,0.176,0.42
				c0.117,0.191,0.178,0.344,0.178,0.451C85.479,15.957,85.49,16.613,85.49,17.537z M85.006,17.537c0-0.773-0.021-1.257-0.064-1.451
				c-0.107-0.493-0.408-0.978-0.9-1.449c0.643-0.388,0.965-1.268,0.965-2.645c0-1.997-0.504-2.997-1.514-2.997
				c-0.752,0-1.227,0.365-1.418,1.095c-0.088,0.302-0.129,0.903-0.129,1.807c0,0.794,0.02,1.311,0.064,1.547
				c0.084,0.494,0.354,0.914,0.807,1.257c-0.432,0.302-0.701,0.764-0.807,1.386c-0.045,0.237-0.064,0.741-0.064,1.516
				c0,0.924,0.02,1.493,0.064,1.708c0.172,0.86,0.666,1.29,1.482,1.29C84.502,20.599,85.006,19.579,85.006,17.537z"/>
			<path fill="#FFFFFF" d="M105.699,14.893c-0.816,0.858-1.225,2.203-1.225,4.029c0,1.977,0.408,3.547,1.225,4.705
				c-0.105,0.173-0.361,0.366-0.771,0.58c-0.41,0.216-0.721,0.323-0.936,0.323c-0.129,0-0.393-0.059-0.789-0.177
				c-0.398-0.12-0.66-0.179-0.789-0.179c-0.064,0-0.221,0.059-0.469,0.179c-0.248,0.118-0.414,0.177-0.498,0.177h-0.613
				c-0.432,0-0.945-0.269-1.549-0.807c0.775-0.73,1.162-1.525,1.162-2.385c0-0.063-0.023-0.145-0.064-0.242
				c-0.045-0.096-0.055-0.176-0.033-0.24c0.045-0.711-0.408-1.656-1.354-2.838L96.9,15.344c-0.107,0-0.203,0.054-0.289,0.16
				c-0.26,0.859-0.387,1.924-0.387,3.192c0,2.084,0.416,3.76,1.256,5.027c-0.148,0.193-0.434,0.377-0.855,0.549
				c-0.416,0.173-0.766,0.258-1.045,0.258c-0.107,0-0.34-0.059-0.693-0.177c-0.354-0.12-0.598-0.179-0.727-0.179
				s-0.385,0.059-0.771,0.179c-0.389,0.118-0.646,0.177-0.775,0.177c-0.213,0-0.533-0.097-0.951-0.29
				c-0.418-0.194-0.693-0.366-0.822-0.517c0.838-1.18,1.26-2.782,1.26-4.802c0-1.697-0.422-3.04-1.26-4.029
				c0.838-0.775,1.26-2.118,1.26-4.029c0-2.106-0.422-3.6-1.26-4.481c0.367-0.559,0.99-0.837,1.871-0.837
				c0.127,0,0.375,0.048,0.742,0.145c0.365,0.096,0.611,0.146,0.74,0.146s0.375-0.05,0.74-0.146
				c0.365-0.097,0.615-0.145,0.744-0.145c0.492,0,1.082,0.203,1.77,0.611c-0.043,0.043-0.16,0.248-0.354,0.612
				c-0.063,0.15-0.096,0.42-0.096,0.807c0,0.774,0.354,1.665,1.063,2.676c0.174,0.257,0.797,1.021,1.871,2.288
				c0.234-0.194,0.375-0.461,0.418-0.807v-0.998c0-1.461-0.344-2.815-1.031-4.062c-0.088-0.15-0.129-0.322-0.129-0.517
				c0.451-0.408,1.064-0.611,1.836-0.611c0.26,0,0.719,0.096,1.389,0.29c0.129,0,0.365-0.05,0.707-0.146
				c0.344-0.097,0.582-0.145,0.709-0.145c0.668,0,1.258,0.203,1.773,0.611c-0.215,0.451-0.494,1.161-0.84,2.127
				c-0.189,0.861-0.289,1.742-0.289,2.644C104.475,12.711,104.883,14.034,105.699,14.893z M104.863,23.533
				c-0.473-1.246-0.754-2.211-0.838-2.896c-0.025-0.171-0.033-0.762-0.033-1.769c0-1.33,0.064-2.199,0.193-2.607l0.578-1.383
				c0-0.064-0.117-0.446-0.354-1.144c-0.236-0.696-0.377-1.109-0.418-1.239c0-0.365-0.016-0.911-0.049-1.64
				c-0.031-0.729-0.049-1.039-0.049-0.933c0-0.366,0.322-1.556,0.969-3.573c-0.346-0.214-0.635-0.321-0.871-0.321
				c-0.256,0-0.57,0.113-0.936,0.34c-0.365,0.224-0.566,0.338-0.611,0.338c-0.064,0-0.322-0.114-0.773-0.338
				c-0.453-0.227-0.719-0.34-0.807-0.34c-0.213,0.065-0.516,0.205-0.9,0.42c0.643,1.289,0.965,2.697,0.965,4.221
				c0,0.453-0.053,1.032-0.16,1.742c-0.15,0.882-0.334,1.375-0.547,1.482c-0.818-1.009-1.635-2.031-2.453-3.062
				c-0.965-1.354-1.449-2.504-1.449-3.45c0-0.107,0.027-0.29,0.08-0.548c0.055-0.258,0.084-0.451,0.084-0.579
				c-0.434-0.151-0.701-0.227-0.807-0.227c-0.064,0-0.307,0.113-0.727,0.34c-0.418,0.224-0.672,0.338-0.758,0.338
				c-0.064,0-0.307-0.114-0.725-0.338c-0.42-0.227-0.674-0.34-0.758-0.34c-0.174,0-0.475,0.075-0.904,0.227v0.384
				c0,0.065,0.07,0.243,0.209,0.532c0.141,0.29,0.221,0.467,0.244,0.53c0.129,0.451,0.27,1.128,0.418,2.027v1.191
				c0,1.029-0.107,1.964-0.322,2.8c-0.023,0.106-0.119,0.312-0.291,0.612c-0.17,0.299-0.258,0.47-0.258,0.514
				c0,0.021,0.119,0.268,0.357,0.739c0.256,0.965,0.406,1.556,0.449,1.771c0.043,0.213,0.064,0.686,0.064,1.415
				c0,2.146-0.322,3.723-0.967,4.73c0.43,0.3,0.73,0.45,0.902,0.45c0.344,0,0.711-0.103,1.096-0.309
				c0.236-0.224,0.398-0.336,0.484-0.336s0.328,0.107,0.725,0.321c0.398,0.216,0.639,0.323,0.727,0.323
				c0.342,0,0.666-0.106,0.967-0.322v-0.321c-0.645-1.308-0.967-2.839-0.967-4.599c0-1.908,0.26-3.462,0.781-4.663
				c0.041-0.042,0.117-0.063,0.227-0.063c0.684,0.883,1.723,2.208,3.115,3.976c0.775,0.983,1.162,2.083,1.162,3.3
				c0,0.514-0.113,1.06-0.338,1.636s-0.338,0.832-0.338,0.77c0,0.191,0.201,0.288,0.611,0.288c0.088,0,0.354-0.107,0.807-0.323
				c0.451-0.214,0.709-0.321,0.773-0.321c0.924,0.43,1.418,0.645,1.482,0.645C104.271,23.951,104.582,23.811,104.863,23.533z
				 M104.283,14.893c0,0.021-0.088,0.187-0.258,0.499c-0.174,0.312-0.271,0.531-0.289,0.66c-0.217,1.033-0.322,1.978-0.322,2.839
				c0,0.987,0.084,1.729,0.256,2.223c-0.043,0.408,0.148,1.085,0.58,2.03v0.354h-0.678c-0.086,0-0.275-0.113-0.564-0.338
				c-0.287-0.226-0.477-0.339-0.563-0.339c-0.322,0-0.709,0.215-1.16,0.645h-0.451c0.107-0.106,0.191-0.215,0.258-0.322
				c0.063-0.191,0.15-0.482,0.258-0.87c0.041-0.084,0.064-0.429,0.064-1.031c0-0.967-0.227-1.858-0.678-2.675
				c-0.301-0.558-0.914-1.387-1.836-2.482c-1.033-1.205-1.721-2.063-2.064-2.58h-0.549l-0.352,0.355
				c-0.215,0.603-0.398,1.268-0.551,1.998c-0.086,0.409-0.129,1.366-0.129,2.869c0,1.376,0.043,2.269,0.129,2.677
				c0.152,0.472,0.367,1.158,0.645,2.062H95.32c-0.064,0.022-0.246-0.081-0.547-0.306c-0.301-0.226-0.494-0.339-0.58-0.339
				c-0.193,0-0.58,0.225-1.16,0.677l-0.742-0.129c0.58-1.03,0.871-2.46,0.871-4.287c0-1.225-0.043-2.041-0.129-2.448
				c-0.021-0.13-0.139-0.451-0.355-0.968c-0.193-0.451-0.289-0.71-0.289-0.773c0,0.086,0.117-0.172,0.354-0.775
				c0.279-0.708,0.42-1.696,0.42-2.965c0-1.009-0.043-1.837-0.129-2.481c-0.086-0.258-0.184-0.645-0.291-1.159
				c-0.236-0.238-0.354-0.473-0.354-0.71l0.129-0.291c0.193,0.022,0.494,0.097,0.902,0.227c0.535,0.366,0.795,0.548,0.773,0.548
				c0.086,0,0.23-0.088,0.436-0.257C94.834,6.857,94.955,6.757,95,6.738c0.172-0.043,0.439-0.119,0.805-0.227
				c0,0.429,0.055,1.086,0.162,1.966c0.148,0.624,0.365,1.162,0.645,1.611c0.623,0.797,1.256,1.592,1.9,2.388
				c1.031,1.269,1.654,1.9,1.871,1.9c0.193,0,0.332-0.054,0.418-0.16c0-0.193,0.096-0.517,0.291-0.968
				c0-0.15,0.01-0.397,0.033-0.741c0.063-0.194,0.137-0.419,0.225-0.677c0.041-0.15,0.064-0.549,0.064-1.194V9.703
				c-0.172-0.923-0.27-1.427-0.289-1.516c-0.152-0.578-0.324-1.064-0.518-1.449l0.064-0.227c0.172,0,0.441,0.044,0.807,0.129
				c0.064,0.022,0.219,0.135,0.467,0.34c0.248,0.203,0.414,0.306,0.5,0.306c0.086-0.043,0.322-0.227,0.709-0.548
				c0.234-0.043,0.568-0.119,0.998-0.227c0.064,0.064,0.098,0.14,0.098,0.227c0,0.043-0.01,0.086-0.033,0.128
				c-0.256,0.408-0.416,0.786-0.48,1.129c-0.217,1.289-0.322,2.299-0.322,3.029c0,0.968,0.084,1.645,0.256,2.03
				c-0.023,0.173,0,0.398,0.066,0.678C104.076,14.441,104.26,14.829,104.283,14.893z"/>
			<path fill="#FFFFFF" d="M129.611,12.615l-0.928,1.395v4.41c0,0.772-0.246,1.689-0.734,2.745
				c-0.543,1.136-1.109,1.871-1.703,2.205c-1.393,0.774-3.133,1.161-5.221,1.161c-0.697,0-1.355-0.04-1.973-0.123
				c-0.104-0.027-0.434-0.129-0.986-0.307c-0.555-0.178-0.896-0.268-1.025-0.268s-0.439,0.078-0.928,0.233
				c-0.49,0.153-0.813,0.23-0.967,0.23c-0.363,0-0.809-0.095-1.336-0.29c-0.529-0.192-0.91-0.417-1.143-0.676
				c1.006-1.289,1.51-3.223,1.51-5.803c0-1.907-0.504-3.506-1.51-4.795c1.006-1.033,1.51-2.618,1.51-4.761
				c0-2.576-0.504-4.395-1.51-5.452c0.363-0.672,1.176-1.007,2.438-1.007c0.545,0,0.98,0.053,1.316,0.155l0.619,0.312
				c0.104,0,0.398-0.091,0.889-0.272c0.594-0.231,0.928-0.36,1.006-0.386c0.672-0.103,1.355-0.156,2.051-0.156
				c0.979,0,2.115,0.169,3.402,0.503c0.104,0.077,0.26,0.18,0.465,0.312c0.9,0.051,1.791,0.772,2.67,2.164
				c0.771,1.239,1.16,2.334,1.16,3.289v4.062C128.684,11.625,128.992,11.998,129.611,12.615z M128.451,12.734
				c0-0.104-0.07-0.277-0.211-0.524c-0.145-0.244-0.221-0.417-0.234-0.522c-0.014-0.103-0.018-0.397-0.018-0.89V7.549
				c0-0.953-0.344-1.908-1.027-2.863c-0.684-0.953-1.463-1.637-2.34-2.05c-1.109-0.516-2.348-0.773-3.713-0.773
				c-0.695,0-1.74,0.207-3.131,0.619c-0.699,0.207-0.957,0.311-0.775,0.311c-0.131,0-0.453-0.117-0.967-0.349
				c-0.518-0.231-0.826-0.348-0.93-0.348c-0.463,0-0.889,0.128-1.275,0.386c0.695,2.476,1.043,4.32,1.043,5.531
				c0,0.929-0.09,1.806-0.271,2.631c-0.023,0.153-0.158,0.517-0.404,1.083c-0.244,0.567-0.367,0.888-0.367,0.967
				c0,0.131,0.051,0.284,0.154,0.464c0.102,0.182,0.154,0.285,0.154,0.31c0.49,1.522,0.734,2.889,0.734,4.1
				c0,1.987-0.387,3.829-1.158,5.532c0.051,0.103,0.258,0.22,0.617,0.347c0.361,0.132,0.617,0.195,0.773,0.195
				c0.129,0,0.457-0.116,0.986-0.35c0.529-0.23,0.834-0.348,0.91-0.348c0.18,0,0.695,0.155,1.547,0.465s1.365,0.464,1.547,0.464
				h1.975c1.416,0,2.693-0.451,3.828-1.354c1.236-0.98,1.869-2.152,1.896-3.521c0.129-0.206,0.193-0.36,0.193-0.464v-3.83
				c0-0.618,0.09-1.107,0.27-1.469C128.387,13.003,128.451,12.837,128.451,12.734z M127.873,12.734c0,0.104-0.078,0.258-0.234,0.463
				c-0.156,0.207-0.232,0.36-0.232,0.465v4.409c0-0.232-0.129,0.451-0.387,2.05c-0.18,1.135-1.018,1.986-2.514,2.554
				c-1.082,0.411-2.283,0.617-3.598,0.617c-0.746,0-1.521-0.09-2.318-0.271c-0.133-0.025-0.408-0.142-0.834-0.347
				c-0.426-0.206-0.678-0.31-0.754-0.31c-0.439,0-0.889,0.219-1.352,0.656h-1.24c0.176-0.465,0.408-1.431,0.707-2.9
				c0.076-0.207,0.162-0.516,0.26-0.929c0.025-0.256,0.039-0.851,0.039-1.778c0-1.084-0.125-2.167-0.373-3.25
				c-0.023-0.051-0.148-0.296-0.371-0.734c-0.176-0.36-0.262-0.592-0.262-0.695c0-0.078,0.1-0.323,0.297-0.736l0.336-0.658
				c0.051-0.359,0.174-0.85,0.373-1.469c0-0.052,0-0.349,0-0.891c0-0.541,0-1.354,0-2.436c-0.199-1.031-0.535-2.283-1.006-3.752
				h1.469l1.047,0.695l0.852-0.426c1.002-0.36,1.686-0.566,2.047-0.618h1.201c1.184,0,2.307,0.231,3.363,0.695
				c1.289,0.569,2.076,1.34,2.361,2.322c0.074,0.128,0.166,0.283,0.27,0.463c0.023,0.103,0.098,0.348,0.215,0.735
				c0.115,0.387,0.172,0.646,0.172,0.774v4.41c0,0.076,0.076,0.218,0.232,0.423C127.795,12.476,127.873,12.63,127.873,12.734z
				 M124.43,16.446c0-1.496-0.016-2.423-0.041-2.784c-0.023-0.104-0.102-0.265-0.23-0.484c-0.129-0.218-0.193-0.367-0.193-0.443
				c0-0.027,0.143-0.323,0.424-0.89c0.025-0.285,0.041-1.072,0.041-2.36c0-1.187-0.041-1.986-0.119-2.398
				c-0.203-1.03-0.721-1.754-1.545-2.166c-0.363-0.182-0.711-0.271-1.047-0.271c-1.725,0-2.77,0.464-3.129,1.393
				c-0.26,0.644-0.389,1.136-0.389,1.469c0,0.078,0.039,0.168,0.115,0.271c0.078,0.104,0.115,0.192,0.115,0.271v3.636
				c0,0.26,0.158,0.607,0.465,1.047c-0.285,0.463-0.441,1.08-0.465,1.856c0.025-1.11,0.039-0.439,0.039,2.011
				c0,1.986,0.051,3.132,0.154,3.442c0.307,0.93,1.191,1.393,2.652,1.393c0.896,0,1.535-0.129,1.92-0.387
				c0.668-0.465,1.064-1.174,1.191-2.128C124.414,18.714,124.43,17.89,124.43,16.446z M123.965,14.59
				c0-0.723-0.02-0.387-0.059,1.005s-0.059,2.476-0.059,3.25c-0.361,1.418-1.211,2.128-2.553,2.128c-1.236,0-1.998-0.491-2.283-1.47
				c-0.076-0.285-0.115-1.253-0.115-2.902c0-1.47,0.012-2.334,0.039-2.592c0-0.129,0.09-0.348,0.271-0.658
				c0.18-0.309,0.271-0.514,0.271-0.617c0-0.078-0.072-0.214-0.213-0.408c-0.143-0.192-0.213-0.315-0.213-0.366
				c-0.104-0.517-0.156-1.418-0.156-2.708c0-1.521,0.053-2.424,0.156-2.707c0.281-0.825,1.029-1.238,2.242-1.238
				s1.998,0.451,2.359,1.354c0.207,0.518,0.311,1.433,0.311,2.745V9.6c-0.027,0.181-0.041,0.348-0.041,0.502v0.93
				c0,0.18-0.09,0.482-0.27,0.907c-0.18,0.426-0.271,0.691-0.271,0.795c0,0.128,0.1,0.438,0.291,0.928
				C123.867,14.151,123.965,14.46,123.965,14.59z M123.152,18.845v-4.953c0-0.078-0.141-0.283-0.426-0.618
				c-0.283-0.335-0.453-0.54-0.504-0.618c0.514-0.18,0.826-0.646,0.93-1.393V9.484c0-1.006-0.039-1.688-0.119-2.05
				c-0.207-1.031-0.754-1.548-1.641-1.548s-1.447,0.386-1.682,1.16c-0.104,0.335-0.156,1.071-0.156,2.205
				c0,1.135,0.014,1.754,0.041,1.856c0.076,0.748,0.387,1.251,0.922,1.507c0.08,0.028,0.119,0.092,0.119,0.195
				c-0.516,0.104-0.838,0.619-0.967,1.547c-0.051,0.361-0.076,1.109-0.076,2.244c0,0.052-0.014,0.22-0.039,0.502v0.658
				c0,1.677,0.582,2.515,1.74,2.515c0.412,0,0.826-0.136,1.238-0.407C122.943,19.597,123.152,19.256,123.152,18.845z"/>
			<path fill="#FFFFFF" d="M146.857,23.533c-0.174,0.191-0.451,0.407-0.84,0.643c-0.387,0.237-0.699,0.355-0.934,0.355
				c-0.279,0-0.762-0.032-1.451-0.097c-0.514-0.172-0.721-0.259-0.611-0.259c-0.129,0-0.398,0.059-0.807,0.179
				c-0.408,0.118-0.666,0.177-0.773,0.177c-0.258,0-0.604-0.085-1.031-0.258c-0.432-0.172-0.645-0.366-0.645-0.58
				c0,0.301,0.107,0.097,0.322-0.612c0.215-0.71,0.322-1.15,0.322-1.322c0-0.945-0.207-1.74-0.613-2.386
				c-0.494-0.772-1.184-1.161-2.063-1.161c-0.924,0-1.623,0.378-2.096,1.129c-0.385,0.623-0.58,1.418-0.58,2.386
				c0,0.58,0.227,1.215,0.676,1.901c-0.43,0.602-1.01,0.903-1.738,0.903c-0.152,0-0.414-0.059-0.791-0.177
				c-0.377-0.12-0.639-0.179-0.791-0.179c-0.105,0-0.354,0.059-0.738,0.179c-0.389,0.118-0.656,0.177-0.807,0.177
				c-1.055,0-1.805-0.333-2.258-0.998c2.514-2.473,3.654-5.093,3.418-7.866c0-0.043-0.074-0.226-0.227-0.548v-0.354
				c0.945-0.388,1.73-1.354,2.354-2.902c0.537-1.332,0.807-2.599,0.807-3.803c0-0.646-0.225-1.202-0.678-1.677
				c0.129-0.623,0.818-0.935,2.064-0.935c0.084,0,0.309,0.081,0.676,0.242c0.363,0.16,0.592,0.241,0.676,0.241
				c0.064,0,0.27-0.059,0.613-0.177c0.344-0.117,0.58-0.188,0.709-0.209l0.742-0.098c0.129,0,0.438,0.106,0.936,0.322
				c0.148,0.107,0.266,0.236,0.354,0.387c0.021,0.043,0.064,0.119,0.129,0.226c-0.365,0.323-0.58,0.665-0.646,1.031
				c-0.018,0.022-0.029,0.28-0.029,0.773c0,1.226,0.246,2.449,0.74,3.675c0.623,1.526,1.43,2.537,2.42,3.031
				c-0.24,0.644-0.357,1.159-0.357,1.547c0,1.117,0.365,2.396,1.096,3.836S145.953,22.802,146.857,23.533z M145.793,23.404
				c-2.041-2.23-3.061-4.612-3.061-7.144c0-0.343,0.02-0.676,0.063-0.998c-0.893-0.793-1.598-1.888-2.119-3.281
				c-0.5-1.288-0.75-2.563-0.75-3.829c0-0.816,0.129-1.416,0.387-1.803c-0.322-0.214-0.59-0.321-0.805-0.321
				c-0.365,0-0.754,0.107-1.16,0.323l-0.646,0.354c-0.148,0-0.279-0.087-0.385-0.258c-0.475-0.279-0.904-0.42-1.289-0.42
				c-0.174,0-0.463,0.075-0.871,0.227v0.321c0.258,0.301,0.387,0.858,0.387,1.672c0,0.859-0.197,1.91-0.596,3.154
				c-0.398,1.242-0.855,2.177-1.369,2.799c-0.217,0.172-0.486,0.439-0.807,0.804c-0.086,0.215-0.119,0.506-0.098,0.87
				c0.021,0.493,0.021,0.803,0,0.933c-0.107,0.902-0.297,1.728-0.576,2.478c-0.531,1.438-1.34,2.842-2.422,4.216
				c0.258,0.3,0.623,0.45,1.096,0.45c0.172,0,0.49-0.107,0.951-0.323c0.461-0.214,0.703-0.321,0.725-0.321
				c0.926,0.43,1.432,0.645,1.516,0.645c0.279,0,0.58-0.106,0.904-0.322c-0.26-0.746-0.389-1.378-0.389-1.89
				c0-2.738,1.086-4.105,3.256-4.105c2.105,0,3.16,1.356,3.16,4.073c0,0.043-0.086,0.716-0.258,2.019
				c0.43,0.15,0.697,0.226,0.805,0.226c0.324,0,0.613-0.072,0.871-0.217c0.15-0.144,0.365-0.32,0.645-0.524
				c0.686,0.494,1.234,0.741,1.643,0.741c0.193,0,0.438-0.054,0.727-0.16C145.615,23.683,145.771,23.553,145.793,23.404z
				 M145.117,23.466h-1.002c-0.02,0-0.182-0.106-0.482-0.322c-0.299-0.214-0.527-0.322-0.676-0.322
				c-0.152,0-0.354,0.113-0.613,0.339c-0.258,0.225-0.41,0.328-0.451,0.306h-0.773c0-0.065,0.039-0.166,0.113-0.306
				c0.074-0.142,0.111-0.241,0.111-0.307c0.023-0.15,0.033-0.558,0.033-1.225c0-0.708-0.01-1.128-0.033-1.257
				c-0.234-1.354-0.945-2.354-2.127-2.997c-0.215-0.021-0.504-0.065-0.869-0.129c-0.258-0.13-0.463-0.194-0.613-0.194
				c-0.387,0-0.785,0.075-1.193,0.226c-1.697,0.624-2.545,2.106-2.545,4.448c0,0.667,0.129,1.247,0.389,1.74h-0.807
				c-0.088,0.022-0.281-0.081-0.582-0.306c-0.301-0.226-0.482-0.339-0.549-0.339c-0.322,0-0.707,0.215-1.16,0.645h-0.934
				c1.891-2.686,2.836-5.016,2.836-6.994c0-0.344-0.033-0.679-0.098-0.999c0.859-0.838,1.57-1.987,2.129-3.45
				c0.537-1.395,0.807-2.719,0.807-3.964c0-0.58-0.066-1.096-0.193-1.548c0.258,0,0.631,0.076,1.125,0.227
				c0.43,0.302,0.678,0.451,0.742,0.451c0.129,0,0.365-0.149,0.711-0.451c0.258-0.043,0.631-0.119,1.129-0.227
				c0.043,0.194-0.012,0.536-0.162,1.032c-0.021,0.086-0.012,0.236,0.033,0.451l0.129,0.58c0.148,2.772,1.072,5.04,2.771,6.802
				c-0.064,0.301-0.098,0.612-0.098,0.935c0,1.14,0.301,2.396,0.904,3.771C143.652,21.329,144.322,22.457,145.117,23.466z
				 M139.572,15.441c0-1.311-0.463-2.761-1.385-4.352c-0.109-0.172-0.26-0.258-0.453-0.258c-0.303,0-0.688,0.623-1.16,1.869
				c-0.365,0.988-0.58,1.656-0.645,1.997v1.291c0.258,0.216,0.496,0.322,0.709,0.322c0.107,0,0.289-0.048,0.549-0.146
				c0.258-0.097,0.441-0.145,0.547-0.145c0.107,0,0.293,0.048,0.564,0.145c0.27,0.098,0.445,0.146,0.531,0.146
				C139.324,16.311,139.572,16.021,139.572,15.441z M139.184,15.7c-0.148,0.063-0.398,0.052-0.74-0.033
				c-0.408-0.086-0.645-0.13-0.709-0.13c-0.045,0-0.441,0.098-1.193,0.291c-0.107-0.086-0.16-0.235-0.16-0.451
				c0-0.603,0.16-1.3,0.482-2.096c0.172-0.43,0.441-1.086,0.807-1.966C138.465,12.735,138.971,14.194,139.184,15.7z M138.508,14.829
				c-0.172-0.517-0.441-1.15-0.807-1.903c-0.43,0.968-0.635,1.645-0.613,2.031c0.26-0.128,0.465-0.192,0.613-0.192
				c0.088,0,0.227,0.022,0.42,0.064S138.443,14.871,138.508,14.829z"/>
			<path fill="#FFFFFF" d="M161.977,6.449c-0.799,0.837-1.506,1.923-2.129,3.254c-0.689,1.439-1.033,2.676-1.033,3.706
				c0,0.559,0.119,1.022,0.355,1.388c-0.021,0.043-0.064,0.15-0.129,0.323c-1.225,0.492-2.191,1.997-2.902,4.512
				c-0.277,0.967-0.418,1.74-0.418,2.32c0,0.194,0.068,0.532,0.209,1.016s0.264,0.769,0.371,0.855
				c-0.475,0.473-1.041,0.708-1.709,0.708c-0.172,0-0.43-0.043-0.773-0.129c-0.342-0.084-0.602-0.129-0.771-0.129
				c0.105,0-0.098,0.086-0.613,0.258h-0.84c-0.426,0-0.715-0.026-0.854-0.08s-0.393-0.221-0.758-0.501
				c0.322-0.966,0.482-1.61,0.482-1.934c0-1.268-0.492-2.934-1.48-4.996c-0.43-0.902-1.086-1.567-1.967-1.999
				c0.301-0.837,0.453-1.343,0.453-1.515c0,0.13-0.055-0.075-0.164-0.611c-0.516-2.58-1.547-4.687-3.092-6.319
				c0.148-0.3,0.525-0.557,1.127-0.773c0.516-0.172,0.977-0.259,1.385-0.259c0.109,0,0.361,0.065,0.76,0.194
				c0.396,0.129,0.65,0.193,0.756,0.193c0.195,0,0.479-0.064,0.855-0.193c0.375-0.129,0.648-0.194,0.82-0.194
				c0.279,0,0.627,0.087,1.049,0.259c0.418,0.173,0.627,0.376,0.627,0.612c0,0.045-0.111,0.296-0.338,0.758
				c-0.225,0.463-0.361,0.747-0.404,0.854v0.646c0,0.687,0.1,1.287,0.293,1.805c0.064,0.172,0.316,0.558,0.758,1.159
				c0.438,0.601,0.658,0.924,0.658,0.966c0,0.173-0.068,0.451-0.209,0.84c-0.139,0.386-0.209,0.665-0.209,0.837
				c0,0.409,0.092,0.92,0.273,1.531c0.182,0.612,0.402,1.06,0.662,1.338c0.213-0.063,0.43-0.504,0.645-1.322
				c0.172-0.687,0.256-1.213,0.256-1.578c0-0.13-0.057-0.408-0.174-0.84c-0.119-0.429-0.18-0.696-0.18-0.806
				c0-0.321,0.193-0.697,0.58-1.128c0.43-0.516,0.689-0.891,0.773-1.127c0.236-0.646,0.357-1.226,0.357-1.741
				c0-0.407-0.076-0.789-0.229-1.145c-0.15-0.354-0.322-0.757-0.516-1.208c0.582-0.472,1.205-0.711,1.869-0.711
				c0.107,0,0.361,0.065,0.758,0.194s0.65,0.193,0.76,0.193c0.127,0,0.381-0.064,0.758-0.193c0.373-0.129,0.615-0.194,0.723-0.194
				C160.299,5.543,161.137,5.846,161.977,6.449z M160.813,6.576c0-0.149-0.031-0.236-0.096-0.258
				c-0.559-0.128-0.957-0.192-1.193-0.192c-0.342,0-0.643,0.075-0.9,0.225c-0.518,0.301-0.742,0.452-0.678,0.452
				c-0.73-0.452-1.258-0.677-1.578-0.677c-0.301,0-0.613,0.106-0.936,0.323c0.322,0.73,0.482,1.438,0.482,2.125
				c0,0.732-0.209,1.655-0.625,2.774c-0.242,0.343-0.52,0.763-0.824,1.255c-0.064,0.345-0.076,0.774-0.033,1.29
				c0.084,0.709,0.129,1.108,0.129,1.192c-0.045,0.54-0.463,1.656-1.256,3.354c-0.064,0.107-0.131,0.161-0.193,0.161
				c-1.035-1.44-1.549-2.999-1.549-4.674c0-0.452,0.031-0.891,0.096-1.323c-0.922-1.267-1.385-2.599-1.385-3.996
				c0-0.795,0.141-1.439,0.42-1.934c0.02-0.065,0.029-0.129,0.029-0.194c0-0.106-0.029-0.193-0.096-0.258
				c-0.063,0-0.178-0.016-0.338-0.048s-0.285-0.048-0.371-0.048c-0.428,0-0.879,0.141-1.354,0.419
				c-0.107,0.172-0.227,0.258-0.355,0.258c-0.02,0-0.197-0.114-0.529-0.339c-0.334-0.227-0.65-0.338-0.953-0.338
				c-0.107,0-0.191,0.01-0.256,0.03c-0.129,0.022-0.334,0.065-0.613,0.13c-0.193,0.021-0.344-0.031-0.451-0.16V6.74
				c1.762,2.366,2.643,4.768,2.643,7.199c0,0.301-0.021,0.593-0.064,0.873c0.754,0.561,1.385,1.453,1.902,2.68
				c0.172,0.41,0.484,1.367,0.936,2.875c0.084,0.279,0.129,0.839,0.129,1.679c0,0.216-0.016,0.531-0.049,0.953
				c-0.031,0.419-0.051,0.735-0.051,0.951c0.086,0,0.201,0.022,0.342,0.064c0.139,0.044,0.24,0.065,0.305,0.065
				c0.344,0,0.902-0.257,1.676-0.772c0.086,0.15,0.307,0.316,0.66,0.498c0.357,0.184,0.619,0.274,0.791,0.274
				c0.213,0,0.453-0.074,0.711-0.226c-0.088-0.431-0.129-0.901-0.129-1.418c0-2.085,0.566-4.137,1.707-6.156
				c0.428-0.473,0.891-1.054,1.385-1.741c0.064-0.216,0.076-0.624,0.031-1.225c-0.02-0.518-0.02-0.913,0-1.193
				c0.174-0.838,0.637-2.031,1.387-3.578C160.449,7.082,160.813,6.426,160.813,6.576z M160.137,6.866
				c-0.064,0.065-0.43,0.73-1.096,1.999c-0.902,1.72-1.352,3.299-1.352,4.738c0,0.346,0.041,0.655,0.127,0.936
				c-1.654,1.525-2.666,3.598-3.031,6.221c-0.193,1.312-0.16,2.202,0.098,2.676c-0.109,0.107-0.227,0.16-0.354,0.16
				c-0.238,0-0.688-0.288-1.355-0.869c-0.063,0.021-0.301,0.183-0.709,0.483c-0.322,0.257-0.535,0.386-0.646,0.386h-0.289
				l-0.193-0.129c0-0.149,0.039-0.374,0.113-0.677c0.076-0.3,0.113-0.525,0.113-0.676c0-0.838-0.293-2.214-0.881-4.126
				c-0.193-0.516-0.619-1.312-1.271-2.387c-0.238-0.192-0.543-0.548-0.914-1.063c0.023-0.516,0-1.258-0.064-2.226
				c-0.109-0.364-0.305-1.03-0.586-1.998c-0.111-0.408-0.424-1.139-0.947-2.189c-0.238-0.474-0.521-0.937-0.846-1.388
				c0.707-0.021,1.104-0.021,1.191,0c0.086,0.021,0.246,0.135,0.482,0.339s0.398,0.305,0.482,0.305c0.129,0,0.377-0.182,0.742-0.548
				c0.258-0.043,0.623-0.117,1.098-0.226c-0.174,1.269-0.258,1.935-0.258,1.999c0,1.247,0.225,2.278,0.674,3.094
				c0.473,0.604,0.711,1,0.711,1.194c0,0.129-0.031,0.43-0.098,0.902c-0.066,0.387-0.076,0.688-0.031,0.9
				c0.105,0.581,0.332,1.409,0.678,2.483c0.58,1.333,1.041,1.999,1.387,1.999c0.32,0,0.707-0.516,1.16-1.547
				c0.32-0.73,0.535-1.354,0.643-1.871c0.129-0.622,0.193-1.191,0.193-1.707c-0.02-0.088-0.064-0.301-0.129-0.646
				c-0.064-0.301-0.064-0.547,0-0.741c0.324-0.43,0.721-1.225,1.193-2.384c0.15-0.753,0.227-1.482,0.227-2.191
				c0-0.216-0.119-0.698-0.355-1.452c0.408-0.021,0.742,0.011,1,0.098c0.043,0.021,0.184,0.135,0.42,0.339
				c0.234,0.204,0.395,0.305,0.482,0.305l0.869-0.644c0.238,0,0.602-0.043,1.096-0.13L160.137,6.866z"/>
			<path fill="#FFFFFF" d="M169.035,14.893c-0.818,0.751-1.227,2.084-1.227,3.998c0,1.847,0.408,3.427,1.227,4.736
				c-0.064,0.151-0.297,0.339-0.695,0.564c-0.396,0.226-0.691,0.339-0.887,0.339c-0.277,0-0.682-0.059-1.209-0.177
				c-0.525-0.12-0.758-0.179-0.689-0.179c-0.09,0-0.197,0.039-0.324,0.113c-0.131,0.076-0.215,0.124-0.258,0.146
				c-0.539,0.064-0.988,0.097-1.354,0.097c-0.129,0-0.414-0.113-0.855-0.339c-0.439-0.226-0.682-0.381-0.727-0.468
				c0.84-1.116,1.26-2.728,1.26-4.833c0-1.592-0.42-2.924-1.26-3.998c0.84-0.838,1.26-2.158,1.26-3.966
				c0-1.718-0.344-3.136-1.031-4.254c-0.088-0.15-0.131-0.322-0.131-0.517c0.561-0.408,1.203-0.611,1.934-0.611
				c0.131,0,0.377,0.048,0.742,0.145c0.365,0.096,0.611,0.146,0.744,0.146c0.148,0,0.396-0.05,0.738-0.146
				c0.344-0.097,0.59-0.145,0.742-0.145c0.707,0,1.373,0.235,2,0.709c-0.818,1.159-1.227,2.718-1.227,4.673
				C167.809,12.711,168.217,14.034,169.035,14.893z M168.195,23.533c-0.645-1.459-0.967-3.015-0.967-4.665
				c0-1.245,0.16-2.307,0.482-3.187c0.26-0.386,0.389-0.654,0.389-0.804c0-0.043-0.104-0.312-0.309-0.806
				c-0.205-0.493-0.314-0.804-0.338-0.932c-0.148-0.646-0.225-1.353-0.225-2.125c0-0.836,0.107-1.778,0.322-2.831
				c0.021-0.086,0.119-0.316,0.289-0.691c0.172-0.376,0.248-0.584,0.227-0.628v-0.61c-0.086-0.022-0.264-0.065-0.533-0.13
				c-0.27-0.065-0.434-0.097-0.498-0.097c-0.088,0-0.328,0.113-0.727,0.34c-0.396,0.224-0.639,0.338-0.723,0.338
				c-0.064,0-0.309-0.114-0.727-0.338c-0.42-0.227-0.672-0.34-0.758-0.34c-0.109,0-0.475,0.107-1.094,0.321v0.419
				c0.578,1.115,0.869,2.51,0.869,4.183c0,0.965-0.109,1.823-0.322,2.574c-0.023,0.087-0.117,0.323-0.291,0.708
				c-0.172,0.388-0.256,0.621-0.256,0.708c0,0.063,0.117,0.311,0.354,0.74c0.084,0.149,0.193,0.649,0.322,1.497
				c0.129,0.847,0.193,1.411,0.193,1.689c0,0.362-0.059,0.965-0.178,1.802c-0.119,0.836-0.232,1.394-0.338,1.673
				c-0.301,0.793-0.453,1.147-0.453,1.062c0,0.129,0.152,0.254,0.453,0.37c0.299,0.117,0.537,0.177,0.707,0.177
				c0.064,0,0.309-0.107,0.727-0.323c0.418-0.214,0.67-0.321,0.76-0.321c0.084,0,0.34,0.107,0.773,0.321
				c0.428,0.216,0.674,0.323,0.738,0.323C167.41,23.951,167.787,23.811,168.195,23.533z M167.615,14.893
				c0,0.086-0.086,0.274-0.258,0.563c-0.174,0.291-0.27,0.488-0.291,0.596c-0.215,0.925-0.32,1.869-0.32,2.839
				c0,1.331,0.105,2.298,0.32,2.899l0.549,1.548c-0.086,0.106-0.268,0.16-0.549,0.16c-0.234,0-0.516-0.113-0.838-0.338
				c-0.322-0.226-0.537-0.339-0.643-0.339c-0.064,0-0.264,0.113-0.598,0.339c-0.334,0.225-0.531,0.338-0.598,0.338h-0.771
				c-0.109-0.106-0.141-0.224-0.098-0.354c0.215-0.234,0.387-0.654,0.516-1.256c0.215-1.031,0.324-2.053,0.324-3.063
				c0-0.988-0.109-1.912-0.324-2.773c-0.086-0.148-0.182-0.365-0.289-0.644l-0.129-0.193c-0.088-0.107-0.129-0.215-0.129-0.322
				c0-0.064,0.084-0.247,0.258-0.548c0.172-0.302,0.268-0.506,0.289-0.613c0.215-0.923,0.324-1.849,0.324-2.772
				c0-2.02-0.271-3.396-0.807-4.126l0.031-0.226h1c0.064,0,0.23,0.112,0.498,0.339c0.27,0.226,0.438,0.339,0.502,0.339
				c0.063,0,0.244-0.113,0.547-0.339c0.301-0.227,0.492-0.339,0.58-0.339h0.902c-0.238,0.301-0.451,1.001-0.645,2.097
				c-0.152,0.923-0.225,1.675-0.225,2.255c0,0.882,0.105,1.806,0.32,2.772c0.021,0.107,0.117,0.312,0.291,0.613
				C167.529,14.646,167.615,14.829,167.615,14.893z"/>
			<path fill="#FFFFFF" d="M182.895,18.744c0,1.908-0.57,3.35-1.709,4.325c-1.139,0.975-2.676,1.462-4.609,1.462
				c-1.053,0-2.012-0.094-2.867-0.281c-0.174-0.043-0.59-0.204-1.242-0.486c-0.656-0.283-1.039-0.425-1.145-0.425
				c-0.195,0-0.463,0.14-0.807,0.419s-0.525,0.419-0.549,0.419c-0.213-0.945-0.32-1.342-0.32-1.192c0-0.603,0.277-1.213,0.838-1.836
				c-0.088-0.279-0.129-0.602-0.129-0.969c0-0.902,0.225-1.677,0.676-2.319c0.066,0.042,0.141,0.084,0.227,0.127
				c0.234,0.83,0.893,1.586,1.965,2.266c1.076,0.682,2.072,1.024,2.998,1.024c0.559,0,1.061-0.167,1.5-0.496
				c0.441-0.332,0.66-0.763,0.66-1.295c0-0.576-0.236-1.055-0.709-1.438c-0.475-0.384-1-0.575-1.578-0.575
				c-0.281,0-0.775,0.129-1.484,0.388c0-0.303-0.063-0.722-0.193-1.259c-0.129-0.258-0.441-0.559-0.934-0.901l-1.227-0.838
				c-1.096-0.969-1.643-2.172-1.643-3.612c0-1.761,0.521-3.146,1.563-4.158c1.043-1.009,2.443-1.515,4.207-1.515
				c0.645,0,1.461,0.193,2.449,0.582c0.99,0.386,1.516,0.579,1.578,0.579c-0.17,0,0.195-0.13,1.098-0.387
				c0.086,0.215,0.129,0.538,0.129,0.968c0,0.364-0.031,0.624-0.096,0.774c-0.195,0.278-0.377,0.559-0.549,0.837
				c-0.174,0.859-0.27,1.31-0.289,1.354c-0.131,0.366-0.398,0.741-0.807,1.129h-0.354c-0.109-0.646-0.447-1.221-1.016-1.726
				c-0.57-0.504-1.178-0.757-1.824-0.757c-0.514,0-0.955,0.16-1.32,0.483c-0.365,0.322-0.547,0.741-0.547,1.256
				c0,0.432,0.186,0.807,0.563,1.13c0.377,0.321,0.791,0.483,1.242,0.483c0.344,0,0.709-0.086,1.096-0.259h0.355
				c0.021,0.28,0.148,0.666,0.387,1.156c1.201,0.817,1.965,1.353,2.289,1.609c0.902,0.749,1.471,1.435,1.707,2.057
				C182.754,17.598,182.895,18.23,182.895,18.744z M182.314,18.905c0-1.864-1.291-3.503-3.869-4.918
				c-0.131-0.064-0.34-0.267-0.629-0.611c-0.289-0.341-0.498-0.513-0.627-0.513c-0.066,0-0.129,0.016-0.195,0.048
				c-0.063,0.033-0.129,0.049-0.191,0.049c-0.689,0-1.283-0.221-1.789-0.661s-0.758-1.005-0.758-1.692
				c0-0.667,0.225-1.209,0.676-1.628s1.021-0.628,1.709-0.628c0.945,0,1.693,0.279,2.24,0.838c0.549,0.56,0.951,0.924,1.209,1.096
				c0.02-0.365,0.096-0.892,0.225-1.579c0.043-0.087,0.176-0.28,0.404-0.579c0.225-0.303,0.338-0.473,0.338-0.517
				c0-0.107-0.074-0.238-0.225-0.388c-0.15,0.065-0.314,0.098-0.484,0.098c-0.131,0-0.662-0.195-1.596-0.581
				c-0.936-0.387-1.715-0.579-2.338-0.579c-1.482,0-2.721,0.46-3.723,1.385c-0.998,0.924-1.5,2.128-1.5,3.609
				c0,1.419,0.678,2.656,2.031,3.709c0.473,0.258,1.064,0.709,1.771,1.353c0.068,0.172,0.184,0.387,0.355,0.645
				c1.848-0.171,3.01,0.44,3.482,1.838c0.023,0.063,0.031,0.344,0.031,0.838c0,1.569-0.859,2.354-2.578,2.354
				c-1.588,0-3.307-0.861-5.158-2.58L171,20.406c0.021,0.064,0.092,0.198,0.211,0.402c0.117,0.204,0.176,0.34,0.176,0.402
				c0,0.088-0.176,0.328-0.533,0.727c-0.354,0.396-0.531,0.64-0.531,0.725c0,0.108,0.043,0.203,0.131,0.291
				c0.385-0.13,0.662-0.193,0.836-0.193c0.279,0,0.99,0.214,2.129,0.645c1.139,0.43,2.137,0.644,2.996,0.644
				c1.461,0,2.719-0.343,3.771-1.029c1.225-0.77,1.879-1.842,1.967-3.213c0-0.087,0.027-0.236,0.08-0.45
				C182.285,19.14,182.314,18.99,182.314,18.905z M181.83,18.759c0,0.947-0.225,1.828-0.678,2.646
				c-0.494,0.9-1.172,1.459-2.031,1.676c-0.105,0.044-0.234,0.119-0.385,0.226c-1.117,0.214-1.893,0.321-2.322,0.321
				c-0.752,0-1.482-0.129-2.191-0.387l-2.031-0.838c-0.105-0.043-0.504-0.064-1.191-0.064c0.127-0.216,0.408-0.482,0.836-0.806
				c0.023-0.043,0.033-0.128,0.033-0.257c0,0.106-0.096-0.194-0.289-0.904c1.201,0.956,2.148,1.484,2.836,1.589l0.387,0.251h2.645
				c0.191,0,0.52-0.219,0.982-0.655s0.727-0.75,0.791-0.94c0.148-0.489,0.225-0.808,0.225-0.957c0-0.827-0.301-1.577-0.902-2.248
				c-0.604-0.669-1.322-1.004-2.16-1.004c-0.086,0-0.215,0.017-0.387,0.049s-0.301,0.049-0.387,0.049
				c-0.172-0.473-0.754-1.053-1.74-1.741c-0.988-0.688-1.645-1.429-1.967-2.224c-0.086-0.216-0.129-0.665-0.129-1.354
				c0-2.342,1.031-3.815,3.092-4.415c0.066-0.021,0.551-0.033,1.453-0.033s1.387,0.012,1.449,0.033
				c0.559,0.3,1.43,0.643,2.613,1.031c-0.129,0.15-0.281,0.354-0.453,0.611c-0.021,0.216-0.063,0.517-0.127,0.904
				c-0.367-0.301-0.764-0.613-1.193-0.936c-0.109-0.087-0.303-0.172-0.582-0.257c-0.105-0.022-0.338-0.082-0.691-0.18
				c-0.354-0.095-0.607-0.144-0.758-0.144c-0.086,0-0.217,0.037-0.387,0.112c-0.172,0.076-0.293,0.124-0.354,0.145
				c-0.625,0.087-1.125,0.376-1.502,0.871c-0.373,0.494-0.563,1.052-0.563,1.676c0,0.495,0.154,0.977,0.469,1.45
				c0.311,0.474,0.691,0.796,1.143,0.968c0.064,0.044,0.16,0.118,0.289,0.225c0.195,0,0.469,0.022,0.822,0.065
				c0.357,0.044,0.629,0.063,0.824,0.063c0.449,0.603,1.084,1.118,1.902,1.548c1.072,0.559,1.836,1.321,2.287,2.288
				C181.723,17.688,181.83,18.202,181.83,18.759z"/>
		</g>
		<g>
			<path fill="#FFFFFF" d="M203.396,17.76c-0.188,0.168-0.428,0.46-0.721,0.878c-0.021,0.209-0.074,0.857-0.157,1.943
				c-0.021,0.209-0.114,0.554-0.282,1.034c-0.669,1.817-2.424,2.728-5.265,2.728c-2.174,0-3.752-0.533-4.733-1.599
				c-0.146-0.168-0.36-0.58-0.643-1.238s-0.423-1.092-0.423-1.301V16.1c0-0.355-0.24-0.722-0.721-1.098l-0.22-0.219
				c0.627-0.606,0.94-1.046,0.94-1.316V9.956c0-0.543,0.303-1.253,0.908-2.131c0.606-0.877,1.16-1.42,1.662-1.63
				c1.273-0.522,2.382-0.783,3.322-0.783c1.357,0,2.528,0.261,3.511,0.783c0.375,0.21,0.768,0.585,1.175,1.128
				c0.408,0.544,0.632,1.015,0.674,1.411c0,0.606,0.053,1.348,0.157,2.225c0.041,0.377,0.313,0.648,0.814,0.815v0.345
				c-0.501,0.376-0.951,0.564-1.348,0.564c-0.104,0-0.282-0.031-0.533-0.094c-0.25-0.063-0.428-0.095-0.532-0.095
				c-0.084,0-0.199,0.063-0.346,0.188c-0.209,0.146-0.355,0.23-0.438,0.251c-0.167,0.083-0.513,0.125-1.034,0.125
				c-0.795,0-1.338-0.167-1.63-0.502c0.605-0.668,0.909-1.305,0.909-1.911c0-0.94-0.481-1.411-1.442-1.411
				c-0.981,0-1.473,0.662-1.473,1.984c0,0.146,0.01,0.32,0.031,0.527v0.372c0,0.778,0.011,1.209,0.031,1.293
				c0.084,0.609,0.355,1.029,0.815,1.261c-0.188,0.188-0.429,0.515-0.722,0.977c-0.083,0.211-0.125,0.873-0.125,1.986v0.407
				c-0.021,0.23-0.031,0.407-0.031,0.533c0,1.296,0.491,1.943,1.473,1.943c0.418,0,0.764-0.136,1.034-0.407
				c0.272-0.271,0.408-0.616,0.408-1.035c0-0.501-0.304-1.117-0.909-1.849c0.522-0.418,1.003-0.627,1.442-0.627
				c0.375,0,0.794,0.109,1.253,0.329c0.459,0.219,0.711,0.329,0.753,0.329c0.083,0,0.261-0.048,0.532-0.141
				c0.271-0.095,0.449-0.142,0.533-0.142C202.528,16.977,202.978,17.239,203.396,17.76z M202.361,17.884
				c0-0.146-0.031-0.229-0.095-0.249h-0.596c-0.062,0-0.198,0.078-0.406,0.235c-0.21,0.156-0.355,0.235-0.438,0.235
				c0.334,0,0.15-0.157-0.549-0.471c-0.7-0.313-1.155-0.471-1.364-0.471c-0.104,0-0.23,0.074-0.376,0.221
				c0.313,0.793,0.471,1.378,0.471,1.755c0,1.296-0.669,1.942-2.007,1.942c0.021,0-0.251-0.031-0.814-0.093
				c-0.313-0.042-0.616-0.334-0.909-0.878c-0.25-0.48-0.376-0.826-0.376-1.035c0,0.564,0.016,0.314,0.047-0.752
				c0.031-1.065,0.047-1.901,0.047-2.507c0.251-0.606,0.377-0.951,0.377-1.034c0-0.042-0.084-0.23-0.251-0.564
				c-0.084-0.251-0.126-0.972-0.126-2.163c0-1.232,0.032-1.942,0.095-2.132c0.251-0.772,0.908-1.159,1.975-1.159
				c1.295,0,1.943,0.658,1.943,1.975c0,0.46-0.157,0.972-0.471,1.535l0.22,0.22h0.752c0.084,0,0.299-0.135,0.643-0.407
				c0.345-0.271,0.559-0.407,0.643-0.407s0.24,0.073,0.471,0.22c0.229,0.146,0.365,0.219,0.406,0.219h0.69v-0.407
				c-0.293-0.439-0.439-0.992-0.439-1.661V9.863c0-0.92-0.271-1.714-0.814-2.383c-0.48-0.564-0.94-0.898-1.379-1.003
				c-1.504-0.334-2.445-0.501-2.821-0.501c-1.504,0-2.653,0.386-3.447,1.157c-0.502,0.501-0.847,0.897-1.034,1.188
				c-0.46,0.71-0.689,1.315-0.689,1.815v3.034c0,0.168-0.079,0.449-0.235,0.845c-0.157,0.397-0.234,0.647-0.234,0.752
				c0,0.125,0.077,0.396,0.234,0.813c0.156,0.418,0.235,0.679,0.235,0.783v3.629c0,0.084,0.041,0.225,0.125,0.422
				c0.083,0.199,0.126,0.309,0.126,0.329c0.166,0.855,0.688,1.575,1.566,2.159c0.877,0.583,1.766,0.876,2.664,0.876h1.599
				c0.146,0,0.512-0.078,1.097-0.234c0.585-0.155,0.951-0.275,1.098-0.358c0.919-0.478,1.515-1.194,1.786-2.151
				c0.125-0.437,0.198-1.217,0.22-2.339c0-0.104,0.057-0.25,0.172-0.437C202.303,18.073,202.361,17.948,202.361,17.884z
				 M201.703,11.618c-0.084-0.021-0.241-0.11-0.471-0.267c-0.23-0.157-0.375-0.235-0.438-0.235c-0.105,0-0.267,0.1-0.485,0.298
				c-0.22,0.199-0.444,0.403-0.675,0.611h-0.219l-0.156-0.125c0.083-0.188,0.125-0.606,0.125-1.254c0-0.585-0.011-0.909-0.032-0.972
				c-0.083-0.293-0.308-0.575-0.673-0.846c-0.365-0.272-0.705-0.419-1.019-0.439c-0.021,0-0.074-0.026-0.157-0.078
				c-0.084-0.053-0.168-0.078-0.251-0.078c-1.128,0-1.964,0.449-2.507,1.348c-0.042,0.209-0.095,0.491-0.157,0.846l-0.063,0.125
				c-0.063,0.084-0.095,0.178-0.095,0.282c0,0.063,0.021,0.162,0.063,0.298c0.041,0.137,0.063,0.235,0.063,0.299v2.35
				c0,0.084,0.058,0.246,0.172,0.486c0.115,0.24,0.173,0.402,0.173,0.486c0,0.083-0.078,0.317-0.235,0.704
				c-0.156,0.387-0.235,0.632-0.235,0.737c0,0.042,0.021,0.125,0.063,0.25c0.041,0.126,0.063,0.22,0.063,0.282v2.758
				c0,0.586,0.271,1.087,0.81,1.506c0.478,0.375,1.017,0.563,1.619,0.563c1.641,0,2.461-0.825,2.461-2.477
				c0-0.313-0.031-0.647-0.095-1.003c-0.146-0.25-0.219-0.396-0.219-0.438c0.209,0.063,0.501,0.168,0.878,0.313
				c0.042,0.021,0.172,0.131,0.392,0.329c0.219,0.199,0.36,0.298,0.424,0.298c0.02,0,0.281-0.126,0.783-0.377v1.818
				c0,0.105-0.105,0.513-0.313,1.223c-0.418,1.4-1.86,2.101-4.325,2.101c-0.23,0-0.586-0.037-1.065-0.11
				c-0.481-0.073-0.837-0.11-1.066-0.11c-0.084-0.062-0.209-0.135-0.376-0.219c-0.543-0.125-0.972-0.365-1.285-0.721
				c-0.188-0.208-0.407-0.554-0.658-1.034c-0.209-1.003-0.313-1.85-0.313-2.539v-2.413c0-0.105-0.063-0.334-0.188-0.689
				c-0.126-0.355-0.189-0.596-0.189-0.721c0-0.104,0.048-0.309,0.142-0.611s0.141-0.538,0.141-0.705v-2.227
				c0-1.461,0.45-2.627,1.349-3.494s2.078-1.301,3.541-1.301c0.753,0,1.275,0.052,1.567,0.156c0.396,0.146,0.722,0.23,0.973,0.251
				c0.062,0.063,0.156,0.136,0.282,0.22C200.971,7.532,201.599,9.047,201.703,11.618z"/>
			<path fill="#FFFFFF" d="M217.346,14.689c-0.146,0.146-0.334,0.345-0.563,0.596c-0.252,0.334-0.377,0.669-0.377,1.003v3.542
				c0,0.563-0.188,1.232-0.564,2.005c-0.377,0.773-0.783,1.297-1.223,1.567c-1.045,0.628-2.404,0.941-4.074,0.941
				c-3.448,0-5.329-1.285-5.643-3.855c-0.021-0.104-0.068-0.355-0.141-0.752c-0.073-0.397-0.11-0.647-0.11-0.753v-3.26
				c0-0.25-0.251-0.521-0.752-0.814c0.021-0.021,0.167-0.198,0.439-0.533c0.208-0.271,0.313-0.449,0.313-0.533v-2.945
				c0.021-0.146,0.104-0.564,0.251-1.255c0.271-1.378,0.94-2.444,2.006-3.196c1.003-0.69,2.226-1.034,3.668-1.034
				c0.166,0,1.106,0.167,2.82,0.501c0.648,0.125,1.313,0.686,1.99,1.677c0.68,0.993,1.02,1.834,1.02,2.524v3.196
				c0,0.188,0.109,0.443,0.328,0.768C216.956,14.402,217.159,14.606,217.346,14.689z M216.311,14.752
				c0-0.084-0.061-0.22-0.188-0.408c-0.125-0.188-0.188-0.313-0.188-0.376v-3.01c0-0.563-0.168-1.237-0.502-2.021
				c-0.334-0.783-0.709-1.353-1.129-1.707c-0.961-0.836-2.204-1.254-3.728-1.254c-0.982,0-1.881,0.209-2.696,0.626
				c-0.898,0.46-1.547,1.098-1.943,1.912c-0.418,0.898-0.627,1.536-0.627,1.912v3.134c0,0.085-0.078,0.288-0.234,0.612
				c-0.157,0.323-0.235,0.517-0.235,0.58c0,0.083,0.078,0.281,0.235,0.595c0.156,0.313,0.234,0.502,0.234,0.564v3.824
				c0,0.229,0.146,0.73,0.438,1.504c0.628,1.65,2.236,2.476,4.828,2.476c1.273,0,2.246-0.135,2.914-0.406
				c0.857-0.355,1.506-1.045,1.943-2.069c0.334-0.773,0.502-1.546,0.502-2.319v-3.385c0-0.083,0.063-0.215,0.188-0.393
				C216.25,14.966,216.311,14.835,216.311,14.752z M215.842,14.784c0,0.062-0.078,0.245-0.236,0.549
				c-0.156,0.302-0.234,0.495-0.234,0.579v3.479c0,0.814-0.23,1.618-0.689,2.413c-0.209,0.355-0.553,0.669-1.033,0.94
				c-0.23,0.125-0.607,0.219-1.129,0.282c-0.669,0.063-1.066,0.114-1.191,0.156c-0.397,0.105-0.648,0.157-0.752,0.157
				c0.125,0-0.157-0.052-0.847-0.157c-0.293-0.042-0.721-0.094-1.285-0.156c-0.795-0.104-1.433-0.522-1.912-1.254
				c-0.46-0.669-0.689-1.421-0.689-2.258c0-0.145,0-0.292,0-0.438c0-0.02-0.026-0.067-0.078-0.141
				c-0.053-0.072-0.079-0.151-0.079-0.234v-3.041c0-0.083-0.062-0.229-0.188-0.438c-0.125-0.209-0.188-0.355-0.188-0.438
				c0-0.063,0.063-0.215,0.188-0.455c0.126-0.24,0.188-0.402,0.188-0.486v-2.57c0.021-0.063,0.073-0.166,0.157-0.313
				c-0.021-1.461,0.417-2.59,1.316-3.385c0.836-0.752,1.995-1.128,3.479-1.128c1.003,0,1.891,0.22,2.665,0.658
				c0.879,0.48,1.453,1.17,1.723,2.068c0.23,0.752,0.346,1.191,0.346,1.316v3.104c0,0.063,0.078,0.262,0.234,0.596
				C215.764,14.522,215.842,14.72,215.842,14.784z M213.147,17.604c0-1.086-0.043-1.776-0.125-2.068
				c-0.021-0.063-0.084-0.188-0.189-0.377c-0.104-0.188-0.156-0.323-0.156-0.406c0-0.084,0.053-0.226,0.156-0.424
				c0.105-0.198,0.168-0.318,0.189-0.36c0.082-0.271,0.125-0.909,0.125-1.912c0-1.086-0.105-1.892-0.314-2.414
				c-0.375-0.939-1.138-1.409-2.287-1.409c-0.356,0-0.764,0.104-1.224,0.313c-0.543,0.25-0.846,0.521-0.908,0.814
				c-0.021,0.063-0.079,0.188-0.172,0.376c-0.095,0.188-0.142,0.324-0.142,0.408v3.792c0,0.083,0.063,0.219,0.188,0.407
				c0.126,0.188,0.188,0.324,0.188,0.408c0,0.104-0.063,0.25-0.188,0.438c-0.125,0.188-0.188,0.313-0.188,0.376v4.169
				c0,0.396,0.354,0.867,1.065,1.41c0.146,0.104,0.429,0.23,0.847,0.376c0.041,0.021,0.229,0.031,0.564,0.031
				C212.29,21.553,213.147,20.237,213.147,17.604z M212.583,17.542c0,1.17-0.063,1.942-0.188,2.319
				c-0.272,0.814-0.889,1.222-1.849,1.222c-0.962,0-1.567-0.438-1.818-1.316c-0.105-0.354-0.157-1.044-0.157-2.068
				c0-1.107,0.042-1.859,0.126-2.257c0-0.041,0.057-0.146,0.172-0.313c0.114-0.166,0.173-0.292,0.173-0.375
				c0-0.063-0.074-0.226-0.22-0.486c-0.146-0.262-0.22-0.455-0.22-0.58c-0.021-0.396-0.031-0.94-0.031-1.63
				c0-1.212,0.083-2.006,0.251-2.382c0.292-0.668,0.992-1.003,2.1-1.003c0.836,0,1.359,0.501,1.568,1.504
				c0.063,0.293,0.094,0.931,0.094,1.912c0,1.233-0.063,1.97-0.188,2.209c-0.127,0.241-0.189,0.403-0.189,0.487
				c0,0.083,0.059,0.219,0.174,0.407c0.115,0.188,0.172,0.335,0.172,0.438C212.571,16.005,212.583,16.643,212.583,17.542z
				 M212.112,17.542c0-0.752-0.021-1.223-0.063-1.411c-0.104-0.48-0.396-0.95-0.878-1.41c0.627-0.376,0.94-1.233,0.94-2.569
				c0-1.944-0.491-2.916-1.474-2.916c-0.731,0-1.19,0.355-1.378,1.066c-0.085,0.292-0.126,0.878-0.126,1.755
				c0,0.773,0.021,1.274,0.063,1.504c0.083,0.481,0.346,0.89,0.784,1.224c-0.419,0.292-0.68,0.742-0.784,1.347
				c-0.042,0.23-0.063,0.722-0.063,1.474c0,0.898,0.021,1.453,0.063,1.661c0.167,0.836,0.647,1.254,1.441,1.254
				C211.621,20.519,212.112,19.527,212.112,17.542z"/>
			<path fill="#FFFFFF" d="M223.965,20.582c-0.439,0.251-0.711,0.564-0.814,0.94c-0.021,0.355-0.094,0.92-0.219,1.692
				c-0.084,0.313-0.352,0.611-0.801,0.894s-0.842,0.423-1.176,0.423c-0.355,0-0.768-0.141-1.236-0.423
				c-0.471-0.282-0.748-0.58-0.832-0.894c-0.021-0.167-0.104-0.731-0.25-1.692c-0.021-0.167-0.125-0.35-0.314-0.549
				c-0.188-0.198-0.355-0.286-0.5-0.266c0.229-0.251,0.471-0.585,0.721-1.003c0.125-0.209,0.188-0.419,0.188-0.628
				c-0.043-1.65,0.668-2.476,2.133-2.476c1.002,0,1.711,0.48,2.129,1.441c0.021,0.335,0.074,0.837,0.158,1.505
				C223.192,19.672,223.465,20.017,223.965,20.582z M222.963,20.583c0-0.084-0.063-0.24-0.186-0.47
				c-0.123-0.23-0.186-0.387-0.186-0.47c-0.02-0.252-0.068-0.722-0.146-1.412c-0.104-0.293-0.301-0.544-0.592-0.753
				s-0.594-0.314-0.904-0.314c-1.188,0-1.77,0.826-1.748,2.477c0,0.084-0.059,0.246-0.172,0.486
				c-0.117,0.24-0.174,0.392-0.174,0.454c0,0.042,0.115,0.293,0.346,0.752c0,0.377,0.082,0.94,0.25,1.693
				c0.23,0.563,0.711,0.846,1.441,0.846c1.17,0,1.746-0.814,1.725-2.442c-0.021-0.105,0.031-0.263,0.156-0.471
				C222.901,20.75,222.963,20.625,222.963,20.583z M222.493,20.488c0,0.063-0.049,0.188-0.145,0.376
				c-0.098,0.188-0.154,0.313-0.174,0.376c0.02,0.334,0,0.805-0.059,1.41c-0.211,0.522-0.582,0.783-1.109,0.783
				c-0.635,0-1.035-0.282-1.203-0.845c-0.086-0.544-0.16-1.088-0.223-1.631c-0.17,0-0.254-0.146-0.254-0.438
				c0.021-0.063,0.104-0.209,0.252-0.439c0.041-0.438,0.188-1.139,0.438-2.1l0.848-0.438c0.207,0,0.457,0.099,0.752,0.298
				c0.291,0.198,0.447,0.392,0.469,0.58c-0.021,0.375,0,0.877,0.063,1.504c0.021,0.063,0.084,0.152,0.189,0.267
				C222.44,20.305,222.493,20.405,222.493,20.488z"/>
		</g>
	</g>
	<g>
		<path fill="#FFFFFF" d="M109.853,53.94l2.811-8.694l2.85,8.701l9.326-0.019l-7.527,5.511l2.887,8.812l-7.529-5.435l-7.441,5.435
			l2.783-8.78l-7.613-5.484L109.853,53.94z M102.61,54.729l6.328,4.719l-2.344,6.938l6.023-4.232l6.384,4.529l-2.626-7.234
			l6.156-4.781h-7.688l-2.218-7.487l-2.36,7.487L102.61,54.729z"/>
		
			<path fill="none" stroke="#FFFFFF" stroke-width="0.25" stroke-linecap="round" stroke-linejoin="round" stroke-miterlimit="10" d="
			M158.918,55.832c1.006,2.278,3.079,3.863,5.489,3.243c3.016-0.776,4.831-3.85,4.054-6.863c-0.97-3.769-4.902-6.343-8.579-5.067
			c-6.787,2.354-15.684,16.26-26.404,19.326c-1.206,0.345-2.537,0.271-3.79-0.239c-2.434-0.994-3.602-3.773-2.607-6.208
			c0.795-1.947,3.019-2.882,4.966-2.086c1.558,0.636,2.306,2.415,1.669,3.973c-0.509,1.246-1.932,1.845-3.178,1.335
			c-0.997-0.407-1.476-1.545-1.068-2.542c0.325-0.798,1.236-1.181,2.034-0.854c0,0-1.633-0.585-2.273,0.774
			c-0.385,0.816-0.25,3.234,1.906,3.203c3.013-0.044,3.047-2.859,1.938-4.375c-0.832-1.137-2.85-2.359-4.578-1.359
			s-4.23,5.985,0.915,8.199c5.746,2.473,22.922-13.305,27.455-16.756c1.6-1.218,4.521-3.134,6.958-2.229
			c2.766,1.027,4.5,3.709,4.625,6.396c0.138,2.96-2.734,5.549-5.406,4.968C160.167,58.044,158.62,55.158,158.918,55.832z"/>
		
			<path fill="none" stroke="#FFFFFF" stroke-width="0.25" stroke-linecap="round" stroke-linejoin="round" stroke-miterlimit="10" d="
			M66.215,55.832c-1.006,2.278-3.079,3.863-5.489,3.243c-3.016-0.776-4.831-3.85-4.054-6.863c0.97-3.769,4.902-6.343,8.579-5.067
			c6.787,2.354,15.684,16.26,26.405,19.326c1.206,0.345,2.537,0.271,3.79-0.239c2.434-0.994,3.602-3.773,2.607-6.208
			c-0.795-1.947-3.019-2.882-4.966-2.086c-1.558,0.636-2.306,2.415-1.669,3.973c0.509,1.246,1.932,1.845,3.178,1.335
			c0.997-0.407,1.476-1.545,1.068-2.542c-0.325-0.798-1.236-1.181-2.034-0.854c0,0,1.633-0.585,2.273,0.774
			c0.385,0.816,0.25,3.234-1.906,3.203c-3.013-0.044-3.047-2.859-1.938-4.375c0.832-1.137,2.85-2.359,4.578-1.359
			s4.23,5.985-0.915,8.199c-5.746,2.473-22.922-13.305-27.456-16.756c-1.6-1.218-4.521-3.134-6.958-2.229
			c-2.766,1.027-4.5,3.709-4.625,6.396c-0.138,2.96,2.734,5.549,5.406,4.968C64.966,58.044,66.513,55.158,66.215,55.832z"/>
	</g>
</g>
</svg>
