<?xml version="1.0" encoding="utf-8"?>
<!-- Generator: Adobe Illustrator 16.0.0, SVG Export Plug-In . SVG Version: 6.00 Build 0)  -->
<!DOCTYPE svg PUBLIC "-//W3C//DTD SVG 1.1//EN" "http://www.w3.org/Graphics/SVG/1.1/DTD/svg11.dtd">
<svg version="1.1" id="Layer_1" xmlns="http://www.w3.org/2000/svg" xmlns:xlink="http://www.w3.org/1999/xlink" x="0px" y="0px"
	 width="226.167px" height="69.792px" viewBox="0 0 226.167 69.792" enable-background="new 0 0 226.167 69.792"
	 xml:space="preserve">
<g>
	<g>
		<g>
			<path fill="#FFFFFF" d="M96.685,36.432c0,0.18,0.03,0.346,0.09,0.502c0.059,0.156,0.144,0.291,0.255,0.404
				c0.11,0.113,0.247,0.203,0.408,0.27c0.162,0.066,0.349,0.098,0.56,0.098c0.199,0,0.382-0.033,0.547-0.098
				c0.164-0.066,0.305-0.158,0.421-0.275c0.115-0.117,0.206-0.254,0.271-0.41c0.065-0.156,0.098-0.324,0.098-0.504
				c0-0.186-0.024-0.344-0.072-0.475c-0.049-0.129-0.118-0.238-0.209-0.33c-0.092-0.09-0.201-0.166-0.33-0.23
				c-0.129-0.063-0.273-0.123-0.435-0.182l-0.651-0.223c-0.387-0.129-0.678-0.297-0.873-0.504c-0.196-0.209-0.294-0.508-0.294-0.896
				c0-0.229,0.037-0.436,0.112-0.621c0.074-0.184,0.18-0.34,0.315-0.467c0.137-0.129,0.298-0.227,0.484-0.297
				c0.187-0.068,0.393-0.104,0.616-0.104c0.528,0,0.914,0.141,1.16,0.42c0.245,0.279,0.368,0.658,0.368,1.133h-0.32
				c0-0.379-0.094-0.686-0.28-0.918c-0.187-0.23-0.484-0.346-0.896-0.346c-0.162,0-0.317,0.02-0.466,0.059
				c-0.149,0.039-0.281,0.105-0.397,0.199c-0.116,0.092-0.208,0.213-0.275,0.361c-0.068,0.148-0.102,0.334-0.102,0.555
				c0,0.313,0.078,0.553,0.233,0.721c0.155,0.166,0.359,0.291,0.611,0.377l0.853,0.295c0.183,0.064,0.346,0.137,0.491,0.217
				c0.145,0.08,0.267,0.178,0.365,0.291c0.1,0.115,0.176,0.25,0.229,0.404c0.054,0.156,0.081,0.336,0.081,0.545
				c0,0.256-0.044,0.482-0.133,0.68c-0.088,0.197-0.206,0.363-0.355,0.5s-0.325,0.238-0.528,0.309
				c-0.202,0.068-0.416,0.104-0.64,0.104c-0.331,0-0.602-0.051-0.813-0.152c-0.21-0.102-0.377-0.229-0.5-0.379
				c-0.122-0.152-0.206-0.314-0.252-0.484c-0.045-0.172-0.067-0.326-0.067-0.465v-0.375h0.319V36.432z"/>
			<path fill="#FFFFFF" d="M100.421,32.186h0.319v5.713h-0.319V32.186z"/>
			<path fill="#FFFFFF" d="M102.108,32.186l2.52,5.184h0.017v-5.184h0.319v5.713h-0.424l-2.527-5.184h-0.017v5.184h-0.32v-5.713
				H102.108z"/>
			<path fill="#FFFFFF" d="M108.813,33.827c0-0.189-0.025-0.373-0.077-0.547c-0.051-0.174-0.129-0.328-0.234-0.463
				s-0.237-0.24-0.396-0.32c-0.159-0.078-0.344-0.117-0.555-0.117c-0.286,0-0.527,0.063-0.724,0.189
				c-0.197,0.127-0.355,0.307-0.474,0.537c-0.119,0.23-0.204,0.51-0.255,0.84c-0.052,0.328-0.077,0.691-0.077,1.088
				c0,0.383,0.022,0.736,0.068,1.063s0.124,0.607,0.235,0.848c0.11,0.238,0.261,0.424,0.453,0.561
				c0.191,0.135,0.433,0.201,0.724,0.201c0.28,0,0.51-0.068,0.688-0.205c0.179-0.137,0.318-0.301,0.421-0.492
				c0.103-0.189,0.174-0.381,0.215-0.574c0.04-0.193,0.061-0.344,0.061-0.455h0.319c0,0.17-0.025,0.371-0.075,0.6
				c-0.051,0.229-0.142,0.449-0.272,0.66s-0.31,0.389-0.536,0.535s-0.519,0.221-0.876,0.221c-0.31,0-0.574-0.066-0.796-0.199
				c-0.222-0.135-0.401-0.328-0.54-0.58c-0.139-0.254-0.241-0.563-0.308-0.926c-0.067-0.361-0.101-0.775-0.101-1.238
				c0-0.449,0.033-0.855,0.101-1.221c0.066-0.365,0.173-0.676,0.319-0.932c0.147-0.256,0.336-0.455,0.568-0.596
				c0.232-0.143,0.514-0.213,0.844-0.213c0.336,0,0.608,0.064,0.816,0.191c0.208,0.129,0.369,0.283,0.483,0.465
				c0.115,0.182,0.193,0.371,0.236,0.572c0.043,0.199,0.064,0.369,0.064,0.508H108.813z"/>
			<path fill="#FFFFFF" d="M109.885,32.186h2.728v0.289h-2.408v2.295h2.248v0.289h-2.248v2.551h2.48v0.289h-2.8V32.186z"/>
			<path fill="#FFFFFF" d="M116.677,32.811c-0.069,0.08-0.156,0.156-0.26,0.23c-0.104,0.076-0.217,0.145-0.336,0.205
				c-0.12,0.061-0.246,0.113-0.376,0.156c-0.131,0.043-0.258,0.068-0.381,0.08v-0.273c0.145-0.016,0.288-0.051,0.433-0.107
				c0.144-0.055,0.279-0.127,0.408-0.215c0.128-0.088,0.239-0.189,0.336-0.301c0.096-0.111,0.165-0.229,0.208-0.352h0.288v5.664
				h-0.32V32.811z"/>
			<path fill="#FFFFFF" d="M119.372,36.706c0,0.113,0.019,0.229,0.057,0.35c0.037,0.119,0.097,0.229,0.18,0.328
				c0.083,0.098,0.188,0.18,0.316,0.242c0.128,0.064,0.285,0.098,0.472,0.098c0.256,0,0.469-0.068,0.64-0.205
				c0.171-0.135,0.31-0.326,0.416-0.572c0.106-0.244,0.183-0.535,0.229-0.871c0.045-0.336,0.067-0.705,0.067-1.104v-0.113h-0.016
				c-0.031,0.123-0.079,0.248-0.144,0.377c-0.063,0.127-0.148,0.244-0.254,0.352c-0.106,0.107-0.236,0.193-0.39,0.26
				c-0.154,0.066-0.337,0.1-0.549,0.1c-0.462,0-0.826-0.152-1.095-0.459c-0.268-0.307-0.401-0.752-0.401-1.332
				c0-0.277,0.032-0.533,0.096-0.768c0.064-0.236,0.161-0.438,0.292-0.609c0.131-0.17,0.296-0.303,0.496-0.398
				c0.2-0.098,0.437-0.145,0.708-0.145c0.342,0,0.616,0.076,0.824,0.232c0.208,0.154,0.368,0.357,0.48,0.607
				c0.111,0.25,0.185,0.533,0.22,0.848c0.034,0.314,0.052,0.635,0.052,0.961c0,0.416-0.021,0.813-0.063,1.191
				c-0.043,0.379-0.124,0.709-0.244,0.992s-0.291,0.508-0.513,0.676c-0.221,0.168-0.511,0.252-0.867,0.252
				c-0.272,0-0.494-0.049-0.664-0.148c-0.171-0.098-0.306-0.217-0.404-0.355s-0.167-0.281-0.204-0.424
				c-0.037-0.145-0.056-0.264-0.056-0.361H119.372z M121.652,34.067c0-0.176-0.021-0.357-0.063-0.545
				c-0.043-0.186-0.111-0.354-0.204-0.504c-0.094-0.148-0.217-0.271-0.368-0.367c-0.152-0.096-0.338-0.145-0.556-0.145
				c-0.385,0-0.688,0.137-0.908,0.412c-0.222,0.275-0.332,0.688-0.332,1.236c0,0.213,0.023,0.412,0.071,0.596
				c0.049,0.184,0.122,0.344,0.221,0.48c0.099,0.135,0.224,0.244,0.376,0.324c0.151,0.08,0.332,0.119,0.54,0.119
				c0.213,0,0.396-0.041,0.548-0.123c0.152-0.084,0.278-0.197,0.38-0.342c0.102-0.143,0.176-0.314,0.224-0.512
				C121.629,34.5,121.652,34.29,121.652,34.067z"/>
			<path fill="#FFFFFF" d="M122.772,37.899c0-0.406,0.084-0.773,0.253-1.1c0.169-0.328,0.415-0.621,0.736-0.877l0.813-0.641
				c0.128-0.1,0.249-0.205,0.361-0.311c0.113-0.107,0.212-0.223,0.298-0.35c0.086-0.125,0.153-0.258,0.201-0.398
				c0.049-0.143,0.072-0.301,0.072-0.477c0-0.367-0.1-0.666-0.3-0.896c-0.2-0.229-0.489-0.344-0.867-0.344
				c-0.222,0-0.408,0.041-0.56,0.125c-0.151,0.082-0.276,0.191-0.373,0.326c-0.098,0.137-0.168,0.291-0.211,0.465
				s-0.065,0.352-0.065,0.531h-0.319c0-0.238,0.033-0.465,0.1-0.676s0.165-0.393,0.296-0.547s0.294-0.277,0.488-0.365
				s0.42-0.131,0.676-0.131c0.145,0,0.302,0.021,0.473,0.068c0.17,0.045,0.329,0.125,0.476,0.238
				c0.146,0.115,0.268,0.27,0.364,0.465c0.096,0.195,0.144,0.443,0.144,0.748c0,0.209-0.025,0.393-0.076,0.553
				s-0.122,0.307-0.214,0.443c-0.091,0.137-0.2,0.264-0.329,0.385c-0.129,0.119-0.271,0.24-0.427,0.363l-0.757,0.605
				c-0.123,0.102-0.241,0.213-0.354,0.334c-0.113,0.121-0.212,0.248-0.298,0.383s-0.154,0.268-0.205,0.402
				c-0.052,0.135-0.076,0.264-0.076,0.387h2.783v0.289H122.772z"/>
			<path fill="#FFFFFF" d="M129.74,32.618c-0.245,0.279-0.468,0.58-0.668,0.904c-0.2,0.322-0.38,0.654-0.54,0.994
				s-0.299,0.678-0.416,1.012s-0.215,0.65-0.292,0.951c-0.077,0.299-0.135,0.57-0.172,0.814c-0.037,0.242-0.057,0.445-0.057,0.605
				h-0.367c0-0.188,0.023-0.414,0.071-0.678c0.048-0.266,0.116-0.551,0.206-0.855s0.199-0.625,0.326-0.959s0.271-0.666,0.433-0.994
				c0.161-0.33,0.339-0.646,0.532-0.951s0.4-0.586,0.623-0.844h-2.832v-0.287h3.152V32.618z"/>
		</g>
		<g>
			
				<line fill="none" stroke="#FFFFFF" stroke-width="0.25" stroke-miterlimit="10" x1="66.75" y1="35.293" x2="90.583" y2="35.293"/>
			
				<line fill="none" stroke="#FFFFFF" stroke-width="0.25" stroke-miterlimit="10" x1="90.583" y1="37.125" x2="90.583" y2="33.459"/>
		</g>
		<g>
			
				<line fill="none" stroke="#FFFFFF" stroke-width="0.25" stroke-miterlimit="10" x1="159.415" y1="35.293" x2="135.583" y2="35.293"/>
			
				<line fill="none" stroke="#FFFFFF" stroke-width="0.25" stroke-miterlimit="10" x1="135.583" y1="37.125" x2="135.583" y2="33.459"/>
		</g>
	</g>
</g>
<g>
	<g>
		<path fill="#FFFFFF" d="M32.513,3.372c-0.98,0.98-1.871,2.281-2.668,3.906c-0.826,1.729-1.24,3.236-1.24,4.525
			c0,0.412,0.141,1.07,0.428,1.973c-1.008,0.078-1.973,1.277-2.902,3.598c-0.801,1.986-1.197,3.52-1.197,4.604
			c0,0.258,0.074,0.67,0.229,1.238c0.156,0.566,0.297,0.902,0.426,1.004c-0.564,0.57-1.25,0.852-2.049,0.852
			c-0.207,0-0.516-0.051-0.93-0.154c-0.41-0.102-0.721-0.154-0.928-0.154c-0.078,0-0.238,0.045-0.482,0.135
			c-0.246,0.092-0.406,0.15-0.484,0.174h-1.045c-0.928,0-1.637-0.281-2.127-0.852c0.258-0.281,0.553-0.668,0.891-1.16
			c0.18-0.438,0.271-0.875,0.271-1.313c0-1.059-0.465-3.172-1.395-6.344l-0.154-0.195c-0.078,0.025-0.168,0.09-0.268,0.195
			c-0.854,2.861-1.279,4.936-1.279,6.225c0,0.801,0.039,1.277,0.115,1.432c0.592,0.596,0.891,0.969,0.891,1.123
			c0,0.592-0.709,0.889-2.129,0.889h-1.043c-0.412-0.205-0.709-0.309-0.891-0.309c0.078,0-0.23,0.104-0.93,0.309H10.66
			c-0.828,0-1.486-0.232-1.975-0.695c0-0.053,0.064-0.199,0.193-0.445s0.207-0.42,0.232-0.523c0.104-0.41,0.154-0.889,0.154-1.43
			c0-1.264-0.387-2.811-1.16-4.641c-0.877-2.064-1.83-3.25-2.865-3.561c0.313-0.85,0.467-1.533,0.467-2.049
			c0-1.109-0.451-2.578-1.354-4.41c-0.902-1.83-1.793-3.094-2.67-3.791c0.18-0.334,0.633-0.631,1.354-0.889
			c0.646-0.234,1.201-0.35,1.664-0.35c0.154,0,0.484,0.078,0.988,0.234c0.5,0.152,0.83,0.23,0.986,0.23
			c0.205,0,0.541-0.078,1.004-0.23c0.463-0.156,0.797-0.234,1.006-0.234c0.309,0,0.715,0.104,1.219,0.311s0.756,0.439,0.756,0.695
			c0,0.053-0.133,0.322-0.391,0.811c-0.256,0.492-0.398,0.764-0.424,0.814V6.04c0,1.006,0.232,2.039,0.695,3.096
			c0.051,0.129,0.252,0.414,0.6,0.852c0.35,0.439,0.523,0.709,0.523,0.811c0,0.207-0.072,0.568-0.213,1.084
			s-0.213,0.877-0.213,1.082c0,1.418,0.322,2.502,0.967,3.25c0.078,0,0.156-0.064,0.232-0.193c0.334-1.264,0.502-2.258,0.502-2.977
			c0-0.26-0.076-0.641-0.23-1.143c-0.156-0.502-0.232-0.883-0.232-1.143c0.076-0.154,0.334-0.514,0.775-1.082
			c0.643-0.852,0.965-1.908,0.965-3.172c0-0.543-0.09-1.07-0.27-1.586c-0.025-0.104-0.17-0.387-0.426-0.85
			c-0.232-0.389-0.348-0.645-0.348-0.775c0-0.309,0.27-0.566,0.811-0.771c0.41-0.156,0.813-0.234,1.201-0.234
			c0.152,0,0.475,0.078,0.965,0.234c0.49,0.152,0.799,0.23,0.928,0.23c0.156,0,0.477-0.078,0.967-0.23
			c0.49-0.156,0.803-0.234,0.93-0.234c0.955,0,1.664,0.285,2.127,0.852l-0.889,1.779c-0.154,0.412-0.232,0.955-0.232,1.625
			c0,0.646,0.283,1.553,0.85,2.727c0.57,1.174,0.852,1.682,0.852,1.527c0,0.258-0.078,0.652-0.23,1.182
			c-0.156,0.527-0.232,0.92-0.232,1.178c0,0.336,0.064,0.813,0.191,1.432c0.156,0.695,0.246,1.174,0.271,1.432l0.193,0.193
			c0.336-0.156,0.631-0.656,0.889-1.51c0.207-0.695,0.313-1.301,0.313-1.818c0-0.127-0.098-0.482-0.293-1.063
			c-0.193-0.58-0.289-0.934-0.289-1.064c0-0.102,0.104-0.27,0.311-0.502c0.281-0.336,0.438-0.529,0.465-0.58
			c0.797-1.135,1.199-2.348,1.199-3.637c0-0.721-0.311-1.637-0.93-2.746c0.387-0.668,1.031-1.006,1.932-1.006
			c0.518,0,1.047,0.092,1.59,0.271c0.127,0.207,0.281,0.311,0.463,0.311c1.16-0.389,1.83-0.582,2.01-0.582
			C30.515,2.288,31.505,2.651,32.513,3.372z M31.121,3.526c0-0.078-0.246-0.186-0.734-0.328c-0.492-0.143-0.813-0.213-0.969-0.213
			c-0.361,0-0.697,0.09-1.004,0.27c-0.027,0.025-0.143,0.123-0.35,0.291c-0.205,0.168-0.348,0.252-0.424,0.252
			c-0.029,0-0.287-0.135-0.775-0.406s-0.891-0.406-1.199-0.406c-0.207,0-0.566,0.09-1.082,0.27v0.389
			c0.387,1.057,0.578,1.83,0.578,2.318c0,1.215-0.283,2.426-0.85,3.637c-0.232,0.258-0.477,0.594-0.734,1.006
			c-0.076,0.129-0.076,0.311,0,0.543s0.129,0.412,0.154,0.541c0.232,2.113-0.35,4.242-1.74,6.381
			c-1.188-1.623-1.664-3.713-1.432-6.266c0-0.051,0.039-0.205,0.115-0.463c0.078-0.258,0.09-0.426,0.039-0.504
			c-0.258-0.387-0.58-0.916-0.969-1.586c-0.307-0.953-0.463-1.855-0.463-2.707c0-0.773,0.078-1.393,0.234-1.857
			c0.359-0.723,0.541-1.07,0.541-1.043V3.254c-0.518-0.18-0.891-0.27-1.121-0.27c-0.311,0-0.684,0.135-1.123,0.406
			s-0.684,0.406-0.736,0.406l-0.695-0.426c-0.463-0.258-0.838-0.387-1.123-0.387c-0.256,0-0.645,0.09-1.158,0.27v0.389
			c0.539,0.617,0.811,1.572,0.811,2.861c0,0.93-0.205,1.961-0.619,3.094c-0.205,0.258-0.449,0.635-0.734,1.123
			c-0.078,0.182-0.078,0.426,0,0.734c0.102,0.387,0.156,0.619,0.156,0.695c0.129,1.443-0.297,3.354-1.277,5.725
			c-0.076,0.131-0.143,0.193-0.191,0.193c-1.215-2.037-1.82-3.842-1.82-5.414c0-0.645,0.09-1.275,0.271-1.896
			C9.587,9.522,9.033,7.874,9.033,5.809c0-0.232,0.014-0.387,0.037-0.465c0.027-0.18,0.123-0.49,0.293-0.93
			c0.168-0.438,0.252-0.695,0.252-0.771V3.254c-0.545-0.18-0.865-0.27-0.969-0.27c-0.518,0-1.211,0.27-2.09,0.813L6.015,3.372
			c-0.387-0.258-0.76-0.387-1.121-0.387c-0.518,0-1.045,0.09-1.586,0.27c-0.18,0.131-0.271,0.26-0.271,0.389
			c0.955,1.158,1.74,2.514,2.359,4.061c0.672,1.65,1.008,3.17,1.008,4.564c0,0.414-0.041,0.801-0.115,1.16
			c0.928,0.518,1.791,1.816,2.59,3.908c0.723,1.906,1.084,3.494,1.084,4.758c0,0.258-0.02,0.639-0.059,1.141
			s-0.059,0.883-0.059,1.141c0.076,0,0.195,0.027,0.348,0.076c0.154,0.053,0.271,0.078,0.348,0.078c0.619,0,1.252-0.311,1.896-0.928
			c0.18,0.207,0.508,0.412,0.984,0.617c0.48,0.207,0.861,0.311,1.143,0.311c0.104,0,0.252-0.025,0.447-0.078
			c0.191-0.049,0.34-0.076,0.443-0.076v-0.389c-0.361-0.463-0.543-1.262-0.543-2.396c0-1.084,0.078-2,0.234-2.748
			c0.051-0.256,0.67-2.293,1.855-6.109c0.053-0.051,0.129-0.078,0.232-0.078c0.438,1.494,0.875,2.979,1.314,4.449
			c0.49,1.855,0.734,3.363,0.734,4.523c0,0.904-0.051,1.498-0.154,1.779c-0.281,0.568-0.424,0.801-0.424,0.697
			c0,0.285,0.129,0.426,0.387,0.426c0.67,0,1.223-0.09,1.662-0.271c0.541-0.359,0.891-0.541,1.045-0.541
			c0.955,0.541,1.57,0.813,1.855,0.813c0.26,0,0.527-0.09,0.814-0.271v-0.734c0-0.076-0.078-0.348-0.236-0.813
			c-0.051-0.617-0.01-1.301,0.119-2.049c0.436-2.527,1.289-4.631,2.553-6.307c0.283-0.387,0.605-0.695,0.967-0.928
			c-0.182-2.295,0.35-4.666,1.588-7.117C29.689,5.846,30.244,4.918,31.121,3.526z M30.308,3.68
			c-1.367,1.832-2.385,4.229-3.059,7.193c-0.074,0.363-0.063,1.098,0.041,2.207c-0.826,0.877-1.754,2.566-2.785,5.066
			c-0.516,1.264-0.773,2.553-0.773,3.869c0,0.439,0.037,1.07,0.115,1.895h-0.695c-0.051,0.027-0.246-0.096-0.58-0.367
			c-0.336-0.27-0.594-0.406-0.773-0.406c-0.414,0-0.969,0.27-1.664,0.813L19.4,23.795c0.387-0.361,0.58-1.045,0.58-2.049
			c0-0.957-0.129-2-0.385-3.135c-0.104-0.49-0.76-2.645-1.967-6.461c-0.078-0.205-0.258-0.309-0.543-0.309
			c-0.52,0-1.342,2.256-2.48,6.77c-0.26,1.006-0.389,2.039-0.389,3.094c0,0.801,0.193,1.484,0.58,2.051
			c-0.129,0.129-0.283,0.193-0.463,0.193c-0.105,0-0.412-0.135-0.93-0.406c-0.516-0.27-0.826-0.406-0.928-0.406
			c-0.207,0-0.482,0.137-0.83,0.406c-0.35,0.271-0.551,0.406-0.6,0.406h-0.506l-0.154-0.154c0.104-0.67,0.154-1.213,0.154-1.625
			c0-1.393-0.361-3.016-1.082-4.875c-0.748-1.959-1.611-3.363-2.592-4.215c0.078-0.336,0.115-0.684,0.115-1.045
			c0-1.881-0.748-4.254-2.242-7.117C4.611,4.663,4.314,4.299,3.849,3.834C4.056,3.733,4.367,3.68,4.777,3.68
			c0.463,0,0.762,0.039,0.891,0.117c0.283,0.23,0.58,0.463,0.889,0.695C7.82,3.875,8.607,3.565,8.917,3.565v0.428
			c0,0.076-0.051,0.172-0.154,0.289C8.66,4.397,8.607,4.493,8.607,4.571C8.505,5.215,8.453,5.653,8.453,5.885
			c0,0.773,0.154,1.586,0.465,2.438C9.046,8.659,9.406,9.458,10,10.721c0.053,0.129,0.053,0.309,0,0.541
			c-0.102,0.412-0.154,0.631-0.154,0.658c-0.076,0.824,0,1.818,0.232,2.979c0.361,0.852,0.992,2.102,1.895,3.752h0.541
			c0.775-1.059,1.201-2.051,1.277-2.979c0.053-0.104,0.141-0.244,0.271-0.428c0.051-0.436,0.117-1.096,0.193-1.969
			c0.129-0.182,0.193-0.324,0.193-0.428c-0.232-0.568-0.348-1.07-0.348-1.508c0-0.156,0.012-0.311,0.037-0.467
			c0.154-0.203,0.361-0.514,0.621-0.928c0.486-1.393,0.734-2.539,0.734-3.441c0-1.082-0.234-2.012-0.697-2.785
			c0-0.104,0.09-0.154,0.266-0.154c0.432,0,0.875,0.154,1.33,0.463l0.646,0.465c0.104-0.053,0.381-0.27,0.838-0.658
			c0.127-0.102,0.596-0.154,1.406-0.154c0-0.488-0.096-0.264-0.289,0.678s-0.289,1.656-0.289,2.146c0,0.875,0.129,1.715,0.387,2.514
			c0.154,0.465,0.5,1.072,1.043,1.818c0.023,0.129,0,0.348-0.076,0.658c-0.129,0.387-0.193,0.605-0.193,0.656
			c-0.104,0.801,0.012,1.91,0.348,3.328c0.078,0.359,0.297,0.928,0.658,1.701c0.438,0.98,0.811,1.471,1.121,1.471
			c0.438,0,1.02-0.863,1.74-2.594l0.348-1.043c0-0.283,0.064-0.76,0.193-1.432c0.129-0.594,0.182-1.068,0.156-1.432
			c-0.027-0.023-0.092-0.23-0.197-0.617c-0.102-0.283-0.127-0.504-0.074-0.66c0.154-0.281,0.398-0.707,0.734-1.275
			c0.154-0.334,0.283-0.799,0.389-1.391c0-0.027,0.049-0.104,0.152-0.232s0.154-0.246,0.154-0.348V4.338
			c0-0.129-0.102-0.246-0.307-0.346V3.565c0.359,0.051,0.822,0.143,1.391,0.27c0.078,0.025,0.227,0.143,0.445,0.348
			c0.219,0.209,0.393,0.311,0.523,0.311c0.076,0,0.264-0.135,0.559-0.406c0.297-0.271,0.496-0.406,0.6-0.406H30.308z"/>
		<path fill="#FFFFFF" d="M38.431,15.434c-0.816,0.75-1.225,2.084-1.225,3.998c0,1.846,0.408,3.426,1.225,4.736
			c-0.064,0.15-0.295,0.338-0.693,0.564c-0.398,0.225-0.693,0.338-0.887,0.338c-0.279,0-0.682-0.059-1.211-0.176
			c-0.523-0.121-0.756-0.18-0.689-0.18c-0.086,0-0.193,0.039-0.322,0.113c-0.131,0.076-0.217,0.125-0.26,0.146
			c-0.537,0.064-0.988,0.096-1.354,0.096c-0.129,0-0.412-0.113-0.855-0.338c-0.439-0.227-0.68-0.381-0.725-0.469
			c0.84-1.115,1.258-2.727,1.258-4.832c0-1.592-0.418-2.924-1.258-3.998c0.84-0.838,1.258-2.158,1.258-3.967
			c0-1.717-0.342-3.135-1.031-4.254c-0.086-0.15-0.129-0.322-0.129-0.516c0.559-0.408,1.203-0.611,1.934-0.611
			c0.129,0,0.375,0.047,0.742,0.145c0.365,0.096,0.611,0.145,0.742,0.145c0.148,0,0.396-0.049,0.738-0.145
			c0.346-0.098,0.592-0.145,0.742-0.145c0.709,0,1.375,0.234,2,0.709c-0.816,1.158-1.225,2.717-1.225,4.672
			C37.207,13.252,37.615,14.575,38.431,15.434z M37.591,24.073c-0.643-1.459-0.967-3.014-0.967-4.664
			c0-1.246,0.162-2.307,0.484-3.188c0.258-0.385,0.387-0.654,0.387-0.803c0-0.043-0.102-0.313-0.305-0.807
			c-0.207-0.492-0.318-0.803-0.34-0.932c-0.15-0.645-0.227-1.352-0.227-2.125c0-0.836,0.111-1.777,0.324-2.83
			c0.02-0.086,0.117-0.316,0.289-0.691c0.172-0.377,0.246-0.584,0.227-0.629V6.795c-0.086-0.023-0.264-0.066-0.531-0.131
			c-0.271-0.064-0.438-0.096-0.502-0.096c-0.086,0-0.326,0.113-0.725,0.34c-0.398,0.223-0.639,0.338-0.725,0.338
			c-0.064,0-0.307-0.115-0.727-0.338c-0.418-0.227-0.67-0.34-0.756-0.34c-0.109,0-0.475,0.107-1.096,0.32v0.42
			c0.578,1.115,0.871,2.51,0.871,4.182c0,0.965-0.109,1.824-0.324,2.574c-0.021,0.088-0.117,0.324-0.291,0.709
			c-0.172,0.387-0.256,0.621-0.256,0.707c0,0.064,0.117,0.311,0.354,0.74c0.084,0.15,0.193,0.65,0.322,1.498
			c0.131,0.846,0.195,1.41,0.195,1.689c0,0.361-0.061,0.965-0.18,1.801c-0.117,0.836-0.23,1.395-0.338,1.674
			c-0.301,0.793-0.451,1.146-0.451,1.061c0,0.129,0.15,0.254,0.451,0.371s0.537,0.176,0.709,0.176c0.064,0,0.307-0.107,0.725-0.322
			c0.42-0.215,0.674-0.322,0.76-0.322s0.342,0.107,0.773,0.322c0.43,0.215,0.676,0.322,0.738,0.322
			C36.808,24.491,37.183,24.352,37.591,24.073z M37.013,15.434c0,0.086-0.088,0.273-0.26,0.563c-0.17,0.291-0.268,0.488-0.291,0.596
			c-0.213,0.926-0.32,1.869-0.32,2.84c0,1.33,0.107,2.297,0.32,2.898l0.551,1.549c-0.088,0.105-0.27,0.16-0.551,0.16
			c-0.232,0-0.514-0.113-0.836-0.338c-0.322-0.227-0.537-0.34-0.645-0.34c-0.064,0-0.262,0.113-0.596,0.34
			c-0.334,0.225-0.533,0.338-0.598,0.338h-0.773c-0.107-0.107-0.141-0.225-0.098-0.355c0.217-0.234,0.387-0.654,0.516-1.256
			c0.215-1.031,0.324-2.053,0.324-3.063c0-0.988-0.109-1.912-0.324-2.773c-0.086-0.148-0.182-0.365-0.289-0.643l-0.129-0.193
			c-0.086-0.107-0.129-0.215-0.129-0.322c0-0.064,0.084-0.248,0.258-0.549c0.172-0.301,0.27-0.506,0.289-0.613
			c0.215-0.922,0.324-1.848,0.324-2.771c0-2.02-0.27-3.396-0.807-4.127l0.031-0.225h1c0.064,0,0.232,0.111,0.502,0.338
			c0.266,0.227,0.434,0.34,0.498,0.34s0.248-0.113,0.549-0.34s0.49-0.338,0.58-0.338h0.902c-0.238,0.301-0.451,1-0.645,2.096
			c-0.15,0.924-0.227,1.676-0.227,2.256c0,0.881,0.107,1.805,0.32,2.771c0.023,0.107,0.121,0.313,0.291,0.613
			C36.925,15.186,37.013,15.37,37.013,15.434z"/>
		<path fill="#FFFFFF" d="M51.228,23.879c0,0.084-0.018,0.227-0.049,0.418c-0.033,0.195-0.049,0.34-0.049,0.436
			c0,0.098-0.076,0.145-0.225,0.145c-0.086,0-0.346-0.107-0.775-0.322s-0.688-0.32-0.773-0.32c-0.344,0-0.934,0.139-1.771,0.418
			c-0.84,0.281-1.494,0.418-1.967,0.418c-0.387,0-0.881-0.096-1.484-0.289c-0.6-0.193-0.965-0.289-1.094-0.289
			c-0.152,0-0.424,0.063-0.82,0.191c-0.4,0.131-0.674,0.193-0.826,0.193c-0.6,0-1.225-0.236-1.867-0.709
			c0.838-1.57,1.256-3.211,1.256-4.93c0-1.311-0.236-2.375-0.709-3.193c-0.363-0.363-0.547-0.635-0.547-0.805
			c0-0.064,0.068-0.168,0.209-0.307c0.139-0.139,0.221-0.23,0.24-0.275c0.537-0.881,0.807-1.998,0.807-3.352
			c0-2.041-0.418-3.566-1.256-4.576c0.387-0.625,1.193-0.936,2.418-0.936c0.064,0,0.252,0.082,0.564,0.242
			c0.311,0.16,0.498,0.24,0.563,0.24l0.518-0.256c0.621-0.086,1.01-0.129,1.16-0.129c0.301,0,0.891,0.268,1.771,0.807
			c-0.816,1.287-1.225,2.857-1.225,4.705c0,1.697,0.408,3.01,1.225,3.932c-0.816,0.988-1.225,2.332-1.225,4.029
			c0,0.668,0.074,1.109,0.225,1.322c0.215,0.301,0.635,0.451,1.26,0.451c1.223,0,2.084-0.764,2.576-2.287
			c0.279,0.15,0.576,0.447,0.885,0.902c0.314,0.449,0.504,0.836,0.566,1.158c0,0.281,0.023,0.914,0.064,1.902
			c0,0.107,0.057,0.297,0.176,0.564C51.169,23.649,51.228,23.815,51.228,23.879z M50.648,23.588
			c-0.064-0.148-0.248-0.311-0.549-0.484c0-0.127,0.031-0.305,0.098-0.531c0.063-0.225,0.096-0.391,0.096-0.498
			c0.021-0.281-0.037-0.623-0.176-1.033c-0.139-0.406-0.305-0.688-0.498-0.838c-0.084,0.043-0.18,0.107-0.287,0.195
			c-0.279,0.879-1.133,1.32-2.566,1.32c-0.873,0-1.451-0.172-1.729-0.516c-0.211-0.279-0.322-0.869-0.322-1.771
			c0-1.721,0.26-3.01,0.775-3.869c0.064-0.064,0.096-0.141,0.096-0.227c0-0.066-0.117-0.375-0.354-0.936
			c-0.236-0.557-0.367-0.943-0.389-1.16c-0.086-0.645-0.129-1.268-0.129-1.869c0-1.482,0.162-2.609,0.484-3.385
			c0.021-0.043,0.107-0.182,0.258-0.416c0.148-0.24,0.225-0.412,0.225-0.518c0-0.064-0.02-0.141-0.063-0.227
			c-0.045-0.086-0.064-0.139-0.064-0.16c-0.109,0-0.279-0.018-0.516-0.049C44.8,6.584,44.63,6.569,44.525,6.569
			c-0.305,0-0.621,0.08-0.955,0.242c-0.33,0.162-0.51,0.242-0.529,0.242c-0.086,0-0.344-0.113-0.773-0.338
			c-0.432-0.227-0.689-0.338-0.773-0.338c-0.043,0-0.377,0.105-1,0.318v0.42c0.582,1.139,0.871,2.424,0.871,3.861
			c0,0.129-0.045,0.814-0.131,2.059c-0.021,0.129-0.117,0.537-0.289,1.225c-0.021,0.084-0.102,0.25-0.242,0.496
			c-0.141,0.248-0.209,0.404-0.209,0.469c0,0.105,0.076,0.32,0.227,0.643c0.191,0.387,0.299,0.623,0.32,0.707
			c0.215,0.773,0.324,1.76,0.324,2.961c0,0.58-0.098,1.32-0.289,2.221c-0.195,0.986-0.422,1.695-0.678,2.123
			c0.43,0.279,0.783,0.418,1.063,0.418c0.363,0,0.676-0.07,0.936-0.215c0-0.041,0.09-0.123,0.273-0.246
			c0.182-0.123,0.305-0.184,0.371-0.184l0.871,0.42c0.578,0.301,1.041,0.451,1.385,0.451c0.559,0,1.305-0.145,2.24-0.436
			c0.936-0.289,1.541-0.436,1.82-0.436c0.324,0,0.721,0.088,1.191,0.258c0-0.021,0.018-0.076,0.051-0.16S50.648,23.61,50.648,23.588
			z M49.906,21.817c0,0.107-0.053,0.316-0.16,0.627c-0.109,0.313-0.162,0.543-0.162,0.693c-0.301,0.023-0.719,0.076-1.256,0.162
			c-0.988,0.494-1.84,0.74-2.549,0.74c-0.559,0-1.064-0.076-1.514-0.225c-0.086-0.021-0.287-0.135-0.596-0.34
			c-0.313-0.203-0.514-0.305-0.598-0.305c-0.064,0-0.264,0.115-0.596,0.338c-0.332,0.225-0.531,0.34-0.598,0.34h-0.674
			c-0.088,0-0.129-0.086-0.129-0.26c0-0.064,0.014-0.154,0.047-0.273s0.102-0.252,0.209-0.402c0.344-1.375,0.516-2.602,0.516-3.674
			c0-1.076-0.076-1.893-0.225-2.451c0-0.041-0.1-0.334-0.291-0.869l-0.256-0.678c0-0.043,0.084-0.295,0.256-0.758
			c0.174-0.463,0.268-0.758,0.291-0.889c0.148-0.707,0.225-1.449,0.225-2.223c0-1.053-0.172-2.277-0.516-3.674l-0.127-0.162
			c-0.088-0.084-0.129-0.17-0.129-0.258V6.956h0.9c0.064,0,0.236,0.113,0.518,0.34c0.277,0.227,0.461,0.336,0.547,0.336
			c0.064,0,0.305-0.109,0.725-0.336s0.67-0.34,0.76-0.34c0.061,0,0.158,0.021,0.289,0.064c0.127,0.045,0.225,0.064,0.289,0.064
			c-0.303,0.387-0.592,1.482-0.869,3.287v2.193c0.127,0.73,0.266,1.363,0.418,1.902c0.021,0.086,0.102,0.24,0.242,0.467
			c0.137,0.227,0.209,0.381,0.209,0.469c0,0.063-0.072,0.203-0.209,0.418c-0.141,0.215-0.221,0.354-0.242,0.42
			c-0.279,0.838-0.418,1.396-0.418,1.676v2.707c0,0.236,0.215,0.547,0.643,0.936c0.43,0.387,0.773,0.592,1.031,0.611
			c0.109,0.021,0.398,0.033,0.873,0.033c1.049,0,1.977-0.42,2.771-1.258C49.785,21.225,49.906,21.516,49.906,21.817z"/>
		<path fill="#FFFFFF" d="M63.669,23.879c0,0.084-0.016,0.227-0.049,0.418c-0.031,0.195-0.049,0.34-0.049,0.436
			c0,0.098-0.076,0.145-0.225,0.145c-0.084,0-0.344-0.107-0.773-0.322c-0.432-0.215-0.688-0.32-0.775-0.32
			c-0.342,0-0.936,0.139-1.771,0.418c-0.84,0.281-1.494,0.418-1.967,0.418c-0.384,0-0.88-0.096-1.482-0.289
			s-0.967-0.289-1.096-0.289c-0.152,0-0.426,0.063-0.822,0.191c-0.398,0.131-0.672,0.193-0.822,0.193
			c-0.604,0-1.223-0.236-1.869-0.709c0.836-1.57,1.258-3.211,1.258-4.93c0-1.311-0.238-2.375-0.711-3.193
			c-0.363-0.363-0.547-0.635-0.547-0.805c0-0.064,0.068-0.168,0.209-0.307s0.221-0.23,0.242-0.275
			c0.537-0.881,0.807-1.998,0.807-3.352c0-2.041-0.422-3.566-1.258-4.576c0.387-0.625,1.193-0.936,2.418-0.936
			c0.064,0,0.252,0.082,0.563,0.242c0.313,0.16,0.5,0.24,0.564,0.24l0.518-0.256c0.623-0.086,1.01-0.129,1.158-0.129
			c0.301,0,0.894,0.268,1.773,0.807c-0.814,1.287-1.224,2.857-1.224,4.705c0,1.697,0.41,3.01,1.224,3.932
			c-0.814,0.988-1.224,2.332-1.224,4.029c0,0.668,0.076,1.109,0.226,1.322c0.213,0.301,0.633,0.451,1.256,0.451
			c1.225,0,2.086-0.764,2.578-2.287c0.279,0.15,0.576,0.447,0.887,0.902c0.313,0.449,0.502,0.836,0.566,1.158
			c0,0.281,0.02,0.914,0.064,1.902c0,0.107,0.057,0.297,0.176,0.564C63.61,23.649,63.669,23.815,63.669,23.879z M63.089,23.588
			c-0.064-0.148-0.248-0.311-0.549-0.484c0-0.127,0.033-0.305,0.098-0.531c0.063-0.225,0.096-0.391,0.096-0.498
			c0.023-0.281-0.037-0.623-0.176-1.033c-0.137-0.406-0.305-0.688-0.496-0.838c-0.088,0.043-0.184,0.107-0.289,0.195
			c-0.277,0.879-1.131,1.32-2.563,1.32c-0.875,0-1.453-0.172-1.73-0.516c-0.215-0.279-0.322-0.869-0.322-1.771
			c0-1.721,0.26-3.01,0.773-3.869c0.064-0.064,0.1-0.141,0.1-0.227c0-0.066-0.121-0.375-0.355-0.936
			c-0.238-0.557-0.367-0.943-0.387-1.16c-0.088-0.645-0.131-1.268-0.131-1.869c0-1.482,0.16-2.609,0.484-3.385
			c0.02-0.043,0.105-0.182,0.257-0.416c0.148-0.24,0.225-0.412,0.225-0.518c0-0.064-0.021-0.141-0.064-0.227
			c-0.045-0.086-0.064-0.139-0.064-0.16c-0.107,0-0.277-0.018-0.513-0.049c-0.238-0.033-0.41-0.049-0.516-0.049
			c-0.301,0-0.621,0.08-0.953,0.242s-0.51,0.242-0.531,0.242c-0.086,0-0.342-0.113-0.771-0.338
			c-0.434-0.227-0.691-0.338-0.775-0.338c-0.043,0-0.377,0.105-1,0.318v0.42c0.58,1.139,0.871,2.424,0.871,3.861
			c0,0.129-0.043,0.814-0.131,2.059c-0.021,0.129-0.117,0.537-0.289,1.225c-0.023,0.084-0.102,0.25-0.242,0.496
			c-0.141,0.248-0.209,0.404-0.209,0.469c0,0.105,0.078,0.32,0.227,0.643c0.191,0.387,0.301,0.623,0.32,0.707
			c0.217,0.773,0.324,1.76,0.324,2.961c0,0.58-0.098,1.32-0.291,2.221c-0.193,0.986-0.418,1.695-0.676,2.123
			c0.43,0.279,0.783,0.418,1.064,0.418c0.365,0,0.674-0.07,0.934-0.215c0-0.041,0.09-0.123,0.271-0.246
			c0.184-0.123,0.309-0.184,0.373-0.184l0.871,0.42c0.578,0.301,1.041,0.451,1.385,0.451c0.558,0,1.306-0.145,2.24-0.436
			c0.936-0.289,1.543-0.436,1.82-0.436c0.324,0,0.721,0.088,1.193,0.258c0-0.021,0.018-0.076,0.047-0.16
			C63.071,23.667,63.089,23.61,63.089,23.588z M62.347,21.817c0,0.107-0.053,0.316-0.16,0.627c-0.109,0.313-0.16,0.543-0.16,0.693
			c-0.303,0.023-0.721,0.076-1.258,0.162c-0.988,0.494-1.84,0.74-2.547,0.74c-0.56,0-1.064-0.076-1.515-0.225
			c-0.086-0.021-0.285-0.135-0.596-0.34c-0.313-0.203-0.51-0.305-0.598-0.305c-0.064,0-0.264,0.115-0.594,0.338
			c-0.334,0.225-0.533,0.34-0.598,0.34h-0.676c-0.088,0-0.131-0.086-0.131-0.26c0-0.064,0.016-0.154,0.049-0.273
			c0.031-0.119,0.1-0.252,0.211-0.402c0.342-1.375,0.514-2.602,0.514-3.674c0-1.076-0.076-1.893-0.225-2.451
			c0-0.041-0.096-0.334-0.289-0.869l-0.26-0.678c0-0.043,0.086-0.295,0.26-0.758c0.17-0.463,0.266-0.758,0.289-0.889
			c0.148-0.707,0.225-1.449,0.225-2.223c0-1.053-0.172-2.277-0.514-3.674l-0.129-0.162c-0.088-0.084-0.131-0.17-0.131-0.258V6.956
			h0.902c0.064,0,0.236,0.113,0.516,0.34s0.463,0.336,0.549,0.336c0.064,0,0.305-0.109,0.727-0.336
			c0.418-0.227,0.67-0.34,0.758-0.34c0.063,0,0.158,0.021,0.289,0.064c0.129,0.045,0.227,0.064,0.289,0.064
			c-0.301,0.387-0.59,1.482-0.869,3.287v2.193c0.129,0.73,0.268,1.363,0.42,1.902c0.018,0.086,0.102,0.24,0.24,0.467
			c0.141,0.227,0.209,0.381,0.209,0.469c0,0.063-0.068,0.203-0.209,0.418c-0.139,0.215-0.223,0.354-0.24,0.42
			c-0.281,0.838-0.42,1.396-0.42,1.676v2.707c0,0.236,0.215,0.547,0.643,0.936c0.43,0.387,0.773,0.592,1.031,0.611
			c0.107,0.021,0.398,0.033,0.871,0.033c1.055,0,1.977-0.42,2.773-1.258C62.228,21.225,62.347,21.516,62.347,21.817z"/>
		<path fill="#FFFFFF" d="M77.175,19.284c0,1.908-0.57,3.35-1.711,4.326c-1.137,0.975-2.674,1.461-4.605,1.461
			c-1.055,0-2.012-0.094-2.871-0.281c-0.172-0.043-0.586-0.203-1.24-0.486s-1.039-0.424-1.145-0.424
			c-0.193,0-0.461,0.139-0.807,0.418c-0.342,0.279-0.525,0.42-0.547,0.42c-0.215-0.945-0.324-1.342-0.324-1.193
			c0-0.602,0.281-1.213,0.84-1.836c-0.086-0.279-0.129-0.602-0.129-0.969c0-0.902,0.225-1.676,0.678-2.318
			c0.063,0.041,0.139,0.084,0.225,0.127c0.236,0.83,0.891,1.586,1.967,2.266c1.072,0.682,2.072,1.023,2.998,1.023
			c0.559,0,1.059-0.166,1.5-0.496c0.438-0.332,0.658-0.762,0.658-1.295c0-0.576-0.236-1.055-0.707-1.438
			c-0.475-0.385-1.002-0.576-1.58-0.576c-0.281,0-0.775,0.129-1.482,0.389c0-0.303-0.064-0.723-0.195-1.26
			c-0.129-0.258-0.439-0.559-0.934-0.9l-1.225-0.838c-1.096-0.969-1.645-2.172-1.645-3.613c0-1.76,0.521-3.146,1.564-4.158
			c1.039-1.008,2.441-1.514,4.205-1.514c0.646,0,1.461,0.193,2.449,0.582c0.988,0.385,1.516,0.578,1.58,0.578
			c-0.174,0,0.193-0.129,1.096-0.387c0.086,0.215,0.131,0.539,0.131,0.969c0,0.363-0.033,0.623-0.098,0.773
			c-0.193,0.279-0.377,0.559-0.547,0.838c-0.174,0.859-0.271,1.309-0.293,1.354c-0.129,0.365-0.396,0.74-0.805,1.129h-0.355
			c-0.107-0.646-0.445-1.221-1.014-1.727c-0.57-0.504-1.178-0.756-1.82-0.756c-0.518,0-0.959,0.16-1.324,0.482
			s-0.547,0.742-0.547,1.256c0,0.432,0.188,0.807,0.563,1.131c0.377,0.32,0.791,0.482,1.244,0.482c0.342,0,0.707-0.086,1.094-0.258
			h0.355c0.021,0.279,0.148,0.666,0.387,1.156c1.203,0.816,1.967,1.352,2.289,1.609c0.902,0.748,1.471,1.434,1.705,2.057
			C77.034,18.139,77.175,18.77,77.175,19.284z M76.595,19.446c0-1.865-1.291-3.504-3.869-4.918
			c-0.129-0.064-0.338-0.268-0.629-0.611c-0.289-0.342-0.498-0.514-0.627-0.514c-0.064,0-0.129,0.016-0.193,0.049
			S71.147,13.5,71.081,13.5c-0.688,0-1.283-0.221-1.787-0.662c-0.506-0.439-0.76-1.004-0.76-1.691c0-0.668,0.229-1.209,0.678-1.629
			c0.451-0.418,1.02-0.627,1.711-0.627c0.943,0,1.691,0.279,2.238,0.838c0.549,0.559,0.949,0.924,1.207,1.096
			c0.023-0.365,0.1-0.893,0.227-1.58c0.045-0.086,0.18-0.279,0.404-0.578c0.225-0.303,0.338-0.473,0.338-0.518
			c0-0.107-0.074-0.238-0.225-0.387C74.958,7.827,74.8,7.86,74.628,7.86c-0.127,0-0.66-0.195-1.596-0.582S71.319,6.7,70.694,6.7
			c-1.482,0-2.723,0.459-3.721,1.385c-1.002,0.924-1.5,2.127-1.5,3.609c0,1.418,0.676,2.656,2.031,3.709
			c0.473,0.258,1.063,0.709,1.771,1.352c0.064,0.172,0.182,0.387,0.355,0.645c1.848-0.17,3.01,0.441,3.48,1.838
			c0.023,0.063,0.035,0.344,0.035,0.838c0,1.57-0.863,2.355-2.582,2.355c-1.59,0-3.309-0.861-5.156-2.58l-0.127,1.096
			c0.02,0.064,0.088,0.199,0.209,0.402c0.115,0.205,0.176,0.34,0.176,0.402c0,0.088-0.176,0.328-0.531,0.727
			c-0.355,0.396-0.533,0.641-0.533,0.725c0,0.109,0.045,0.203,0.129,0.291c0.387-0.129,0.666-0.193,0.84-0.193
			c0.277,0,0.988,0.215,2.127,0.645c1.137,0.43,2.137,0.645,2.996,0.645c1.461,0,2.719-0.344,3.773-1.029
			c1.225-0.77,1.879-1.842,1.965-3.213c0-0.088,0.027-0.236,0.082-0.451C76.567,19.68,76.595,19.53,76.595,19.446z M76.11,19.299
			c0,0.947-0.225,1.828-0.678,2.646c-0.492,0.9-1.17,1.459-2.029,1.676c-0.107,0.045-0.236,0.119-0.385,0.227
			c-1.119,0.213-1.895,0.32-2.324,0.32c-0.752,0-1.482-0.129-2.189-0.387l-2.031-0.838c-0.107-0.043-0.506-0.064-1.191-0.064
			c0.127-0.215,0.406-0.482,0.838-0.805c0.018-0.043,0.029-0.129,0.029-0.258c0,0.107-0.096-0.193-0.289-0.904
			c1.205,0.957,2.148,1.484,2.836,1.59l0.387,0.25h2.645c0.191,0,0.52-0.219,0.982-0.654c0.463-0.438,0.727-0.75,0.791-0.941
			c0.148-0.488,0.225-0.807,0.225-0.957c0-0.826-0.303-1.576-0.902-2.248c-0.602-0.668-1.322-1.004-2.16-1.004
			c-0.086,0-0.215,0.018-0.387,0.049c-0.172,0.033-0.301,0.049-0.389,0.049c-0.17-0.473-0.752-1.053-1.74-1.74
			s-1.643-1.43-1.965-2.225c-0.086-0.215-0.129-0.664-0.129-1.354c0-2.342,1.031-3.816,3.094-4.416
			c0.064-0.021,0.551-0.033,1.451-0.033c0.902,0,1.385,0.012,1.449,0.033c0.561,0.301,1.43,0.643,2.609,1.031
			c-0.127,0.15-0.273,0.354-0.447,0.611c-0.023,0.217-0.066,0.518-0.131,0.904c-0.365-0.301-0.76-0.613-1.191-0.936
			c-0.109-0.086-0.299-0.172-0.58-0.256c-0.107-0.023-0.34-0.082-0.693-0.18c-0.354-0.096-0.607-0.145-0.756-0.145
			c-0.088,0-0.217,0.037-0.389,0.113S70.181,8.579,70.116,8.6c-0.623,0.086-1.125,0.375-1.5,0.871
			c-0.377,0.494-0.563,1.051-0.563,1.676c0,0.494,0.154,0.977,0.465,1.449c0.313,0.475,0.693,0.797,1.145,0.969
			c0.064,0.043,0.162,0.117,0.291,0.225c0.193,0,0.467,0.021,0.822,0.064c0.355,0.045,0.629,0.064,0.822,0.064
			c0.449,0.602,1.086,1.117,1.902,1.547c1.072,0.559,1.836,1.322,2.287,2.289C76.005,18.229,76.11,18.743,76.11,19.299z"/>
		<path fill="#FFFFFF" d="M90.905,15.143c-0.15,0.15-0.342,0.355-0.58,0.613c-0.258,0.344-0.385,0.689-0.385,1.031v3.643
			c0,0.58-0.195,1.27-0.58,2.063c-0.389,0.795-0.807,1.332-1.258,1.613c-1.074,0.643-2.473,0.965-4.191,0.965
			c-3.545,0-5.48-1.32-5.801-3.965c-0.021-0.107-0.072-0.365-0.145-0.771c-0.076-0.41-0.115-0.666-0.115-0.775v-3.352
			c0-0.258-0.258-0.537-0.773-0.838c0.021-0.023,0.174-0.205,0.451-0.547c0.215-0.281,0.322-0.465,0.322-0.549v-3.031
			c0.021-0.148,0.109-0.58,0.26-1.289c0.279-1.418,0.967-2.514,2.063-3.287c1.033-0.709,2.289-1.064,3.771-1.064
			c0.172,0,1.139,0.174,2.9,0.516c0.666,0.131,1.348,0.705,2.047,1.725c0.699,1.021,1.049,1.887,1.049,2.596v3.287
			c0,0.193,0.113,0.457,0.336,0.791C90.505,14.848,90.714,15.057,90.905,15.143z M89.843,15.208c0-0.086-0.064-0.227-0.193-0.418
			c-0.129-0.193-0.193-0.322-0.193-0.389v-3.094c0-0.578-0.172-1.273-0.518-2.078c-0.342-0.807-0.73-1.393-1.158-1.758
			c-0.99-0.859-2.268-1.289-3.836-1.289c-1.012,0-1.936,0.217-2.773,0.645c-0.924,0.473-1.588,1.129-2,1.967
			c-0.428,0.924-0.643,1.578-0.643,1.965v3.225c0,0.086-0.08,0.297-0.24,0.629c-0.162,0.334-0.242,0.531-0.242,0.596
			c0,0.086,0.08,0.291,0.242,0.613c0.16,0.32,0.24,0.514,0.24,0.58v3.934c0,0.234,0.15,0.752,0.453,1.547
			c0.643,1.697,2.297,2.545,4.963,2.545c1.309,0,2.309-0.139,2.998-0.418c0.881-0.365,1.547-1.074,1.996-2.127
			c0.346-0.795,0.518-1.592,0.518-2.387v-3.48c0-0.086,0.064-0.221,0.193-0.402C89.778,15.428,89.843,15.293,89.843,15.208z
			 M89.36,15.241c0,0.064-0.082,0.252-0.24,0.563c-0.166,0.313-0.244,0.514-0.244,0.598v3.578c0,0.838-0.238,1.666-0.709,2.482
			c-0.217,0.365-0.57,0.688-1.063,0.967c-0.238,0.129-0.625,0.225-1.164,0.289c-0.688,0.064-1.094,0.117-1.223,0.162
			c-0.408,0.107-0.666,0.16-0.773,0.16c0.127,0-0.162-0.053-0.871-0.16c-0.299-0.045-0.742-0.098-1.32-0.162
			c-0.816-0.107-1.473-0.537-1.965-1.287c-0.475-0.689-0.711-1.463-0.711-2.324c0-0.148,0-0.301,0-0.449
			c0-0.021-0.027-0.068-0.08-0.145c-0.055-0.076-0.082-0.156-0.082-0.242v-3.129c0-0.084-0.063-0.234-0.191-0.449
			c-0.131-0.215-0.195-0.365-0.195-0.451c0-0.064,0.064-0.219,0.195-0.469c0.129-0.246,0.191-0.414,0.191-0.498v-2.643
			c0.021-0.066,0.074-0.172,0.162-0.324c-0.023-1.502,0.43-2.664,1.354-3.48c0.857-0.773,2.051-1.16,3.578-1.16
			c1.031,0,1.943,0.225,2.738,0.676c0.904,0.494,1.494,1.203,1.775,2.129c0.234,0.773,0.354,1.225,0.354,1.354v3.191
			c0,0.063,0.078,0.27,0.244,0.613C89.278,14.971,89.36,15.176,89.36,15.241z M86.587,18.141c0-1.117-0.045-1.824-0.129-2.127
			c-0.021-0.064-0.088-0.193-0.193-0.387c-0.107-0.193-0.16-0.334-0.16-0.42s0.053-0.229,0.16-0.436
			c0.105-0.203,0.172-0.326,0.193-0.371c0.084-0.277,0.129-0.934,0.129-1.965c0-1.119-0.107-1.945-0.322-2.482
			c-0.385-0.967-1.172-1.451-2.354-1.451c-0.365,0-0.785,0.109-1.256,0.322c-0.561,0.258-0.871,0.539-0.936,0.84
			c-0.021,0.064-0.082,0.193-0.176,0.385c-0.098,0.195-0.146,0.336-0.146,0.42v3.9c0,0.088,0.064,0.227,0.193,0.42
			c0.129,0.191,0.193,0.332,0.193,0.418c0,0.107-0.064,0.258-0.193,0.453c-0.129,0.191-0.193,0.322-0.193,0.385v4.289
			c0,0.406,0.365,0.891,1.094,1.449c0.152,0.107,0.441,0.238,0.873,0.387c0.041,0.021,0.234,0.033,0.58,0.033
			C85.706,22.204,86.587,20.848,86.587,18.141z M86.007,18.077c0,1.205-0.066,1.998-0.195,2.387c-0.277,0.836-0.912,1.256-1.9,1.256
			c-0.99,0-1.611-0.451-1.869-1.355C81.935,20,81.88,19.292,81.88,18.237c0-1.137,0.045-1.912,0.129-2.318
			c0-0.045,0.059-0.15,0.178-0.324c0.119-0.172,0.178-0.301,0.178-0.387c0-0.064-0.074-0.229-0.227-0.5
			c-0.15-0.266-0.225-0.467-0.225-0.596c-0.021-0.408-0.033-0.965-0.033-1.676c0-1.246,0.088-2.064,0.258-2.449
			c0.301-0.688,1.021-1.033,2.16-1.033c0.861,0,1.396,0.518,1.613,1.547c0.064,0.303,0.096,0.959,0.096,1.969
			c0,1.268-0.066,2.025-0.195,2.27c-0.129,0.25-0.189,0.416-0.189,0.502s0.057,0.225,0.176,0.42
			c0.117,0.191,0.178,0.344,0.178,0.451C85.995,16.497,86.007,17.153,86.007,18.077z M85.522,18.077
			c0-0.773-0.021-1.256-0.064-1.451c-0.107-0.492-0.408-0.977-0.9-1.449c0.643-0.387,0.965-1.268,0.965-2.645
			c0-1.996-0.504-2.996-1.514-2.996c-0.752,0-1.227,0.365-1.418,1.094c-0.088,0.303-0.129,0.904-0.129,1.807
			c0,0.795,0.02,1.311,0.064,1.547c0.084,0.494,0.354,0.914,0.807,1.258c-0.432,0.301-0.701,0.764-0.807,1.385
			c-0.045,0.238-0.064,0.742-0.064,1.516c0,0.924,0.02,1.494,0.064,1.709c0.172,0.859,0.666,1.289,1.482,1.289
			C85.019,21.139,85.522,20.12,85.522,18.077z"/>
		<path fill="#FFFFFF" d="M106.216,15.434c-0.816,0.857-1.225,2.203-1.225,4.029c0,1.977,0.408,3.547,1.225,4.705
			c-0.105,0.172-0.361,0.365-0.771,0.58s-0.721,0.322-0.936,0.322c-0.129,0-0.393-0.059-0.789-0.176
			c-0.398-0.121-0.66-0.18-0.789-0.18c-0.064,0-0.221,0.059-0.469,0.18c-0.248,0.117-0.414,0.176-0.498,0.176h-0.613
			c-0.432,0-0.945-0.268-1.549-0.807c0.775-0.73,1.162-1.525,1.162-2.385c0-0.063-0.023-0.145-0.064-0.242
			c-0.045-0.096-0.055-0.176-0.033-0.24c0.045-0.711-0.408-1.656-1.354-2.838l-2.096-2.674c-0.107,0-0.203,0.053-0.289,0.16
			c-0.26,0.859-0.387,1.924-0.387,3.191c0,2.084,0.416,3.76,1.256,5.027c-0.148,0.193-0.434,0.377-0.855,0.549
			c-0.416,0.174-0.766,0.258-1.045,0.258c-0.107,0-0.34-0.059-0.693-0.176c-0.354-0.121-0.598-0.18-0.727-0.18
			s-0.385,0.059-0.771,0.18c-0.389,0.117-0.646,0.176-0.775,0.176c-0.213,0-0.533-0.096-0.951-0.289
			c-0.418-0.195-0.693-0.367-0.822-0.518c0.838-1.18,1.26-2.781,1.26-4.801c0-1.697-0.422-3.041-1.26-4.029
			c0.838-0.775,1.26-2.119,1.26-4.029c0-2.107-0.422-3.6-1.26-4.482c0.367-0.559,0.99-0.836,1.871-0.836
			c0.127,0,0.375,0.047,0.742,0.145c0.365,0.096,0.611,0.145,0.74,0.145s0.375-0.049,0.74-0.145
			c0.365-0.098,0.615-0.145,0.744-0.145c0.492,0,1.082,0.203,1.77,0.611c-0.043,0.043-0.16,0.248-0.354,0.611
			c-0.063,0.15-0.096,0.42-0.096,0.807c0,0.775,0.354,1.666,1.063,2.676c0.174,0.258,0.797,1.021,1.871,2.289
			c0.234-0.195,0.375-0.461,0.418-0.807v-0.998c0-1.461-0.344-2.816-1.031-4.063c-0.088-0.15-0.129-0.322-0.129-0.516
			c0.451-0.408,1.064-0.611,1.836-0.611c0.26,0,0.719,0.096,1.389,0.289c0.129,0,0.365-0.049,0.707-0.145
			c0.344-0.098,0.582-0.145,0.709-0.145c0.668,0,1.258,0.203,1.773,0.611c-0.215,0.451-0.494,1.16-0.84,2.127
			c-0.189,0.861-0.289,1.742-0.289,2.643C104.991,13.252,105.399,14.575,106.216,15.434z M105.38,24.073
			c-0.473-1.246-0.754-2.211-0.838-2.896c-0.025-0.17-0.033-0.762-0.033-1.768c0-1.33,0.064-2.199,0.193-2.607l0.578-1.383
			c0-0.064-0.117-0.447-0.354-1.145c-0.236-0.695-0.377-1.109-0.418-1.238c0-0.365-0.016-0.912-0.049-1.641
			c-0.031-0.729-0.049-1.039-0.049-0.932c0-0.367,0.322-1.557,0.969-3.574c-0.346-0.213-0.635-0.32-0.871-0.32
			c-0.256,0-0.57,0.113-0.936,0.34c-0.365,0.223-0.566,0.338-0.611,0.338c-0.064,0-0.322-0.115-0.773-0.338
			c-0.453-0.227-0.719-0.34-0.807-0.34c-0.213,0.064-0.516,0.205-0.9,0.42c0.643,1.289,0.965,2.697,0.965,4.221
			c0,0.453-0.053,1.031-0.16,1.742c-0.15,0.881-0.334,1.375-0.547,1.482c-0.818-1.01-1.635-2.031-2.453-3.063
			c-0.965-1.354-1.449-2.504-1.449-3.449c0-0.107,0.027-0.291,0.08-0.549c0.055-0.258,0.084-0.451,0.084-0.578
			c-0.434-0.152-0.701-0.227-0.807-0.227c-0.064,0-0.307,0.113-0.727,0.34c-0.418,0.223-0.672,0.338-0.758,0.338
			c-0.064,0-0.307-0.115-0.725-0.338c-0.42-0.227-0.674-0.34-0.758-0.34c-0.174,0-0.475,0.074-0.904,0.227v0.383
			c0,0.066,0.07,0.244,0.209,0.533C92.673,8,92.753,8.178,92.776,8.241c0.129,0.451,0.27,1.129,0.418,2.027v1.191
			c0,1.029-0.107,1.965-0.322,2.801c-0.023,0.105-0.119,0.311-0.291,0.611c-0.17,0.299-0.258,0.471-0.258,0.514
			c0,0.021,0.119,0.268,0.357,0.74c0.256,0.965,0.406,1.555,0.449,1.77c0.043,0.213,0.064,0.686,0.064,1.416
			c0,2.145-0.322,3.723-0.967,4.73c0.43,0.299,0.73,0.449,0.902,0.449c0.344,0,0.711-0.102,1.096-0.309
			c0.236-0.223,0.398-0.336,0.484-0.336s0.328,0.107,0.725,0.322c0.398,0.215,0.639,0.322,0.727,0.322
			c0.342,0,0.666-0.105,0.967-0.322v-0.32c-0.645-1.309-0.967-2.84-0.967-4.6c0-1.908,0.26-3.461,0.781-4.662
			c0.041-0.043,0.117-0.064,0.227-0.064c0.684,0.883,1.723,2.209,3.115,3.977c0.775,0.982,1.162,2.082,1.162,3.299
			c0,0.514-0.113,1.061-0.338,1.637s-0.338,0.832-0.338,0.77c0,0.191,0.201,0.287,0.611,0.287c0.088,0,0.354-0.107,0.807-0.322
			c0.451-0.215,0.709-0.322,0.773-0.322c0.924,0.43,1.418,0.645,1.482,0.645C104.788,24.491,105.099,24.352,105.38,24.073z
			 M104.8,15.434c0,0.021-0.088,0.186-0.258,0.498c-0.174,0.313-0.271,0.531-0.289,0.66c-0.217,1.033-0.322,1.979-0.322,2.84
			c0,0.986,0.084,1.729,0.256,2.223c-0.043,0.408,0.148,1.084,0.58,2.029v0.355h-0.678c-0.086,0-0.275-0.113-0.564-0.338
			c-0.287-0.227-0.477-0.34-0.563-0.34c-0.322,0-0.709,0.215-1.16,0.645h-0.451c0.107-0.105,0.191-0.215,0.258-0.322
			c0.063-0.191,0.15-0.482,0.258-0.869c0.041-0.084,0.064-0.43,0.064-1.031c0-0.967-0.227-1.859-0.678-2.676
			c-0.301-0.557-0.914-1.387-1.836-2.482c-1.033-1.205-1.721-2.063-2.064-2.58h-0.549l-0.352,0.355
			c-0.215,0.604-0.398,1.268-0.551,1.998c-0.086,0.41-0.129,1.367-0.129,2.869c0,1.377,0.043,2.27,0.129,2.678
			c0.152,0.471,0.367,1.158,0.645,2.061h-0.709c-0.064,0.023-0.246-0.08-0.547-0.305c-0.301-0.227-0.494-0.34-0.58-0.34
			c-0.193,0-0.58,0.225-1.16,0.678l-0.742-0.129c0.58-1.031,0.871-2.461,0.871-4.287c0-1.225-0.043-2.041-0.129-2.449
			c-0.021-0.129-0.139-0.451-0.355-0.967c-0.193-0.451-0.289-0.711-0.289-0.773c0,0.086,0.117-0.172,0.354-0.775
			c0.279-0.709,0.42-1.697,0.42-2.965c0-1.01-0.043-1.838-0.129-2.482c-0.086-0.258-0.184-0.645-0.291-1.158
			c-0.236-0.238-0.354-0.473-0.354-0.711l0.129-0.291c0.193,0.023,0.494,0.098,0.902,0.227c0.535,0.367,0.795,0.549,0.773,0.549
			c0.086,0,0.23-0.088,0.436-0.258c0.205-0.172,0.326-0.271,0.371-0.291c0.172-0.043,0.439-0.119,0.805-0.227
			c0,0.43,0.055,1.086,0.162,1.967c0.148,0.623,0.365,1.162,0.645,1.611c0.623,0.797,1.256,1.592,1.9,2.387
			c1.031,1.27,1.654,1.9,1.871,1.9c0.193,0,0.332-0.053,0.418-0.16c0-0.193,0.096-0.516,0.291-0.967c0-0.15,0.01-0.398,0.033-0.742
			c0.063-0.193,0.137-0.418,0.225-0.676c0.041-0.15,0.064-0.549,0.064-1.195v-0.934c-0.172-0.922-0.27-1.426-0.289-1.516
			c-0.152-0.578-0.324-1.064-0.518-1.449l0.064-0.227c0.172,0,0.441,0.045,0.807,0.129c0.064,0.023,0.219,0.135,0.467,0.34
			c0.248,0.203,0.414,0.307,0.5,0.307c0.086-0.043,0.322-0.227,0.709-0.549c0.234-0.043,0.568-0.119,0.998-0.227
			c0.064,0.064,0.098,0.141,0.098,0.227c0,0.043-0.01,0.086-0.033,0.129c-0.256,0.408-0.416,0.785-0.48,1.129
			c-0.217,1.289-0.322,2.299-0.322,3.029c0,0.967,0.084,1.645,0.256,2.029c-0.023,0.174,0,0.398,0.066,0.678
			C104.593,14.981,104.776,15.37,104.8,15.434z"/>
		<path fill="#FFFFFF" d="M130.128,13.155l-0.928,1.395v4.41c0,0.773-0.246,1.689-0.734,2.746c-0.543,1.135-1.109,1.871-1.703,2.205
			c-1.393,0.773-3.133,1.16-5.221,1.16c-0.697,0-1.355-0.039-1.973-0.123c-0.104-0.027-0.434-0.129-0.986-0.307
			c-0.555-0.178-0.896-0.268-1.025-0.268s-0.439,0.078-0.928,0.234c-0.49,0.152-0.813,0.23-0.967,0.23
			c-0.363,0-0.809-0.096-1.336-0.291c-0.529-0.191-0.91-0.416-1.143-0.676c1.006-1.289,1.51-3.223,1.51-5.803
			c0-1.906-0.504-3.506-1.51-4.795c1.006-1.033,1.51-2.617,1.51-4.76c0-2.576-0.504-4.395-1.51-5.453
			c0.363-0.672,1.176-1.006,2.438-1.006c0.545,0,0.98,0.053,1.316,0.154l0.619,0.313c0.104,0,0.398-0.092,0.889-0.273
			c0.594-0.23,0.928-0.359,1.006-0.385c0.672-0.104,1.355-0.156,2.051-0.156c0.979,0,2.115,0.168,3.402,0.502
			c0.104,0.078,0.26,0.18,0.465,0.313c0.9,0.051,1.791,0.771,2.67,2.164c0.771,1.238,1.16,2.334,1.16,3.289v4.061
			C129.2,12.167,129.509,12.538,130.128,13.155z M128.968,13.274c0-0.104-0.07-0.277-0.211-0.523
			c-0.145-0.244-0.221-0.418-0.234-0.523c-0.014-0.102-0.018-0.396-0.018-0.889V8.09c0-0.953-0.344-1.908-1.027-2.863
			c-0.684-0.953-1.463-1.637-2.34-2.051c-1.109-0.516-2.348-0.773-3.713-0.773c-0.695,0-1.74,0.207-3.131,0.619
			c-0.699,0.207-0.957,0.311-0.775,0.311c-0.131,0-0.453-0.117-0.967-0.348c-0.518-0.232-0.826-0.348-0.93-0.348
			c-0.463,0-0.889,0.127-1.275,0.385c0.695,2.477,1.043,4.32,1.043,5.531c0,0.93-0.09,1.807-0.271,2.631
			c-0.023,0.154-0.158,0.518-0.404,1.084c-0.244,0.566-0.367,0.887-0.367,0.967c0,0.131,0.051,0.283,0.154,0.463
			c0.102,0.182,0.154,0.285,0.154,0.311c0.49,1.521,0.734,2.889,0.734,4.1c0,1.986-0.387,3.828-1.158,5.531
			c0.051,0.104,0.258,0.221,0.617,0.348c0.361,0.131,0.617,0.195,0.773,0.195c0.129,0,0.457-0.117,0.986-0.35
			c0.529-0.23,0.834-0.348,0.91-0.348c0.18,0,0.695,0.154,1.547,0.465c0.852,0.309,1.365,0.463,1.547,0.463h1.975
			c1.416,0,2.693-0.451,3.828-1.354c1.236-0.98,1.869-2.152,1.896-3.52c0.129-0.207,0.193-0.361,0.193-0.465v-3.83
			c0-0.617,0.09-1.107,0.27-1.469C128.903,13.543,128.968,13.377,128.968,13.274z M128.39,13.274c0,0.104-0.078,0.258-0.234,0.463
			c-0.156,0.207-0.232,0.361-0.232,0.465v4.41c0-0.232-0.129,0.451-0.387,2.049c-0.18,1.135-1.018,1.986-2.514,2.555
			c-1.082,0.41-2.283,0.617-3.598,0.617c-0.746,0-1.521-0.09-2.318-0.271c-0.133-0.025-0.408-0.141-0.834-0.346
			c-0.426-0.207-0.678-0.311-0.754-0.311c-0.439,0-0.889,0.219-1.352,0.656h-1.24c0.176-0.465,0.408-1.43,0.707-2.9
			c0.076-0.207,0.162-0.516,0.26-0.928c0.025-0.256,0.039-0.852,0.039-1.779c0-1.084-0.125-2.166-0.373-3.25
			c-0.023-0.051-0.148-0.295-0.371-0.734c-0.176-0.359-0.262-0.592-0.262-0.695c0-0.078,0.1-0.322,0.297-0.736l0.336-0.658
			c0.051-0.359,0.174-0.85,0.373-1.469c0-0.051,0-0.348,0-0.891c0-0.541,0-1.354,0-2.436c-0.199-1.031-0.535-2.283-1.006-3.752
			h1.469l1.047,0.695l0.852-0.426c1.002-0.359,1.686-0.566,2.047-0.617h1.201c1.184,0,2.307,0.23,3.363,0.695
			c1.289,0.568,2.076,1.34,2.361,2.322c0.074,0.127,0.166,0.283,0.27,0.463c0.023,0.102,0.098,0.348,0.215,0.734
			c0.115,0.387,0.172,0.646,0.172,0.775v4.41c0,0.076,0.076,0.217,0.232,0.422C128.312,13.016,128.39,13.17,128.39,13.274z
			 M124.946,16.987c0-1.496-0.016-2.424-0.041-2.785c-0.023-0.104-0.102-0.264-0.23-0.484c-0.129-0.217-0.193-0.367-0.193-0.443
			c0-0.027,0.143-0.322,0.424-0.889c0.025-0.285,0.041-1.072,0.041-2.361c0-1.186-0.041-1.986-0.119-2.398
			c-0.203-1.029-0.721-1.754-1.545-2.166c-0.363-0.182-0.711-0.27-1.047-0.27c-1.725,0-2.77,0.463-3.129,1.393
			c-0.26,0.643-0.389,1.135-0.389,1.469c0,0.078,0.039,0.168,0.115,0.27c0.078,0.104,0.115,0.193,0.115,0.271v3.635
			c0,0.26,0.158,0.607,0.465,1.047c-0.285,0.463-0.441,1.08-0.465,1.857c0.025-1.111,0.039-0.439,0.039,2.01
			c0,1.986,0.051,3.133,0.154,3.443c0.307,0.93,1.191,1.393,2.652,1.393c0.896,0,1.535-0.129,1.92-0.387
			c0.668-0.465,1.064-1.174,1.191-2.129C124.931,19.254,124.946,18.43,124.946,16.987z M124.481,15.131
			c0-0.723-0.02-0.387-0.059,1.004c-0.039,1.393-0.059,2.477-0.059,3.25c-0.361,1.418-1.211,2.129-2.553,2.129
			c-1.236,0-1.998-0.492-2.283-1.471c-0.076-0.285-0.115-1.252-0.115-2.902c0-1.469,0.012-2.334,0.039-2.592
			c0-0.129,0.09-0.348,0.271-0.658c0.18-0.309,0.271-0.514,0.271-0.617c0-0.078-0.072-0.213-0.213-0.408
			c-0.143-0.191-0.213-0.314-0.213-0.365c-0.104-0.518-0.156-1.418-0.156-2.709c0-1.521,0.053-2.424,0.156-2.707
			c0.281-0.824,1.029-1.238,2.242-1.238s1.998,0.451,2.359,1.354c0.207,0.518,0.311,1.434,0.311,2.746v0.195
			c-0.027,0.18-0.041,0.348-0.041,0.502v0.93c0,0.18-0.09,0.482-0.27,0.906c-0.18,0.426-0.271,0.691-0.271,0.795
			c0,0.129,0.1,0.439,0.291,0.928C124.384,14.692,124.481,15,124.481,15.131z M123.669,19.385v-4.953
			c0-0.078-0.141-0.283-0.426-0.617c-0.283-0.336-0.453-0.541-0.504-0.619c0.514-0.18,0.826-0.645,0.93-1.393v-1.779
			c0-1.006-0.039-1.688-0.119-2.049c-0.207-1.031-0.754-1.549-1.641-1.549s-1.447,0.387-1.682,1.16
			c-0.104,0.336-0.156,1.072-0.156,2.205c0,1.135,0.014,1.754,0.041,1.857c0.076,0.748,0.387,1.25,0.922,1.506
			c0.08,0.029,0.119,0.092,0.119,0.195c-0.516,0.104-0.838,0.619-0.967,1.547c-0.051,0.361-0.076,1.109-0.076,2.244
			c0,0.053-0.014,0.221-0.039,0.502v0.658c0,1.678,0.582,2.516,1.74,2.516c0.412,0,0.826-0.137,1.238-0.408
			C123.46,20.137,123.669,19.797,123.669,19.385z"/>
		<path fill="#FFFFFF" d="M147.374,24.073c-0.174,0.191-0.451,0.408-0.84,0.643c-0.387,0.238-0.699,0.355-0.934,0.355
			c-0.279,0-0.762-0.031-1.451-0.096c-0.514-0.172-0.721-0.26-0.611-0.26c-0.129,0-0.398,0.059-0.807,0.18
			c-0.408,0.117-0.666,0.176-0.773,0.176c-0.258,0-0.604-0.084-1.031-0.258c-0.432-0.172-0.645-0.365-0.645-0.58
			c0,0.301,0.107,0.098,0.322-0.611c0.215-0.711,0.322-1.15,0.322-1.322c0-0.945-0.207-1.74-0.613-2.387
			c-0.494-0.771-1.184-1.16-2.063-1.16c-0.924,0-1.623,0.377-2.096,1.129c-0.385,0.623-0.58,1.418-0.58,2.385
			c0,0.58,0.227,1.215,0.676,1.902c-0.43,0.602-1.01,0.902-1.738,0.902c-0.152,0-0.414-0.059-0.791-0.176
			c-0.377-0.121-0.639-0.18-0.791-0.18c-0.105,0-0.354,0.059-0.738,0.18c-0.389,0.117-0.656,0.176-0.807,0.176
			c-1.055,0-1.805-0.332-2.258-0.998c2.514-2.473,3.654-5.092,3.418-7.865c0-0.043-0.074-0.227-0.227-0.549v-0.354
			c0.945-0.389,1.73-1.355,2.354-2.902c0.537-1.332,0.807-2.6,0.807-3.803c0-0.646-0.225-1.203-0.678-1.678
			c0.129-0.623,0.818-0.934,2.064-0.934c0.084,0,0.309,0.08,0.676,0.242c0.363,0.16,0.592,0.24,0.676,0.24
			c0.064,0,0.27-0.059,0.613-0.176s0.58-0.189,0.709-0.209l0.742-0.098c0.129,0,0.438,0.105,0.936,0.322
			c0.148,0.107,0.266,0.236,0.354,0.387c0.021,0.043,0.064,0.119,0.129,0.225c-0.365,0.324-0.58,0.666-0.646,1.031
			c-0.018,0.023-0.029,0.281-0.029,0.773c0,1.227,0.246,2.449,0.74,3.676c0.623,1.525,1.43,2.537,2.42,3.031
			c-0.24,0.643-0.357,1.158-0.357,1.547c0,1.117,0.365,2.395,1.095,3.836C145.653,22.256,146.469,23.342,147.374,24.073z
			 M146.309,23.944c-2.041-2.23-3.06-4.611-3.06-7.143c0-0.344,0.02-0.676,0.063-0.998c-0.893-0.793-1.598-1.889-2.119-3.281
			c-0.5-1.289-0.75-2.563-0.75-3.83c0-0.816,0.129-1.416,0.387-1.803c-0.322-0.213-0.59-0.32-0.805-0.32
			c-0.365,0-0.754,0.107-1.16,0.322l-0.646,0.355c-0.148,0-0.279-0.088-0.385-0.258c-0.475-0.279-0.904-0.42-1.289-0.42
			c-0.174,0-0.463,0.074-0.871,0.227v0.32c0.258,0.301,0.387,0.859,0.387,1.672c0,0.859-0.197,1.91-0.596,3.154
			c-0.398,1.242-0.855,2.178-1.369,2.799c-0.217,0.172-0.486,0.439-0.807,0.805c-0.086,0.215-0.119,0.506-0.098,0.869
			c0.021,0.494,0.021,0.803,0,0.934c-0.107,0.902-0.297,1.727-0.576,2.477c-0.531,1.438-1.34,2.842-2.422,4.217
			c0.258,0.299,0.623,0.449,1.096,0.449c0.172,0,0.49-0.107,0.951-0.322s0.703-0.322,0.725-0.322
			c0.926,0.43,1.432,0.645,1.516,0.645c0.279,0,0.58-0.105,0.904-0.322c-0.26-0.746-0.389-1.377-0.389-1.889
			c0-2.738,1.086-4.105,3.256-4.105c2.105,0,3.16,1.355,3.16,4.072c0,0.043-0.086,0.717-0.258,2.02
			c0.43,0.15,0.697,0.225,0.805,0.225c0.324,0,0.613-0.072,0.871-0.217c0.15-0.143,0.365-0.32,0.645-0.523
			c0.686,0.494,1.234,0.74,1.642,0.74c0.193,0,0.438-0.053,0.727-0.16S146.288,24.094,146.309,23.944z M145.633,24.006h-1.002
			c-0.02,0-0.181-0.105-0.482-0.322c-0.299-0.213-0.527-0.322-0.676-0.322c-0.152,0-0.354,0.113-0.613,0.34
			c-0.258,0.225-0.41,0.328-0.451,0.305h-0.773c0-0.064,0.039-0.166,0.113-0.305c0.074-0.143,0.111-0.242,0.111-0.307
			c0.023-0.15,0.033-0.559,0.033-1.225c0-0.709-0.01-1.129-0.033-1.258c-0.234-1.354-0.945-2.354-2.127-2.996
			c-0.215-0.021-0.504-0.066-0.869-0.129c-0.258-0.131-0.463-0.195-0.613-0.195c-0.387,0-0.785,0.076-1.193,0.227
			c-1.697,0.623-2.545,2.105-2.545,4.447c0,0.668,0.129,1.248,0.389,1.74h-0.807c-0.088,0.023-0.281-0.08-0.582-0.305
			c-0.301-0.227-0.482-0.34-0.549-0.34c-0.322,0-0.707,0.215-1.16,0.645h-0.934c1.891-2.686,2.836-5.016,2.836-6.994
			c0-0.344-0.033-0.678-0.098-0.998c0.859-0.838,1.57-1.988,2.129-3.451c0.537-1.395,0.807-2.719,0.807-3.963
			c0-0.58-0.066-1.096-0.193-1.549c0.258,0,0.631,0.076,1.125,0.227c0.43,0.303,0.678,0.451,0.742,0.451
			c0.129,0,0.365-0.148,0.711-0.451c0.258-0.043,0.631-0.119,1.129-0.227c0.043,0.195-0.012,0.537-0.162,1.033
			c-0.021,0.086-0.012,0.236,0.033,0.451l0.129,0.58c0.148,2.771,1.072,5.039,2.771,6.801c-0.064,0.301-0.098,0.613-0.098,0.936
			c0,1.139,0.301,2.396,0.904,3.771C144.169,21.87,144.838,22.997,145.633,24.006z M140.089,15.981c0-1.311-0.463-2.76-1.385-4.352
			c-0.109-0.172-0.26-0.258-0.453-0.258c-0.303,0-0.688,0.623-1.16,1.869c-0.365,0.988-0.58,1.656-0.645,1.998v1.291
			c0.258,0.215,0.496,0.322,0.709,0.322c0.107,0,0.289-0.049,0.549-0.146c0.258-0.096,0.441-0.145,0.547-0.145
			c0.107,0,0.293,0.049,0.564,0.145c0.27,0.098,0.445,0.146,0.531,0.146C139.841,16.852,140.089,16.561,140.089,15.981z
			 M139.7,16.241c-0.148,0.063-0.398,0.051-0.74-0.033c-0.408-0.086-0.645-0.131-0.709-0.131c-0.045,0-0.441,0.098-1.193,0.291
			c-0.107-0.086-0.16-0.234-0.16-0.451c0-0.602,0.16-1.299,0.482-2.096c0.172-0.43,0.441-1.086,0.807-1.965
			C138.981,13.276,139.487,14.735,139.7,16.241z M139.024,15.37c-0.172-0.518-0.441-1.15-0.807-1.904
			c-0.43,0.969-0.635,1.645-0.613,2.031c0.26-0.127,0.465-0.191,0.613-0.191c0.088,0,0.227,0.021,0.42,0.064
			C138.831,15.411,138.96,15.411,139.024,15.37z"/>
		<path fill="#FFFFFF" d="M162.493,6.989c-0.799,0.838-1.506,1.924-2.129,3.254c-0.689,1.439-1.033,2.676-1.033,3.707
			c0,0.559,0.119,1.021,0.355,1.387c-0.021,0.043-0.064,0.15-0.129,0.324c-1.225,0.492-2.191,1.996-2.902,4.512
			c-0.277,0.967-0.418,1.74-0.418,2.32c0,0.193,0.068,0.531,0.209,1.016c0.141,0.482,0.264,0.768,0.371,0.855
			c-0.475,0.473-1.041,0.707-1.709,0.707c-0.172,0-0.43-0.043-0.773-0.129c-0.342-0.084-0.602-0.129-0.771-0.129
			c0.105,0-0.098,0.086-0.613,0.258h-0.84c-0.426,0-0.715-0.025-0.854-0.08c-0.139-0.053-0.393-0.221-0.758-0.5
			c0.322-0.967,0.482-1.611,0.482-1.934c0-1.268-0.492-2.934-1.48-4.996c-0.43-0.902-1.086-1.568-1.967-2
			c0.301-0.836,0.453-1.342,0.453-1.514c0,0.129-0.055-0.076-0.164-0.611c-0.516-2.58-1.547-4.688-3.092-6.32
			c0.148-0.299,0.525-0.557,1.127-0.773c0.516-0.172,0.977-0.258,1.385-0.258c0.109,0,0.361,0.064,0.76,0.193
			c0.396,0.129,0.65,0.193,0.756,0.193c0.195,0,0.479-0.064,0.855-0.193c0.375-0.129,0.648-0.193,0.82-0.193
			c0.279,0,0.627,0.086,1.049,0.258c0.418,0.174,0.627,0.377,0.627,0.613c0,0.045-0.111,0.295-0.338,0.758
			c-0.225,0.463-0.361,0.746-0.404,0.854v0.646c0,0.688,0.1,1.287,0.293,1.805c0.064,0.172,0.316,0.559,0.758,1.16
			c0.438,0.6,0.658,0.924,0.658,0.965c0,0.174-0.068,0.451-0.209,0.84c-0.139,0.387-0.209,0.666-0.209,0.838
			c0,0.408,0.092,0.92,0.273,1.531s0.402,1.059,0.662,1.338c0.213-0.064,0.43-0.504,0.645-1.322
			c0.172-0.688,0.256-1.213,0.256-1.578c0-0.131-0.057-0.408-0.174-0.84c-0.119-0.43-0.18-0.697-0.18-0.807
			c0-0.32,0.193-0.697,0.58-1.127c0.43-0.516,0.689-0.891,0.773-1.127c0.236-0.646,0.357-1.227,0.357-1.742
			c0-0.406-0.076-0.789-0.229-1.145c-0.15-0.354-0.322-0.756-0.516-1.207c0.582-0.473,1.205-0.711,1.869-0.711
			c0.107,0,0.361,0.064,0.758,0.193s0.65,0.193,0.76,0.193c0.127,0,0.381-0.064,0.758-0.193c0.373-0.129,0.615-0.193,0.723-0.193
			C160.815,6.084,161.653,6.387,162.493,6.989z M161.329,7.116c0-0.148-0.031-0.236-0.096-0.258
			c-0.559-0.127-0.957-0.191-1.193-0.191c-0.342,0-0.643,0.074-0.9,0.225c-0.518,0.301-0.742,0.451-0.678,0.451
			c-0.73-0.451-1.258-0.676-1.578-0.676c-0.301,0-0.613,0.105-0.936,0.322c0.322,0.73,0.482,1.438,0.482,2.125
			c0,0.732-0.209,1.656-0.625,2.775c-0.242,0.342-0.52,0.762-0.824,1.254c-0.064,0.346-0.076,0.775-0.033,1.291
			c0.084,0.709,0.129,1.107,0.129,1.191c-0.045,0.541-0.463,1.656-1.256,3.354c-0.064,0.107-0.131,0.162-0.193,0.162
			c-1.035-1.441-1.549-3-1.549-4.674c0-0.453,0.031-0.891,0.096-1.324c-0.922-1.266-1.385-2.598-1.385-3.996
			c0-0.795,0.141-1.439,0.42-1.934c0.02-0.064,0.029-0.129,0.029-0.193c0-0.107-0.029-0.193-0.096-0.258
			c-0.063,0-0.178-0.016-0.338-0.049c-0.16-0.031-0.285-0.047-0.371-0.047c-0.428,0-0.879,0.141-1.354,0.418
			c-0.107,0.172-0.227,0.258-0.355,0.258c-0.02,0-0.197-0.113-0.529-0.338c-0.334-0.227-0.65-0.338-0.953-0.338
			c-0.107,0-0.191,0.01-0.256,0.029c-0.129,0.023-0.334,0.066-0.613,0.131c-0.193,0.021-0.344-0.031-0.451-0.16V7.28
			c1.762,2.367,2.643,4.768,2.643,7.199c0,0.301-0.021,0.594-0.064,0.873c0.754,0.561,1.385,1.453,1.902,2.68
			c0.172,0.41,0.484,1.367,0.936,2.875c0.084,0.279,0.129,0.84,0.129,1.68c0,0.215-0.016,0.531-0.049,0.953
			c-0.031,0.418-0.051,0.734-0.051,0.951c0.086,0,0.201,0.021,0.342,0.064c0.139,0.043,0.24,0.064,0.305,0.064
			c0.344,0,0.902-0.256,1.676-0.771c0.086,0.15,0.307,0.316,0.66,0.498c0.357,0.184,0.619,0.273,0.791,0.273
			c0.213,0,0.453-0.074,0.711-0.225c-0.088-0.432-0.129-0.902-0.129-1.418c0-2.086,0.566-4.137,1.707-6.156
			c0.428-0.473,0.891-1.055,1.385-1.742c0.064-0.215,0.076-0.623,0.031-1.225c-0.02-0.518-0.02-0.912,0-1.193
			c0.174-0.838,0.637-2.031,1.387-3.578C160.965,7.622,161.329,6.967,161.329,7.116z M160.653,7.407
			c-0.064,0.064-0.43,0.73-1.096,1.998c-0.902,1.721-1.352,3.299-1.352,4.738c0,0.346,0.041,0.656,0.127,0.936
			c-1.654,1.525-2.666,3.598-3.031,6.221c-0.193,1.313-0.16,2.203,0.098,2.676c-0.109,0.107-0.227,0.16-0.354,0.16
			c-0.238,0-0.688-0.287-1.355-0.869c-0.063,0.021-0.301,0.184-0.709,0.484c-0.322,0.256-0.535,0.385-0.646,0.385h-0.289
			l-0.193-0.129c0-0.148,0.039-0.373,0.113-0.676c0.076-0.301,0.113-0.525,0.113-0.676c0-0.838-0.293-2.215-0.881-4.127
			c-0.193-0.516-0.619-1.311-1.271-2.387c-0.238-0.191-0.543-0.547-0.914-1.063c0.023-0.516,0-1.258-0.064-2.225
			c-0.109-0.365-0.305-1.031-0.586-1.998c-0.111-0.408-0.424-1.139-0.947-2.189c-0.238-0.475-0.521-0.938-0.846-1.389
			c0.707-0.021,1.104-0.021,1.191,0c0.086,0.021,0.246,0.135,0.482,0.34c0.236,0.203,0.398,0.305,0.482,0.305
			c0.129,0,0.377-0.182,0.742-0.549c0.258-0.043,0.623-0.117,1.098-0.225c-0.174,1.268-0.258,1.934-0.258,1.998
			c0,1.248,0.225,2.279,0.674,3.094c0.473,0.604,0.711,1,0.711,1.195c0,0.129-0.031,0.43-0.098,0.902
			c-0.066,0.387-0.076,0.688-0.031,0.9c0.105,0.58,0.332,1.408,0.678,2.482c0.58,1.334,1.041,2,1.387,2
			c0.32,0,0.707-0.516,1.16-1.547c0.32-0.73,0.535-1.354,0.643-1.871c0.129-0.623,0.193-1.191,0.193-1.707
			c-0.02-0.088-0.064-0.301-0.129-0.646c-0.064-0.301-0.064-0.547,0-0.742c0.324-0.43,0.721-1.225,1.193-2.383
			c0.15-0.754,0.227-1.482,0.227-2.191c0-0.217-0.119-0.699-0.355-1.453c0.408-0.021,0.742,0.012,1,0.098
			c0.043,0.021,0.184,0.135,0.42,0.34c0.234,0.203,0.395,0.305,0.482,0.305l0.869-0.645c0.238,0,0.602-0.043,1.096-0.129
			L160.653,7.407z"/>
		<path fill="#FFFFFF" d="M169.551,15.434c-0.818,0.75-1.227,2.084-1.227,3.998c0,1.846,0.408,3.426,1.227,4.736
			c-0.064,0.15-0.297,0.338-0.695,0.564c-0.396,0.225-0.691,0.338-0.887,0.338c-0.277,0-0.682-0.059-1.209-0.176
			c-0.525-0.121-0.758-0.18-0.689-0.18c-0.09,0-0.197,0.039-0.324,0.113c-0.131,0.076-0.215,0.125-0.258,0.146
			c-0.539,0.064-0.988,0.096-1.354,0.096c-0.129,0-0.414-0.113-0.855-0.338c-0.439-0.227-0.682-0.381-0.727-0.469
			c0.84-1.115,1.26-2.727,1.26-4.832c0-1.592-0.42-2.924-1.26-3.998c0.84-0.838,1.26-2.158,1.26-3.967
			c0-1.717-0.344-3.135-1.031-4.254c-0.088-0.15-0.131-0.322-0.131-0.516c0.561-0.408,1.203-0.611,1.934-0.611
			c0.131,0,0.377,0.047,0.742,0.145c0.365,0.096,0.611,0.145,0.744,0.145c0.148,0,0.396-0.049,0.738-0.145
			c0.344-0.098,0.59-0.145,0.742-0.145c0.707,0,1.373,0.234,2,0.709c-0.818,1.158-1.227,2.717-1.227,4.672
			C168.325,13.252,168.733,14.575,169.551,15.434z M168.711,24.073c-0.645-1.459-0.967-3.014-0.967-4.664
			c0-1.246,0.16-2.307,0.482-3.188c0.26-0.385,0.389-0.654,0.389-0.803c0-0.043-0.104-0.313-0.309-0.807
			c-0.205-0.492-0.314-0.803-0.338-0.932c-0.148-0.645-0.225-1.352-0.225-2.125c0-0.836,0.107-1.777,0.322-2.83
			c0.021-0.086,0.119-0.316,0.289-0.691c0.172-0.377,0.248-0.584,0.227-0.629V6.795c-0.086-0.023-0.264-0.066-0.533-0.131
			s-0.434-0.096-0.498-0.096c-0.088,0-0.328,0.113-0.727,0.34c-0.396,0.223-0.639,0.338-0.723,0.338
			c-0.064,0-0.309-0.115-0.727-0.338c-0.42-0.227-0.672-0.34-0.758-0.34c-0.109,0-0.475,0.107-1.094,0.32v0.42
			c0.578,1.115,0.869,2.51,0.869,4.182c0,0.965-0.109,1.824-0.322,2.574c-0.023,0.088-0.117,0.324-0.291,0.709
			c-0.172,0.387-0.256,0.621-0.256,0.707c0,0.064,0.117,0.311,0.354,0.74c0.084,0.15,0.193,0.65,0.322,1.498
			c0.129,0.846,0.193,1.41,0.193,1.689c0,0.361-0.059,0.965-0.178,1.801s-0.232,1.395-0.338,1.674
			c-0.301,0.793-0.453,1.146-0.453,1.061c0,0.129,0.152,0.254,0.453,0.371c0.299,0.117,0.537,0.176,0.707,0.176
			c0.064,0,0.309-0.107,0.727-0.322s0.67-0.322,0.76-0.322c0.084,0,0.34,0.107,0.773,0.322c0.428,0.215,0.674,0.322,0.738,0.322
			C167.926,24.491,168.303,24.352,168.711,24.073z M168.131,15.434c0,0.086-0.086,0.273-0.258,0.563
			c-0.174,0.291-0.27,0.488-0.291,0.596c-0.215,0.926-0.32,1.869-0.32,2.84c0,1.33,0.105,2.297,0.32,2.898l0.549,1.549
			c-0.086,0.105-0.268,0.16-0.549,0.16c-0.234,0-0.516-0.113-0.838-0.338c-0.322-0.227-0.537-0.34-0.643-0.34
			c-0.064,0-0.264,0.113-0.598,0.34c-0.334,0.225-0.531,0.338-0.598,0.338h-0.771c-0.109-0.107-0.141-0.225-0.098-0.355
			c0.215-0.234,0.387-0.654,0.516-1.256c0.215-1.031,0.324-2.053,0.324-3.063c0-0.988-0.109-1.912-0.324-2.773
			c-0.086-0.148-0.182-0.365-0.289-0.643l-0.129-0.193c-0.088-0.107-0.129-0.215-0.129-0.322c0-0.064,0.084-0.248,0.258-0.549
			c0.172-0.301,0.268-0.506,0.289-0.613c0.215-0.922,0.324-1.848,0.324-2.771c0-2.02-0.271-3.396-0.807-4.127l0.031-0.225h1
			c0.064,0,0.23,0.111,0.498,0.338c0.27,0.227,0.438,0.34,0.502,0.34c0.063,0,0.244-0.113,0.547-0.34
			c0.301-0.227,0.492-0.338,0.58-0.338h0.902c-0.238,0.301-0.451,1-0.645,2.096c-0.152,0.924-0.225,1.676-0.225,2.256
			c0,0.881,0.105,1.805,0.32,2.771c0.021,0.107,0.117,0.313,0.291,0.613C168.045,15.186,168.131,15.37,168.131,15.434z"/>
		<path fill="#FFFFFF" d="M183.411,19.284c0,1.908-0.57,3.35-1.709,4.326c-1.139,0.975-2.676,1.461-4.609,1.461
			c-1.053,0-2.012-0.094-2.867-0.281c-0.174-0.043-0.59-0.203-1.242-0.486c-0.656-0.283-1.039-0.424-1.145-0.424
			c-0.195,0-0.463,0.139-0.807,0.418s-0.525,0.42-0.549,0.42c-0.213-0.945-0.32-1.342-0.32-1.193c0-0.602,0.277-1.213,0.838-1.836
			c-0.088-0.279-0.129-0.602-0.129-0.969c0-0.902,0.225-1.676,0.676-2.318c0.066,0.041,0.141,0.084,0.227,0.127
			c0.234,0.83,0.893,1.586,1.965,2.266c1.076,0.682,2.072,1.023,2.998,1.023c0.559,0,1.061-0.166,1.5-0.496
			c0.441-0.332,0.66-0.762,0.66-1.295c0-0.576-0.236-1.055-0.709-1.438c-0.475-0.385-1-0.576-1.578-0.576
			c-0.281,0-0.775,0.129-1.484,0.389c0-0.303-0.063-0.723-0.193-1.26c-0.129-0.258-0.441-0.559-0.934-0.9l-1.227-0.838
			c-1.096-0.969-1.643-2.172-1.643-3.613c0-1.76,0.521-3.146,1.563-4.158c1.043-1.008,2.443-1.514,4.207-1.514
			c0.645,0,1.461,0.193,2.449,0.582c0.99,0.385,1.516,0.578,1.578,0.578c-0.17,0,0.195-0.129,1.098-0.387
			c0.086,0.215,0.129,0.539,0.129,0.969c0,0.363-0.031,0.623-0.096,0.773c-0.195,0.279-0.377,0.559-0.549,0.838
			c-0.174,0.859-0.27,1.309-0.289,1.354c-0.131,0.365-0.398,0.74-0.807,1.129h-0.354c-0.109-0.646-0.447-1.221-1.016-1.727
			c-0.57-0.504-1.178-0.756-1.824-0.756c-0.514,0-0.955,0.16-1.32,0.482s-0.547,0.742-0.547,1.256c0,0.432,0.186,0.807,0.563,1.131
			c0.377,0.32,0.791,0.482,1.242,0.482c0.344,0,0.709-0.086,1.096-0.258h0.355c0.021,0.279,0.148,0.666,0.387,1.156
			c1.201,0.816,1.965,1.352,2.289,1.609c0.902,0.748,1.471,1.434,1.707,2.057C183.27,18.139,183.411,18.77,183.411,19.284z
			 M182.831,19.446c0-1.865-1.291-3.504-3.869-4.918c-0.131-0.064-0.34-0.268-0.629-0.611c-0.289-0.342-0.498-0.514-0.627-0.514
			c-0.066,0-0.129,0.016-0.195,0.049c-0.063,0.033-0.129,0.049-0.191,0.049c-0.689,0-1.283-0.221-1.789-0.662
			c-0.506-0.439-0.758-1.004-0.758-1.691c0-0.668,0.225-1.209,0.676-1.629c0.451-0.418,1.021-0.627,1.709-0.627
			c0.945,0,1.693,0.279,2.24,0.838c0.549,0.559,0.951,0.924,1.209,1.096c0.02-0.365,0.096-0.893,0.225-1.58
			c0.043-0.086,0.176-0.279,0.404-0.578c0.225-0.303,0.338-0.473,0.338-0.518c0-0.107-0.074-0.238-0.225-0.387
			c-0.15,0.064-0.314,0.098-0.484,0.098c-0.131,0-0.662-0.195-1.596-0.582c-0.936-0.387-1.715-0.578-2.338-0.578
			c-1.482,0-2.721,0.459-3.723,1.385c-0.998,0.924-1.5,2.127-1.5,3.609c0,1.418,0.678,2.656,2.031,3.709
			c0.473,0.258,1.064,0.709,1.771,1.352c0.068,0.172,0.184,0.387,0.355,0.645c1.848-0.17,3.01,0.441,3.482,1.838
			c0.023,0.063,0.031,0.344,0.031,0.838c0,1.57-0.859,2.355-2.578,2.355c-1.588,0-3.307-0.861-5.158-2.58l-0.127,1.096
			c0.021,0.064,0.092,0.199,0.211,0.402c0.117,0.205,0.176,0.34,0.176,0.402c0,0.088-0.176,0.328-0.533,0.727
			c-0.354,0.396-0.531,0.641-0.531,0.725c0,0.109,0.043,0.203,0.131,0.291c0.385-0.129,0.662-0.193,0.836-0.193
			c0.279,0,0.99,0.215,2.129,0.645s2.137,0.645,2.996,0.645c1.461,0,2.719-0.344,3.771-1.029c1.225-0.77,1.879-1.842,1.967-3.213
			c0-0.088,0.027-0.236,0.08-0.451S182.831,19.53,182.831,19.446z M182.346,19.299c0,0.947-0.225,1.828-0.678,2.646
			c-0.494,0.9-1.172,1.459-2.031,1.676c-0.105,0.045-0.234,0.119-0.385,0.227c-1.117,0.213-1.893,0.32-2.322,0.32
			c-0.752,0-1.482-0.129-2.191-0.387l-2.031-0.838c-0.105-0.043-0.504-0.064-1.191-0.064c0.127-0.215,0.408-0.482,0.836-0.805
			c0.023-0.043,0.033-0.129,0.033-0.258c0,0.107-0.096-0.193-0.289-0.904c1.201,0.957,2.148,1.484,2.836,1.59l0.387,0.25h2.645
			c0.191,0,0.52-0.219,0.982-0.654c0.463-0.438,0.727-0.75,0.791-0.941c0.148-0.488,0.225-0.807,0.225-0.957
			c0-0.826-0.301-1.576-0.902-2.248c-0.604-0.668-1.322-1.004-2.16-1.004c-0.086,0-0.215,0.018-0.387,0.049
			c-0.172,0.033-0.301,0.049-0.387,0.049c-0.172-0.473-0.754-1.053-1.74-1.74c-0.988-0.688-1.645-1.43-1.967-2.225
			c-0.086-0.215-0.129-0.664-0.129-1.354c0-2.342,1.031-3.816,3.092-4.416c0.066-0.021,0.551-0.033,1.453-0.033
			s1.387,0.012,1.449,0.033c0.559,0.301,1.43,0.643,2.613,1.031c-0.129,0.15-0.281,0.354-0.453,0.611
			c-0.021,0.217-0.063,0.518-0.127,0.904c-0.367-0.301-0.764-0.613-1.193-0.936c-0.109-0.086-0.303-0.172-0.582-0.256
			c-0.105-0.023-0.338-0.082-0.691-0.18c-0.354-0.096-0.607-0.145-0.758-0.145c-0.086,0-0.217,0.037-0.387,0.113
			c-0.172,0.076-0.293,0.123-0.354,0.145c-0.625,0.086-1.125,0.375-1.502,0.871c-0.373,0.494-0.563,1.051-0.563,1.676
			c0,0.494,0.154,0.977,0.469,1.449c0.311,0.475,0.691,0.797,1.143,0.969c0.064,0.043,0.16,0.117,0.289,0.225
			c0.195,0,0.469,0.021,0.822,0.064c0.357,0.045,0.629,0.064,0.824,0.064c0.449,0.602,1.084,1.117,1.902,1.547
			c1.072,0.559,1.836,1.322,2.287,2.289C182.239,18.229,182.346,18.743,182.346,19.299z"/>
	</g>
	<g>
		<path fill="#FFFFFF" d="M203.913,18.301c-0.189,0.168-0.428,0.459-0.721,0.877c-0.021,0.209-0.074,0.857-0.158,1.943
			c-0.021,0.209-0.113,0.555-0.281,1.035c-0.67,1.816-2.424,2.727-5.266,2.727c-2.174,0-3.752-0.533-4.732-1.598
			c-0.146-0.168-0.361-0.58-0.643-1.238c-0.283-0.658-0.424-1.092-0.424-1.301v-4.105c0-0.355-0.24-0.723-0.721-1.098l-0.219-0.219
			c0.627-0.607,0.939-1.047,0.939-1.316v-3.512c0-0.543,0.303-1.254,0.908-2.131c0.607-0.877,1.16-1.42,1.662-1.631
			c1.273-0.521,2.383-0.783,3.322-0.783c1.357,0,2.529,0.262,3.512,0.783c0.375,0.211,0.768,0.586,1.174,1.129
			c0.408,0.543,0.633,1.014,0.674,1.41c0,0.607,0.053,1.348,0.158,2.225c0.041,0.377,0.313,0.648,0.814,0.816v0.344
			c-0.502,0.377-0.951,0.564-1.348,0.564c-0.105,0-0.283-0.031-0.533-0.094s-0.428-0.094-0.533-0.094
			c-0.084,0-0.199,0.063-0.346,0.188c-0.209,0.146-0.355,0.23-0.438,0.252c-0.168,0.082-0.514,0.125-1.035,0.125
			c-0.795,0-1.338-0.168-1.629-0.502c0.605-0.668,0.908-1.305,0.908-1.912c0-0.939-0.48-1.41-1.441-1.41
			c-0.982,0-1.473,0.662-1.473,1.984c0,0.145,0.01,0.32,0.031,0.527v0.371c0,0.779,0.01,1.209,0.031,1.293
			c0.084,0.609,0.355,1.029,0.814,1.262c-0.188,0.188-0.428,0.514-0.721,0.977c-0.084,0.211-0.125,0.873-0.125,1.986v0.406
			c-0.021,0.23-0.031,0.408-0.031,0.533c0,1.297,0.49,1.943,1.473,1.943c0.418,0,0.764-0.135,1.033-0.406
			c0.273-0.271,0.408-0.617,0.408-1.035c0-0.502-0.303-1.117-0.908-1.85c0.521-0.418,1.002-0.627,1.441-0.627
			c0.375,0,0.795,0.109,1.254,0.33c0.459,0.219,0.711,0.328,0.752,0.328c0.084,0,0.262-0.047,0.533-0.141s0.449-0.141,0.533-0.141
			C203.045,17.518,203.495,17.78,203.913,18.301z M202.877,18.424c0-0.145-0.031-0.229-0.094-0.248h-0.596
			c-0.063,0-0.199,0.078-0.406,0.234c-0.211,0.156-0.355,0.236-0.439,0.236c0.334,0,0.15-0.158-0.549-0.471
			c-0.699-0.314-1.154-0.471-1.363-0.471c-0.105,0-0.23,0.074-0.377,0.221c0.314,0.793,0.471,1.377,0.471,1.754
			c0,1.297-0.668,1.943-2.006,1.943c0.021,0-0.252-0.031-0.814-0.094c-0.314-0.041-0.617-0.334-0.91-0.877
			c-0.25-0.48-0.375-0.826-0.375-1.035c0,0.564,0.016,0.314,0.047-0.752s0.047-1.902,0.047-2.508
			c0.25-0.605,0.377-0.951,0.377-1.033c0-0.043-0.084-0.23-0.252-0.564c-0.084-0.252-0.125-0.973-0.125-2.164
			c0-1.232,0.031-1.941,0.094-2.131c0.252-0.773,0.908-1.16,1.975-1.16c1.295,0,1.943,0.658,1.943,1.975
			c0,0.461-0.156,0.973-0.471,1.535l0.221,0.221h0.752c0.084,0,0.299-0.135,0.643-0.408c0.344-0.27,0.559-0.406,0.643-0.406
			s0.24,0.072,0.471,0.219c0.229,0.146,0.365,0.219,0.406,0.219h0.689v-0.406c-0.293-0.439-0.439-0.992-0.439-1.662v-0.188
			c0-0.92-0.27-1.713-0.814-2.383c-0.48-0.564-0.939-0.898-1.379-1.002c-1.504-0.334-2.445-0.502-2.82-0.502
			c-1.504,0-2.654,0.387-3.447,1.158c-0.502,0.5-0.848,0.896-1.035,1.188c-0.459,0.711-0.689,1.316-0.689,1.816v3.033
			c0,0.168-0.078,0.449-0.234,0.846c-0.158,0.396-0.234,0.646-0.234,0.752c0,0.125,0.076,0.395,0.234,0.813
			c0.156,0.418,0.234,0.678,0.234,0.783v3.629c0,0.084,0.041,0.225,0.125,0.422c0.084,0.199,0.127,0.309,0.127,0.328
			c0.166,0.855,0.688,1.576,1.566,2.16c0.877,0.582,1.766,0.875,2.664,0.875h1.598c0.146,0,0.512-0.078,1.098-0.234
			c0.584-0.154,0.951-0.275,1.098-0.357c0.918-0.479,1.514-1.195,1.785-2.152c0.125-0.436,0.199-1.217,0.221-2.338
			c0-0.105,0.057-0.25,0.172-0.438C202.819,18.614,202.877,18.489,202.877,18.424z M202.219,12.159
			c-0.084-0.021-0.24-0.111-0.471-0.268s-0.375-0.234-0.438-0.234c-0.105,0-0.268,0.1-0.486,0.297
			c-0.219,0.199-0.443,0.404-0.674,0.611h-0.219l-0.156-0.125c0.082-0.188,0.125-0.605,0.125-1.254c0-0.584-0.012-0.908-0.033-0.971
			c-0.082-0.293-0.307-0.576-0.672-0.846c-0.365-0.273-0.705-0.42-1.02-0.439c-0.021,0-0.074-0.027-0.156-0.078
			c-0.084-0.053-0.168-0.078-0.252-0.078c-1.127,0-1.963,0.449-2.506,1.348c-0.043,0.209-0.096,0.49-0.158,0.846l-0.063,0.125
			c-0.063,0.084-0.094,0.178-0.094,0.281c0,0.064,0.021,0.162,0.063,0.299s0.063,0.234,0.063,0.299v2.35
			c0,0.084,0.059,0.246,0.172,0.486c0.115,0.24,0.174,0.402,0.174,0.486c0,0.082-0.078,0.316-0.236,0.703
			c-0.156,0.387-0.234,0.633-0.234,0.738c0,0.041,0.021,0.125,0.063,0.25s0.063,0.219,0.063,0.281v2.758
			c0,0.586,0.271,1.088,0.811,1.506c0.477,0.375,1.016,0.564,1.619,0.564c1.641,0,2.461-0.826,2.461-2.477
			c0-0.314-0.031-0.648-0.096-1.004c-0.145-0.25-0.219-0.396-0.219-0.438c0.209,0.063,0.502,0.168,0.879,0.313
			c0.041,0.021,0.172,0.131,0.391,0.33s0.361,0.297,0.424,0.297c0.02,0,0.281-0.125,0.783-0.377v1.818
			c0,0.105-0.105,0.514-0.313,1.223c-0.418,1.4-1.861,2.102-4.326,2.102c-0.23,0-0.586-0.037-1.064-0.111
			c-0.482-0.072-0.838-0.109-1.066-0.109c-0.084-0.063-0.209-0.135-0.377-0.219c-0.543-0.125-0.971-0.365-1.285-0.721
			c-0.188-0.209-0.406-0.555-0.658-1.035c-0.209-1.002-0.313-1.85-0.313-2.539v-2.412c0-0.105-0.063-0.334-0.188-0.689
			c-0.127-0.355-0.189-0.596-0.189-0.721c0-0.105,0.047-0.309,0.141-0.611s0.141-0.539,0.141-0.705v-2.227
			c0-1.461,0.451-2.627,1.35-3.494s2.078-1.301,3.541-1.301c0.752,0,1.275,0.051,1.566,0.156c0.396,0.146,0.723,0.23,0.973,0.25
			c0.063,0.063,0.156,0.137,0.283,0.221C201.487,8.073,202.116,9.588,202.219,12.159z"/>
		<path fill="#FFFFFF" d="M217.864,15.229c-0.146,0.146-0.334,0.346-0.564,0.596c-0.25,0.334-0.377,0.67-0.377,1.004v3.541
			c0,0.564-0.188,1.232-0.564,2.006c-0.375,0.773-0.783,1.297-1.221,1.566c-1.047,0.629-2.404,0.941-4.074,0.941
			c-3.449,0-5.33-1.285-5.643-3.855c-0.021-0.104-0.068-0.355-0.141-0.752c-0.074-0.396-0.111-0.646-0.111-0.752v-3.26
			c0-0.25-0.25-0.521-0.752-0.814c0.021-0.021,0.168-0.199,0.439-0.533c0.209-0.271,0.313-0.449,0.313-0.533v-2.945
			c0.021-0.146,0.105-0.564,0.252-1.256c0.271-1.377,0.939-2.443,2.006-3.195c1.002-0.691,2.225-1.035,3.668-1.035
			c0.166,0,1.105,0.168,2.82,0.502c0.646,0.125,1.311,0.686,1.99,1.676c0.678,0.994,1.018,1.834,1.018,2.525v3.195
			c0,0.189,0.111,0.443,0.33,0.768S217.674,15.147,217.864,15.229z M216.829,15.293c0-0.084-0.063-0.221-0.188-0.408
			c-0.125-0.189-0.188-0.313-0.188-0.377v-3.01c0-0.563-0.168-1.236-0.502-2.021c-0.336-0.783-0.711-1.352-1.129-1.707
			c-0.961-0.836-2.205-1.254-3.729-1.254c-0.982,0-1.881,0.209-2.697,0.627c-0.898,0.459-1.547,1.098-1.943,1.912
			c-0.418,0.898-0.627,1.535-0.627,1.912V14.1c0,0.086-0.078,0.289-0.234,0.613c-0.156,0.322-0.234,0.516-0.234,0.58
			c0,0.082,0.078,0.281,0.234,0.594c0.156,0.314,0.234,0.502,0.234,0.564v3.824c0,0.23,0.146,0.73,0.439,1.504
			c0.627,1.65,2.236,2.477,4.828,2.477c1.273,0,2.244-0.135,2.914-0.406c0.855-0.355,1.504-1.045,1.943-2.07
			c0.334-0.773,0.502-1.545,0.502-2.318v-3.385c0-0.084,0.063-0.215,0.188-0.393S216.829,15.375,216.829,15.293z M216.358,15.325
			c0,0.061-0.076,0.244-0.234,0.549c-0.156,0.301-0.234,0.494-0.234,0.578v3.48c0,0.814-0.23,1.617-0.689,2.412
			c-0.209,0.355-0.555,0.67-1.035,0.941c-0.23,0.125-0.607,0.219-1.129,0.281c-0.668,0.063-1.064,0.115-1.189,0.156
			c-0.398,0.105-0.648,0.158-0.752,0.158c0.125,0-0.158-0.053-0.848-0.158c-0.293-0.041-0.721-0.094-1.285-0.156
			c-0.795-0.104-1.432-0.521-1.912-1.254c-0.459-0.668-0.689-1.42-0.689-2.258c0-0.145,0-0.291,0-0.438
			c0-0.02-0.025-0.068-0.078-0.141s-0.078-0.152-0.078-0.234v-3.041c0-0.084-0.063-0.23-0.188-0.439s-0.189-0.355-0.189-0.438
			c0-0.064,0.064-0.215,0.189-0.455s0.188-0.402,0.188-0.486v-2.57c0.021-0.063,0.072-0.166,0.156-0.314
			c-0.021-1.461,0.418-2.59,1.316-3.385c0.836-0.752,1.996-1.127,3.479-1.127c1.004,0,1.893,0.219,2.666,0.658
			c0.877,0.48,1.451,1.17,1.723,2.068c0.23,0.752,0.346,1.191,0.346,1.316v3.104c0,0.063,0.078,0.262,0.234,0.596
			C216.282,15.063,216.358,15.26,216.358,15.325z M213.663,18.145c0-1.086-0.041-1.777-0.125-2.068
			c-0.021-0.063-0.084-0.189-0.188-0.377c-0.105-0.188-0.158-0.324-0.158-0.406c0-0.084,0.053-0.227,0.158-0.424
			c0.104-0.199,0.166-0.318,0.188-0.361c0.084-0.271,0.125-0.908,0.125-1.912c0-1.086-0.105-1.891-0.313-2.414
			c-0.377-0.939-1.139-1.408-2.287-1.408c-0.357,0-0.764,0.104-1.225,0.313c-0.543,0.25-0.846,0.521-0.908,0.814
			c-0.021,0.063-0.078,0.189-0.172,0.377s-0.141,0.324-0.141,0.408v3.791c0,0.084,0.063,0.219,0.188,0.408
			c0.125,0.188,0.188,0.324,0.188,0.408c0,0.104-0.063,0.25-0.188,0.438s-0.188,0.314-0.188,0.377v4.168
			c0,0.396,0.354,0.867,1.064,1.41c0.146,0.105,0.43,0.23,0.848,0.377c0.041,0.02,0.229,0.031,0.564,0.031
			C212.805,22.094,213.663,20.778,213.663,18.145z M213.1,18.083c0,1.17-0.064,1.941-0.189,2.318
			c-0.271,0.814-0.889,1.223-1.848,1.223c-0.963,0-1.568-0.439-1.818-1.316c-0.105-0.355-0.158-1.045-0.158-2.068
			c0-1.107,0.043-1.859,0.127-2.258c0-0.041,0.057-0.145,0.172-0.313c0.113-0.166,0.172-0.293,0.172-0.375
			c0-0.064-0.074-0.227-0.219-0.486c-0.146-0.262-0.221-0.455-0.221-0.58c-0.021-0.396-0.031-0.941-0.031-1.631
			c0-1.211,0.084-2.006,0.252-2.381c0.291-0.668,0.992-1.004,2.1-1.004c0.836,0,1.357,0.502,1.566,1.504
			c0.063,0.293,0.096,0.932,0.096,1.912c0,1.234-0.064,1.971-0.189,2.209c-0.125,0.242-0.188,0.404-0.188,0.488
			c0,0.082,0.057,0.219,0.172,0.406s0.172,0.336,0.172,0.439C213.088,16.545,213.1,17.184,213.1,18.083z M212.629,18.083
			c0-0.752-0.021-1.223-0.063-1.412c-0.105-0.48-0.396-0.949-0.879-1.41c0.627-0.375,0.941-1.232,0.941-2.568
			c0-1.945-0.492-2.916-1.475-2.916c-0.73,0-1.189,0.355-1.377,1.066c-0.086,0.291-0.127,0.877-0.127,1.754
			c0,0.773,0.021,1.275,0.063,1.504c0.084,0.482,0.346,0.891,0.785,1.225c-0.42,0.291-0.68,0.742-0.785,1.346
			c-0.041,0.23-0.063,0.723-0.063,1.475c0,0.898,0.021,1.453,0.063,1.66c0.168,0.836,0.648,1.254,1.441,1.254
			C212.137,21.059,212.629,20.067,212.629,18.083z"/>
		<path fill="#FFFFFF" d="M224.483,21.122c-0.439,0.252-0.711,0.564-0.816,0.941c-0.02,0.355-0.094,0.92-0.219,1.691
			c-0.084,0.314-0.35,0.611-0.799,0.895c-0.449,0.281-0.842,0.422-1.176,0.422c-0.355,0-0.768-0.141-1.238-0.422
			c-0.471-0.283-0.748-0.58-0.83-0.895c-0.021-0.166-0.105-0.73-0.252-1.691c-0.021-0.168-0.125-0.35-0.313-0.549
			s-0.355-0.287-0.502-0.266c0.23-0.252,0.471-0.586,0.723-1.004c0.123-0.209,0.188-0.418,0.188-0.627
			c-0.043-1.65,0.668-2.477,2.131-2.477c1.004,0,1.713,0.48,2.131,1.441c0.021,0.336,0.072,0.838,0.156,1.506
			C223.709,20.213,223.981,20.557,224.483,21.122z M223.479,21.124c0-0.084-0.061-0.24-0.184-0.469
			c-0.123-0.23-0.186-0.387-0.186-0.471c-0.02-0.252-0.068-0.721-0.146-1.412c-0.105-0.293-0.303-0.543-0.594-0.752
			s-0.592-0.314-0.904-0.314c-1.186,0-1.77,0.826-1.748,2.477c0,0.084-0.057,0.246-0.172,0.486s-0.172,0.391-0.172,0.453
			c0,0.043,0.113,0.293,0.344,0.752c0,0.377,0.084,0.941,0.252,1.693c0.229,0.564,0.709,0.846,1.441,0.846
			c1.17,0,1.744-0.814,1.725-2.441c-0.021-0.105,0.031-0.264,0.156-0.471C223.417,21.292,223.479,21.167,223.479,21.124z
			 M223.008,21.028c0,0.063-0.047,0.188-0.145,0.377c-0.096,0.188-0.154,0.313-0.174,0.375c0.02,0.334,0,0.805-0.057,1.41
			c-0.213,0.523-0.582,0.783-1.109,0.783c-0.635,0-1.037-0.281-1.205-0.844c-0.084-0.545-0.158-1.088-0.221-1.631
			c-0.17,0-0.254-0.146-0.254-0.439c0.02-0.063,0.104-0.209,0.25-0.439c0.041-0.438,0.188-1.139,0.439-2.1l0.846-0.438
			c0.209,0,0.459,0.098,0.752,0.297s0.449,0.393,0.471,0.58c-0.021,0.375,0,0.877,0.063,1.504c0.02,0.064,0.084,0.152,0.188,0.268
			C222.958,20.846,223.008,20.946,223.008,21.028z"/>
	</g>
</g>
<g>
	<polygon fill="#FFFFFF" points="100.914,54.526 108.527,60.01 105.744,68.792 113.186,63.356 120.715,68.792 117.828,59.979 
		125.355,54.469 116.029,54.487 113.18,45.786 110.369,54.481 	"/>
	
		<path fill="none" stroke="#FFFFFF" stroke-width="0.25" stroke-linecap="round" stroke-linejoin="round" stroke-miterlimit="10" d="
		M159.434,56.372c1.006,2.279,3.08,3.863,5.49,3.244c3.016-0.777,4.83-3.85,4.053-6.863c-0.969-3.77-4.902-6.344-8.578-5.068
		c-6.787,2.354-15.684,16.26-26.405,19.326c-1.206,0.346-2.537,0.271-3.79-0.238c-2.434-0.994-3.602-3.773-2.607-6.209
		c0.795-1.947,3.019-2.881,4.966-2.086c1.558,0.637,2.306,2.416,1.669,3.973c-0.509,1.246-1.932,1.846-3.178,1.336
		c-0.997-0.408-1.476-1.545-1.068-2.543c0.325-0.797,1.236-1.18,2.034-0.854c0,0-1.633-0.586-2.273,0.773
		c-0.385,0.816-0.25,3.234,1.906,3.203c3.013-0.043,3.047-2.859,1.938-4.375c-0.832-1.137-2.85-2.359-4.578-1.359
		s-4.23,5.986,0.915,8.199c5.746,2.473,22.921-13.305,27.455-16.756c1.6-1.217,4.521-3.133,6.959-2.229
		c2.766,1.027,4.5,3.709,4.625,6.396c0.137,2.959-2.734,5.549-5.406,4.967C160.684,58.584,159.137,55.698,159.434,56.372z"/>
	
		<path fill="none" stroke="#FFFFFF" stroke-width="0.25" stroke-linecap="round" stroke-linejoin="round" stroke-miterlimit="10" d="
		M66.732,56.372c-1.006,2.279-3.079,3.863-5.489,3.244c-3.016-0.777-4.831-3.85-4.054-6.863c0.97-3.77,4.902-6.344,8.579-5.068
		c6.787,2.354,15.684,16.26,26.405,19.326c1.206,0.346,2.537,0.271,3.79-0.238c2.434-0.994,3.602-3.773,2.607-6.209
		c-0.795-1.947-3.019-2.881-4.966-2.086c-1.558,0.637-2.306,2.416-1.669,3.973c0.509,1.246,1.932,1.846,3.178,1.336
		c0.997-0.408,1.476-1.545,1.068-2.543c-0.325-0.797-1.236-1.18-2.034-0.854c0,0,1.633-0.586,2.273,0.773
		c0.385,0.816,0.25,3.234-1.906,3.203c-3.013-0.043-3.047-2.859-1.938-4.375c0.832-1.137,2.85-2.359,4.578-1.359
		s4.23,5.986-0.915,8.199c-5.746,2.473-22.922-13.305-27.456-16.756c-1.6-1.217-4.521-3.133-6.958-2.229
		c-2.766,1.027-4.5,3.709-4.625,6.396c-0.138,2.959,2.734,5.549,5.406,4.967C65.483,58.584,67.03,55.698,66.732,56.372z"/>
</g>
</svg>
